<?xml version="1.0" encoding="utf-8"?>
<!-- Generator: Adobe Illustrator 25.2.0, SVG Export Plug-In . SVG Version: 6.00 Build 0)  -->
<svg version="1.1" id="Layer_3" xmlns="http://www.w3.org/2000/svg" xmlns:xlink="http://www.w3.org/1999/xlink" x="0px" y="0px"
	 viewBox="0 0 373.9 226.62" style="enable-background:new 0 0 373.9 226.62;" xml:space="preserve">
<style type="text/css">
	.st0{fill:#FEF4F1;}
	.st1{fill:#B9B5C8;}
	.st2{fill:#A0D6D0;}
	.st3{fill:#DDD9EC;}
	.st4{fill:#FF7B5E;}
	.st5{fill:#FFFFFF;}
	.st6{fill:#A0C298;}
	.st7{fill:#FFB55E;}
	.st8{fill:#008E69;}
	.st9{fill:#006458;}
	.st10{fill:#051D3F;}
	.st11{fill:#E19470;}
	.st12{fill:#CF6A37;}
	.st13{fill:#8B1D0F;}
	.st14{fill:#1E1401;}
	.st15{fill:#00A39D;}
	.st16{fill:#E29571;}
	.st17{fill:#A2D9D3;}
	.st18{fill:#FFA400;}
	.st19{fill:none;stroke:#1E1401;stroke-miterlimit:10;}
	.st20{fill:#DDD9E5;}
	.st21{fill:#BAB5C5;}
	.st22{fill:#E5E2F0;}
	.st23{fill:#FFB962;}
	.st24{fill:#AE5550;}
	.st25{fill:#F39035;}
	.st26{fill:#691515;}
	.st27{fill:#8B0000;}
	.st28{fill:#470C03;}
	.st29{fill:#AB524D;}
</style>
<g>
	<g>
		<g>
			<path class="st0" d="M362.66,27.22v170.53c0,8.03-6.51,14.55-14.54,14.55H27.68c-8.03,0-14.55-6.51-14.55-14.55V27.22
				c0-8.03,6.51-14.55,14.55-14.55h320.44C356.15,12.67,362.66,19.19,362.66,27.22z"/>
		</g>
		<g>
			<path class="st1" d="M362.66,27.22V51H13.13V27.22c0-8.03,6.51-14.55,14.55-14.55h320.44C356.15,12.67,362.66,19.19,362.66,27.22
				z"/>
		</g>
		<g>
			<path class="st1" d="M59.01,76.16H27.37c-1.71,0-3.11-1.39-3.11-3.11c0-1.71,1.39-3.11,3.11-3.11h31.64
				c1.71,0,3.11,1.39,3.11,3.11C62.11,74.77,60.72,76.16,59.01,76.16z M27.37,70.37c-1.48,0-2.69,1.2-2.69,2.69
				c0,1.48,1.2,2.69,2.69,2.69h31.64c1.48,0,2.69-1.2,2.69-2.69c0-1.48-1.2-2.69-2.69-2.69H27.37z"/>
		</g>
		<g>
			<path class="st1" d="M80.94,76.16H68.02c-1.71,0-3.11-1.39-3.11-3.11c0-1.71,1.39-3.11,3.11-3.11h12.92
				c1.71,0,3.11,1.39,3.11,3.11C84.05,74.77,82.65,76.16,80.94,76.16z M68.02,70.37c-1.48,0-2.69,1.2-2.69,2.69
				c0,1.48,1.2,2.69,2.69,2.69h12.92c1.48,0,2.69-1.2,2.69-2.69c0-1.48-1.2-2.69-2.69-2.69H68.02z"/>
		</g>
		<g>
			<path class="st1" d="M59.01,87.39H27.37c-1.71,0-3.11-1.39-3.11-3.11c0-1.71,1.39-3.11,3.11-3.11h31.64
				c1.71,0,3.11,1.39,3.11,3.11C62.11,85.99,60.72,87.39,59.01,87.39z M27.37,81.6c-1.48,0-2.69,1.2-2.69,2.69
				c0,1.48,1.2,2.69,2.69,2.69h31.64c1.48,0,2.69-1.2,2.69-2.69c0-1.48-1.2-2.69-2.69-2.69H27.37z"/>
		</g>
		<g>
			<path class="st1" d="M80.94,87.39H68.02c-1.71,0-3.11-1.39-3.11-3.11c0-1.71,1.39-3.11,3.11-3.11h12.92
				c1.71,0,3.11,1.39,3.11,3.11C84.05,85.99,82.65,87.39,80.94,87.39z M68.02,81.6c-1.48,0-2.69,1.2-2.69,2.69
				c0,1.48,1.2,2.69,2.69,2.69h12.92c1.48,0,2.69-1.2,2.69-2.69c0-1.48-1.2-2.69-2.69-2.69H68.02z"/>
		</g>
		<g>
			<path class="st1" d="M59.01,97.53H27.37c-1.71,0-3.11-1.39-3.11-3.11c0-1.71,1.39-3.11,3.11-3.11h31.64
				c1.71,0,3.11,1.39,3.11,3.11C62.11,96.14,60.72,97.53,59.01,97.53z M27.37,91.74c-1.48,0-2.69,1.2-2.69,2.69
				c0,1.48,1.2,2.69,2.69,2.69h31.64c1.48,0,2.69-1.2,2.69-2.69c0-1.48-1.2-2.69-2.69-2.69H27.37z"/>
		</g>
		<g>
			<path class="st1" d="M80.94,97.53H68.02c-1.71,0-3.11-1.39-3.11-3.11c0-1.71,1.39-3.11,3.11-3.11h12.92
				c1.71,0,3.11,1.39,3.11,3.11C84.05,96.14,82.65,97.53,80.94,97.53z M68.02,91.74c-1.48,0-2.69,1.2-2.69,2.69
				c0,1.48,1.2,2.69,2.69,2.69h12.92c1.48,0,2.69-1.2,2.69-2.69c0-1.48-1.2-2.69-2.69-2.69H68.02z"/>
		</g>
		<g>
			<path class="st1" d="M59.01,108.36H27.37c-1.71,0-3.11-1.39-3.11-3.11c0-1.71,1.39-3.11,3.11-3.11h31.64
				c1.71,0,3.11,1.39,3.11,3.11C62.11,106.96,60.72,108.36,59.01,108.36z M27.37,102.56c-1.48,0-2.69,1.2-2.69,2.69
				c0,1.48,1.2,2.69,2.69,2.69h31.64c1.48,0,2.69-1.2,2.69-2.69c0-1.48-1.2-2.69-2.69-2.69H27.37z"/>
		</g>
		<g>
			<path class="st1" d="M80.94,108.36H68.02c-1.71,0-3.11-1.39-3.11-3.11c0-1.71,1.39-3.11,3.11-3.11h12.92
				c1.71,0,3.11,1.39,3.11,3.11C84.05,106.96,82.65,108.36,80.94,108.36z M68.02,102.56c-1.48,0-2.69,1.2-2.69,2.69
				c0,1.48,1.2,2.69,2.69,2.69h12.92c1.48,0,2.69-1.2,2.69-2.69c0-1.48-1.2-2.69-2.69-2.69H68.02z"/>
		</g>
		<g>
			<circle class="st2" cx="217.6" cy="72.44" r="5.03"/>
		</g>
		<g>
			<circle class="st3" cx="217.6" cy="88.68" r="5.03"/>
		</g>
		<g>
			<circle class="st4" cx="217.6" cy="103.6" r="5.03"/>
		</g>
		<g>
			<path class="st1" d="M344.64,76.1H231.99c-2.1,0-3.81-1.71-3.81-3.81c0-2.1,1.71-3.81,3.81-3.81h112.65
				c2.1,0,3.81,1.71,3.81,3.81C348.45,74.39,346.74,76.1,344.64,76.1z M231.99,68.91c-1.87,0-3.38,1.52-3.38,3.38
				c0,1.87,1.52,3.38,3.38,3.38h112.65c1.87,0,3.38-1.52,3.38-3.38c0-1.87-1.52-3.38-3.38-3.38H231.99z"/>
		</g>
		<g>
			<path class="st1" d="M344.64,92.49H231.99c-2.1,0-3.81-1.71-3.81-3.81c0-2.1,1.71-3.81,3.81-3.81h112.65
				c2.1,0,3.81,1.71,3.81,3.81C348.45,90.78,346.74,92.49,344.64,92.49z M231.99,85.3c-1.87,0-3.38,1.52-3.38,3.38
				c0,1.87,1.52,3.38,3.38,3.38h112.65c1.87,0,3.38-1.52,3.38-3.38c0-1.87-1.52-3.38-3.38-3.38H231.99z"/>
		</g>
		<g>
			<path class="st1" d="M344.64,107.4H231.99c-2.1,0-3.81-1.71-3.81-3.81s1.71-3.81,3.81-3.81h112.65c2.1,0,3.81,1.71,3.81,3.81
				S346.74,107.4,344.64,107.4z M231.99,100.21c-1.87,0-3.38,1.52-3.38,3.38s1.52,3.38,3.38,3.38h112.65c1.87,0,3.38-1.52,3.38-3.38
				s-1.52-3.38-3.38-3.38H231.99z"/>
		</g>
		<g>
			<path class="st5" d="M329.48,36.57H72.05c-2.37,0-4.29-1.92-4.29-4.29v0c0-2.37,1.92-4.29,4.29-4.29h257.42
				c2.37,0,4.29,1.92,4.29,4.29v0C333.77,34.64,331.85,36.57,329.48,36.57z"/>
		</g>
		<g>
			<circle class="st5" cx="58.51" cy="31.84" r="4.36"/>
		</g>
		<g>
			<circle class="st5" cx="45.5" cy="31.84" r="4.36"/>
		</g>
		<g>
			<circle class="st5" cx="32.3" cy="31.84" r="4.36"/>
		</g>
		<g>
			<path class="st5" d="M195.87,137.11h-42.1c-3.66,0-6.63-2.97-6.63-6.63V69.25c0-3.66,2.97-6.63,6.63-6.63h42.1
				c3.66,0,6.63,2.97,6.63,6.63v61.24C202.5,134.15,199.53,137.11,195.87,137.11z"/>
		</g>
		<g>
			<rect x="154.25" y="109.57" class="st6" width="40.92" height="2.1"/>
		</g>
		<g>
			<rect x="154.25" y="116.54" class="st6" width="40.92" height="2.1"/>
		</g>
		<g>
			<rect x="154.25" y="123.51" class="st6" width="29.98" height="2.1"/>
		</g>
		<g>
			<rect x="154.25" y="70.96" class="st7" width="40.92" height="30.74"/>
		</g>
		<g>
			<path class="st8" d="M195.17,96.51v5.19h-37.1l18.64-16.32c0.81-0.71,1.84-1.1,2.92-1.1c0.54,0,1.07,0.1,1.56,0.29
				c0.49,0.19,0.96,0.46,1.36,0.82L195.17,96.51z"/>
		</g>
		<g>
			<path class="st9" d="M167.31,87.43l-13.05,10.83v3.43h3.82l14.39-12.6l-2.44-1.76C169.2,86.74,168.09,86.78,167.31,87.43z"/>
		</g>
		<g>
			<circle class="st5" cx="163.36" cy="78.94" r="3.54"/>
		</g>
		<g>
			<path class="st10" d="M256.2,90.56c0,0-3.12-14.63,13.79-17.27s25.78,17.87,25.78,17.87s3.24,11.15,12.95,13.79
				c9.71,2.64,23.39,10.79,17.03,26.86l-81.19,26.02c0,0-11.27-5.88-6.48-13.19c4.8-7.32,1.44-14.39,1.92-16.31
				c0.48-1.92,5.64-7.92,8.04-9.59c2.4-1.68,6.48-5.64,5.4-14.39C252.36,95.6,253.56,91.88,256.2,90.56z"/>
		</g>
		<g>
			<path class="st11" d="M297.93,128.75l-2.36,22.01l-19.65-1.81l-0.91-15.04c0,0,2.63,0.09,2.08-2.08
				c-0.16-0.66-0.44-1.74-0.76-2.92c-0.72-2.71-1.6-5.96-1.6-5.96l-0.01,0c-0.42,0.1-16.8,3.84-16.13-28.92c0,0,5.88,5.64,14.27,0
				c1.8-0.84,5.16,0.48,5.16,4.56s5.99,2.88,7.19,0c1.2-2.88,5.82-4.63,7.63-2.18c1.81,2.45,1.72,7.79-3.53,11.14
				C289.32,107.55,284.25,123.31,297.93,128.75z"/>
		</g>
		<g>
			<path class="st12" d="M283.86,116.53c0,0-1.04,7.85-7.52,12.38c-0.72-2.71-1.6-5.96-1.6-5.96S282.24,119.65,283.86,116.53z"/>
		</g>
		<g>
			<path class="st13" d="M267.04,99.38c-0.09,0-0.19-0.03-0.27-0.09c-0.18-0.15-0.21-0.41-0.06-0.59c0.02-0.03,2.45-2.95,6.33-1.15
				c0.21,0.1,0.3,0.35,0.21,0.56c-0.1,0.21-0.35,0.3-0.56,0.21c-3.27-1.52-5.24,0.82-5.32,0.92
				C267.28,99.32,267.16,99.38,267.04,99.38z"/>
		</g>
		<g>
			<path class="st13" d="M258.67,100.29c-0.09,0-0.18-0.03-0.25-0.09c-0.19-0.14-0.22-0.41-0.08-0.59c1.65-2.18,4.02-1.62,5.03-1.02
				c0.2,0.12,0.27,0.38,0.15,0.58c-0.12,0.2-0.38,0.27-0.58,0.15c-0.1-0.06-2.33-1.31-3.93,0.8
				C258.93,100.23,258.8,100.29,258.67,100.29z"/>
		</g>
		<g>
			<path class="st12" d="M267.42,111.1c-0.83,0-1.76-0.14-2.22-0.71c-0.37-0.45-0.4-1.05-0.09-1.78c1.03-2.47-0.55-7.37-0.56-7.42
				c-0.07-0.22,0.05-0.46,0.27-0.53c0.22-0.07,0.46,0.05,0.53,0.27c0.07,0.21,1.69,5.25,0.54,8c-0.17,0.42-0.19,0.73-0.03,0.92
				c0.41,0.5,1.99,0.46,2.98,0.27c0.23-0.05,0.45,0.11,0.5,0.33c0.04,0.23-0.1,0.45-0.33,0.5
				C268.85,110.98,268.18,111.1,267.42,111.1z"/>
		</g>
		<g>
			<path class="st12" d="M269.6,114.66c-1.68,0-2.81-0.86-2.83-0.87c-0.18-0.14-0.22-0.41-0.07-0.59c0.14-0.18,0.41-0.22,0.59-0.07
				l0,0c0.12,0.09,2.85,2.13,6.16-1.18c0.17-0.17,0.43-0.17,0.6,0c0.17,0.17,0.17,0.43,0,0.6
				C272.41,114.19,270.85,114.66,269.6,114.66z"/>
		</g>
		<g>
			<ellipse class="st14" cx="270.12" cy="102.61" rx="1.21" ry="1.54"/>
		</g>
		<g>
			<ellipse class="st14" cx="262.63" cy="103.6" rx="1.21" ry="1.54"/>
		</g>
		<g>
			<path class="st15" d="M340.81,165.3c0,0,9.04-5.59,9.61-10.6c-1.85-1.07-13.77,1.46-13.77,1.46L340.81,165.3z"/>
		</g>
		<g>
			<path class="st16" d="M268.91,179.03c0,0-0.95,6.27-3.21,12.84c-2.67,7.76-7.15,15.94-14.03,14.77
				c-11.69-1.99-5.78-27.08-4.76-31.08c0.09-0.35,0.14-0.54,0.14-0.54L268.91,179.03z"/>
		</g>
		<g>
			<path class="st12" d="M268.91,179.03c0,0-0.95,6.27-3.21,12.84c-4.65-2.21-15.18-7.98-18.78-16.31c0.09-0.35,0.14-0.54,0.14-0.54
				L268.91,179.03z"/>
		</g>
		<g>
			<path class="st17" d="M315.57,169.94l9.84,21.29l-47.05,14.31l-11.09-24.33c0,0-27.98-3.28-32.92-6.49l6.86-11.01
				c0,0,9.43-12.51,13.08-18.42c3.65-5.91,11.67-13.46,21.7-11.52c0,0,1.4-1.86,0.47-4.82l7.7,5.75l7.85-9.65c0,0,1.77,2.46,6,3.54
				c2.45,0.63,5.72,0.79,9.95-0.27c11.52-2.88,19.84,0.78,28.94,10.81c9.1,10.03,13.54,15.56,13.54,15.56
				S327.16,156.41,315.57,169.94z"/>
		</g>
		<g>
			<path class="st5" d="M298,128.59c-1.53,5.46-8.49,16.67-11.33,16.74c-2.84,0.08-2.99-4.86-2.99-4.86
				c0.08,2.09-0.82,2.69-0.82,2.69c-5.16-0.08-6.89-9.4-6.89-9.4s1.4-1.86,0.47-4.82l7.7,5.75l7.85-9.65
				C292,125.05,293.78,127.52,298,128.59z"/>
		</g>
		<g>
			
				<rect x="310.06" y="148.69" transform="matrix(0.8914 -0.4531 0.4531 0.8914 -38.7624 158.0497)" class="st15" width="0.85" height="22.47"/>
		</g>
		<g>
			<path class="st15" d="M266.85,181.31c-0.01-0.03-0.78-3.07-4.31-8.11c-2.31-3.3-1.23-8.28-0.27-12.68
				c0.74-3.39,1.43-6.58,0.51-8.45l0.76-0.38c1.06,2.13,0.33,5.47-0.44,9.01c-0.96,4.43-1.96,9.02,0.14,12.01
				c3.64,5.19,4.41,8.27,4.44,8.39L266.85,181.31z"/>
		</g>
		<g>
			<polygon class="st18" points="338.27,212.11 325.9,186.32 289.73,199.97 275.19,199.21 263.59,212.11 			"/>
		</g>
		<g>
			<path class="st15" d="M295.92,193.81l-0.81-0.23c0.05-0.17,1.14-4.24-2.96-6.91c-4.19-2.72-4.98-4.27-2.14-9.26
				c1.19-2.09-3.27-19.95-6.55-31.44l0.81-0.23c0.85,2.96,8.22,29.03,6.48,32.09c-2.6,4.59-1.97,5.64,1.87,8.14
				c2.42,1.57,3.19,3.62,3.41,5.06C296.27,192.58,295.94,193.76,295.92,193.81z"/>
		</g>
		<g>
			<circle class="st5" cx="289.77" cy="154.94" r="1.64"/>
		</g>
		<g>
			<circle class="st5" cx="292.38" cy="166.29" r="1.64"/>
		</g>
		<g>
			<path class="st19" d="M338.76,212.49"/>
		</g>
		<g>
			<path class="st16" d="M335.97,206.47l-43.04,6.02h-34.09c0,0,0.4-5.35,4.68-6.15c4.28-0.8,60.03-19.13,60.03-19.13l-3.78-8.19
				l-4.2-9.09c0,0,7.98-9.7,23.19-13.1c0,0,10.17,26.37,10.57,28.91S352.01,200.72,335.97,206.47z"/>
		</g>
		<g>
			<path class="st12" d="M338.76,156.84c-9.8,4.79-16.35,16.6-18.99,22.18l-4.2-9.09C315.57,169.94,325.24,158.96,338.76,156.84z"/>
		</g>
		<g>
			<path class="st20" d="M294.05,212.49h-39.31v-3.97h36.29c0.81,0,1.54,0.48,1.86,1.23L294.05,212.49z"/>
		</g>
		<g>
			<rect x="260.86" y="210.16" class="st21" width="5.15" height="1.02"/>
		</g>
		<g>
			<rect x="267.27" y="210.16" class="st21" width="5.15" height="1.02"/>
		</g>
		<g>
			<rect x="273.6" y="210.16" class="st21" width="1.68" height="1.02"/>
		</g>
		<g>
			<path class="st22" d="M256.81,212.49h-71.76l-7.9-47.4c-0.45-2.73,1.66-5.22,4.42-5.22h63.59c1.85,0,3.43,1.34,3.72,3.17
				L256.81,212.49z"/>
		</g>
		<g>
			<path class="st21" d="M256.81,212.49h-5.19c-1.86-11.17-6.97-41.96-7.39-46.1c-0.52-5.07-3.92-6.52-3.92-6.52h4.85
				c1.85,0,3.43,1.34,3.72,3.17L256.81,212.49z"/>
		</g>
		<g>
			<circle class="st5" cx="212.91" cy="186.17" r="5.48"/>
		</g>
		<g>
			
				<rect x="272.99" y="193.67" transform="matrix(0.9518 -0.3068 0.3068 0.9518 -44.867 102.3591)" class="st12" width="60.26" height="0.42"/>
		</g>
		<g>
			<path class="st23" d="M184.02,132.22c0,0-4.11,9.27-4.21,12.14l-0.05,0.13l-3.02,7.81l-17.83,46.15c-0.16,0.41-0.36,0.8-0.6,1.17
				c-1.5,2.33-7.32,10.89-12.44,12.13c0,0-11.18,1.82-15.67-1.14l-13.48,1.24H26.09c0,0-13.62-8.37-6.44-27.91
				c4.44-12.1,11.41-30.39,16.31-42.94c3.01-7.72,5.24-13.27,5.62-13.87c1-1.59,3.1-15.8,44.31-17.17
				c24.92,7.62,28.62,7.24,28.62,7.24l2.43-0.05c0,0,8.78,3.07,13.6,8c1.02,1.04,1.87,2.17,2.41,3.37
				c3.12,6.87,9.12,49.82,9.12,49.82l17.12-33.53l3.98-7.8c0,0,0.01-0.02,0.03-0.07c0.44-1.14,6.96-15.6,5.13-30.13l1.76-0.89
				c0,0,3.24,2.66,3.72,11.28c0,0,3.92-1.42,4.59,1.36l5.67-3.16l0.84,1.04l-1.25,2.9C183.63,119.31,189.75,124.09,184.02,132.22z"
				/>
		</g>
		<g>
			<path class="st24" d="M184.02,132.22c0,0-4.11,9.27-4.21,12.14l-0.05,0.13l-16.59-7.49c0,0,5.9-15.03,4.45-29.76
				c-0.07-0.73,0.32-1.43,0.98-1.77l0,0c0.88-0.46,1.96-0.12,2.44,0.75c1,1.85,2.45,5.43,2.76,10.98c0,0,3.92-1.42,4.59,1.36
				l5.27-3.43c0.59-0.38,1.36-0.25,1.8,0.3v0c0.39,0.5,0.39,1.2-0.01,1.69l-1.8,2.22C183.63,119.31,189.75,124.09,184.02,132.22z"/>
		</g>
		<g>
			<path class="st5" d="M179.76,144.48l-3.02,7.81l-17.56-7.49l3.98-7.8c0,0,0.01-0.02,0.03-0.07L179.76,144.48z"/>
		</g>
		<g>
			<polygon class="st5" points="90.06,191.9 86.34,211.84 95.62,211.84 99.14,193.15 			"/>
		</g>
		<g>
			<path class="st25" d="M130.53,125.13c-2.9,3.02-6.57,6.88-11.18,11.8c-18.41,19.58-32.66,1.17-36.63-3.96
				c-3.96-5.13-17.02-17.02-26.27-3.03c-6.13,9.27-15.12,10.96-20.5,11.05c3.01-7.72,5.24-13.27,5.62-13.87
				c1-1.59,3.1-15.8,44.31-17.17c24.92,7.62,28.62,7.24,28.62,7.24l2.43-0.05C116.93,117.13,125.71,120.2,130.53,125.13z"/>
		</g>
		<g>
			<path class="st26" d="M169.83,125.85c-0.06,0-0.12-0.03-0.16-0.08c-0.07-0.09-0.06-0.22,0.03-0.3l8.54-7.1
				c0.09-0.08,0.22-0.06,0.3,0.03c0.07,0.09,0.06,0.22-0.03,0.3l-8.54,7.1C169.93,125.83,169.88,125.85,169.83,125.85z"/>
		</g>
		<g>
			<path class="st26" d="M173.62,122.7c-0.01,0-0.02,0-0.02,0c-0.12-0.01-0.2-0.12-0.19-0.23c0.31-2.74,0.17-5.25,0.17-5.27
				c-0.01-0.12,0.08-0.22,0.2-0.22c0.11-0.01,0.22,0.08,0.22,0.2c0,0.03,0.14,2.57-0.17,5.34
				C173.82,122.62,173.72,122.7,173.62,122.7z"/>
		</g>
		<g>
			<path class="st26" d="M178.74,138.83c-0.04,0-0.08-0.01-0.12-0.04c-0.1-0.07-0.12-0.2-0.05-0.29c0.02-0.03,2.36-3.44,1.71-6.82
				c-0.32-1.69-1.34-3.1-3.01-4.2l-0.19-0.13l6.75-8.62l0.03,0.57c0.39,8.79-2.64,11.93-3.14,12.38c0.63,3.53-1.69,6.91-1.79,7.06
				C178.87,138.8,178.8,138.83,178.74,138.83z M177.69,127.25c1.53,1.06,2.5,2.38,2.91,3.94c0.74-0.81,3.05-3.95,2.85-11.29
				L177.69,127.25z"/>
		</g>
		<g>
			<path class="st26" d="M184.02,132.43c-0.01,0-0.01,0-0.02,0c-0.02,0-0.6-0.07-1.14-0.53c-0.49-0.42-1.03-1.27-0.86-2.9
				c0.01-0.12,0.12-0.2,0.23-0.19c0.12,0.01,0.2,0.12,0.19,0.23c-0.12,1.16,0.12,2.01,0.72,2.53c0.44,0.38,0.91,0.43,0.91,0.43
				c0.12,0.01,0.2,0.12,0.19,0.23C184.21,132.35,184.12,132.43,184.02,132.43z"/>
		</g>
		<g>
			<path class="st24" d="M99.27,193.52l32.81,5.95c0,0,14.97,4.1,17.53,7.89s-16.1-2.67-16.1-2.67s-1.74,5.97-3.49,6.77
				c-1.81,0.82-34.29,0.59-34.29,0.59L99.27,193.52z"/>
		</g>
		<g>
			<path class="st27" d="M116.7,198c0,0,1.35,3.24-3.02,6.15l-0.86,7.98h-9.92l1.13-9.71c0,0-2.24-2.24-1.94-4.21
				S116.7,198,116.7,198z"/>
		</g>
		<g>
			<ellipse class="st5" cx="109.69" cy="197.75" rx="7.61" ry="5.38"/>
		</g>
		<g>
			<polygon class="st14" points="109.64,198.55 107.35,194.88 107.71,194.66 109.73,197.89 111.65,196.07 111.94,196.38 			"/>
		</g>
		<g>
			<circle class="st24" cx="108.61" cy="206.9" r="1.21"/>
		</g>
		<g>
			<path class="st25" d="M99.28,193.94c-0.02,0-0.04,0-0.06,0l-57.52-7.9c-0.23-0.03-0.39-0.24-0.36-0.48
				c0.03-0.23,0.24-0.4,0.48-0.36l57.52,7.9c0.23,0.03,0.39,0.24,0.36,0.48C99.66,193.79,99.48,193.94,99.28,193.94z"/>
		</g>
		<g>
			<path class="st25" d="M55.07,187.88c-0.04,0-0.07,0-0.11-0.01c-0.23-0.06-0.36-0.29-0.3-0.52l11.39-42.85
				c0.06-0.23,0.29-0.36,0.52-0.3c0.23,0.06,0.36,0.29,0.3,0.52l-11.39,42.85C55.43,187.75,55.26,187.88,55.07,187.88z"/>
		</g>
		<g>
			<path class="st25" d="M117.61,197.27c-0.03,0-0.06,0-0.09-0.01c-0.23-0.05-0.37-0.27-0.33-0.5l9.42-44.56
				c0.05-0.23,0.27-0.37,0.5-0.33c0.23,0.05,0.37,0.27,0.33,0.5l-9.42,44.56C117.98,197.13,117.81,197.27,117.61,197.27z"/>
		</g>
		<g>
			<path class="st25" d="M142.61,187.88c-0.22,0-0.41-0.17-0.42-0.4l-0.55-9.13c-0.01-0.23,0.16-0.43,0.4-0.45
				c0.23-0.01,0.43,0.16,0.45,0.4l0.55,9.13c0.01,0.23-0.16,0.43-0.4,0.45C142.62,187.88,142.61,187.88,142.61,187.88z"/>
		</g>
		<g>
			<polygon class="st5" points="99.84,130.84 107.94,119.44 107.94,127.04 116.93,117.13 114.5,113.33 108.5,118.54 92.47,103.53 
				85.88,109.94 			"/>
		</g>
		<g>
			<path class="st28" d="M94.99,85.43c0,0-3.09-12.63,2.86-15.41c0,0-0.06-3.48,1.16-5.68c1.1-1.98,5.71-8.61,16.83-4.52
				s16.99,1.9,15.19,15.44c0,0,7.65,0.74,4.95,10.75c0,0-1.87,0.77-2.03,2.62s-2.37,5.51-7.88,3.14
				C120.56,89.39,94.99,85.43,94.99,85.43z"/>
		</g>
		<g>
			<path class="st29" d="M129.14,84.47c-0.36-0.08-2.55,0.62-3.17,8.68c-0.78,10.02-10.5,15.59-10.5,15.59l-0.96,4.58l-3.35,2.73
				l-2.65,2.48l-16.03-15.01l6.49-11.51c-7.09-7.1-3.79-14.64-1.83-15.08c4.12-0.92,3.56,8.39,3.56,8.39l0.97,0.99
				c0,0,1.47-6.16,0.54-8.23c-0.95-2.08,0.3-3.02,0.3-3.02c4.55-0.09,5.95-5.49,6.29-6.4c0.34-0.9,4.73,1.99,6.33,5.13
				c1.6,3.14,9.01,2.04,9.01,2.04C123.87,78.74,128.17,83.46,129.14,84.47z"/>
		</g>
		<g>
			<path class="st14" d="M129.92,85.59l-0.75-0.77l0.15-0.15l-0.17,0.13c-0.03-0.03-0.09-0.09-0.18-0.18l-0.46-0.5l0.66,0.15
				c0.15,0.03,0.27,0.15,0.34,0.32L129.92,85.59z"/>
		</g>
		<g>
			<path class="st26" d="M114.53,109.2c-2.17,0-10.98-0.8-13.75-13.57c-0.05-0.23,0.1-0.45,0.32-0.5c0.23-0.05,0.45,0.1,0.5,0.32
				c1.24,5.72,3.95,9.77,7.83,11.69c2.91,1.44,5.47,1.2,5.49,1.2c0.23-0.02,0.44,0.14,0.46,0.38c0.02,0.23-0.14,0.44-0.38,0.46
				C115.01,109.18,114.83,109.2,114.53,109.2z"/>
		</g>
		<g>
			<path class="st28" d="M115.95,80.36c-0.16,0-0.32-0.09-0.39-0.25c-1.5-3.39-6.13-2.66-6.18-2.65c-0.23,0.04-0.45-0.12-0.49-0.35
				c-0.04-0.23,0.12-0.45,0.35-0.49c0.05-0.01,5.33-0.84,7.09,3.15c0.09,0.21,0,0.46-0.22,0.56C116.06,80.34,116,80.36,115.95,80.36
				z"/>
		</g>
		<g>
			<path class="st28" d="M127.03,85.19c-0.13,0-0.26-0.06-0.34-0.18c-2.81-3.9-5.26-2.32-5.36-2.25c-0.19,0.13-0.46,0.08-0.59-0.11
				c-0.13-0.19-0.08-0.45,0.11-0.59c0.03-0.02,3.21-2.15,6.53,2.45c0.14,0.19,0.09,0.45-0.1,0.59
				C127.2,85.17,127.11,85.19,127.03,85.19z"/>
		</g>
		<g>
			<path class="st26" d="M117.51,94.23c-1.09,0-2.69-0.99-3.24-1.35c-0.19-0.13-0.25-0.39-0.12-0.59c0.13-0.19,0.39-0.25,0.59-0.12
				c1.25,0.82,2.68,1.4,2.95,1.19c0.04-0.04,0.11-0.29-0.15-1c-1.31-3.54,1.32-8.81,1.43-9.03c0.11-0.21,0.36-0.29,0.57-0.19
				c0.21,0.11,0.29,0.36,0.19,0.57c-0.03,0.05-2.58,5.16-1.4,8.36c0.13,0.36,0.53,1.44-0.12,1.95
				C118.02,94.17,117.78,94.23,117.51,94.23z"/>
		</g>
		<g>
			<path class="st5" d="M114.35,98.75c-0.99,0-1.83-0.26-2.52-0.79c-1.61-1.23-1.71-3.42-1.71-3.52c-0.01-0.35,0.26-0.64,0.61-0.65
				c0.34-0.02,0.64,0.26,0.65,0.61c0,0.03,0.09,1.7,1.22,2.56c0.73,0.55,1.76,0.67,3.09,0.35c0.34-0.08,0.68,0.13,0.76,0.47
				c0.08,0.34-0.13,0.68-0.47,0.76C115.41,98.68,114.86,98.75,114.35,98.75z"/>
		</g>
		<g>
			
				<ellipse transform="matrix(0.1606 -0.987 0.987 0.1606 12.2653 180.7213)" class="st14" cx="112.39" cy="83.15" rx="1.81" ry="0.86"/>
		</g>
		<g>
			
				<ellipse transform="matrix(0.1606 -0.987 0.987 0.1606 16.4909 194.4148)" class="st14" cx="122.55" cy="87.51" rx="1.81" ry="0.86"/>
		</g>
	</g>
	<g>
		<path class="st12" d="M286.99,105.09c-0.03,0-0.07,0-0.1-0.01c-0.27-0.06-0.44-0.32-0.39-0.59c0.03-0.14,0.76-3.48,2.95-4.87
			c0.91-0.58,1.94-0.74,3.05-0.48c0.27,0.06,0.44,0.33,0.37,0.6c-0.06,0.27-0.33,0.43-0.6,0.37c-0.85-0.2-1.6-0.09-2.28,0.34
			c-1.83,1.16-2.5,4.2-2.51,4.23C287.43,104.93,287.22,105.09,286.99,105.09z"/>
	</g>
	<g>
		<path class="st5" d="M288.66,118.28c-0.27,0-0.53-0.08-0.77-0.23c-0.43-0.29-0.66-0.78-0.61-1.29l2.62-12.82l6.66,8.23
			c0.28,0.25,0.44,0.69,0.39,1.13c-0.05,0.44-0.32,0.83-0.71,1.05l-6.92,3.77C289.11,118.23,288.89,118.28,288.66,118.28z
			 M290.46,106.21l-2.18,10.7c-0.01,0.16,0.12,0.27,0.18,0.31c0.06,0.04,0.21,0.12,0.39,0.02l6.92-3.77
			c0.11-0.06,0.18-0.17,0.2-0.29c0.01-0.12-0.03-0.24-0.12-0.33L290.46,106.21z"/>
	</g>
</g>
</svg>
