<?xml version="1.0" encoding="UTF-8"?>
<svg version="1.1" xmlns="http://www.w3.org/2000/svg" width="1000" height="562">
<path d="M0 0 C330 0 660 0 1000 0 C1000 185.46 1000 370.92 1000 562 C670 562 340 562 0 562 C0 376.54 0 191.08 0 0 Z " fill="#FE8F8B" transform="translate(0,0)"/>
<path d="M0 0 C4.04016709 2.05681234 6.55180174 4.22512447 9 8 C9.65234375 10.296875 9.65234375 10.296875 9.9375 12.75 C10.10572266 13.94882813 10.10572266 13.94882813 10.27734375 15.171875 C9.31474029 24.98771875 1.06856097 31.44931343 -5.546875 37.9375 C-6.68546553 39.06861873 -7.82316765 40.20063237 -8.96002197 41.33349609 C-11.93666931 44.29496112 -14.92513471 47.24420904 -17.9163208 50.190979 C-20.97365414 53.20719918 -24.01952155 56.23495053 -27.06640625 59.26171875 C-33.03317974 65.18575221 -39.01250216 71.096914 -45 77 C-44.46890625 76.62746094 -43.9378125 76.25492187 -43.390625 75.87109375 C-42.68421875 75.39800781 -41.9778125 74.92492187 -41.25 74.4375 C-40.20585937 73.72400391 -40.20585937 73.72400391 -39.140625 72.99609375 C-37 72 -37 72 -34.98254395 72.12374878 C-32.47292515 73.23295826 -30.97422969 74.64449584 -29.02929688 76.58251953 C-28.26170044 77.34065948 -27.494104 78.09879944 -26.70324707 78.87991333 C-25.88336304 79.70587006 -25.063479 80.53182678 -24.21875 81.3828125 C-23.36825073 82.23044159 -22.51775146 83.07807068 -21.64147949 83.9513855 C-19.84241674 85.74840564 -18.04714149 87.54922435 -16.25537109 89.35351562 C-13.52113194 92.10374448 -10.77136837 94.8377052 -8.01953125 97.5703125 C-6.27247535 99.31935196 -4.52635089 101.06932242 -2.78125 102.8203125 C-1.96136597 103.63412384 -1.14148193 104.44793518 -0.29675293 105.28640747 C9.52917313 115.23338502 9.52917313 115.23338502 10.4375 122.5 C9.76605901 127.87152791 8.45137095 131.65482692 4.4375 135.375 C1.10558065 137.59627957 -0.77255905 138.19799791 -4.75 138.3125 C-5.59046875 138.34988281 -6.4309375 138.38726562 -7.296875 138.42578125 C-13.78259474 137.40418667 -18.47712976 131.80604605 -22.90234375 127.328125 C-23.5431337 126.68687683 -24.18392365 126.04562866 -24.84413147 125.38494873 C-26.19363244 124.03243931 -27.54071495 122.67751294 -28.88549805 121.3203125 C-30.92254341 119.26509005 -32.96739686 117.21790386 -35.01367188 115.171875 C-36.33120004 113.84942729 -37.64827211 112.52652499 -38.96484375 111.203125 C-39.86673683 110.29956268 -39.86673683 110.29956268 -40.78684998 109.37774658 C-44.44204156 105.6823992 -47.89223992 101.85966998 -51.29325867 97.93011475 C-53.87204238 95.01382721 -56.605908 92.26963853 -59.37109375 89.53125 C-59.93828629 88.96547241 -60.50547882 88.39969482 -61.08985901 87.81677246 C-62.87003423 86.04211423 -64.65368519 84.27099901 -66.4375 82.5 C-67.6584369 81.28408886 -68.87914192 80.06794484 -70.09960938 78.8515625 C-73.06374013 75.89835034 -76.03098958 72.94830602 -79 70 C-77.3837447 65.91336579 -74.44804688 63.21049134 -71.36328125 60.203125 C-70.80561569 59.65066101 -70.24795013 59.09819702 -69.67338562 58.5289917 C-67.89112195 56.76449486 -66.10233665 55.00681205 -64.3125 53.25 C-62.54133427 51.50667898 -60.77173379 49.76184233 -59.00517273 48.01385498 C-57.90827179 46.92896408 -56.80871422 45.84674924 -55.70588684 44.7678833 C-52.21711855 41.32348188 -48.98464365 37.71673718 -45.77735901 34.01013184 C-42.9358285 30.79645867 -39.9242553 27.7618361 -36.89453125 24.7265625 C-35.92479622 23.75183487 -35.92479622 23.75183487 -34.93547058 22.75741577 C-33.58303877 21.39996651 -32.22929145 20.04382669 -30.87426758 18.68896484 C-28.801957 16.61444577 -26.73780595 14.53202447 -24.67382812 12.44921875 C-23.35205171 11.1245117 -22.02980284 9.80027583 -20.70703125 8.4765625 C-20.09342239 7.85576813 -19.47981354 7.23497375 -18.84761047 6.59536743 C-18.26988388 6.02071747 -17.69215729 5.4460675 -17.09692383 4.85400391 C-16.59397293 4.34962799 -16.09102203 3.84525208 -15.5728302 3.32559204 C-10.87266766 -0.63573707 -5.90566881 -0.76503135 0 0 Z " fill="#FFFDFD" transform="translate(213,233)"/>
<path d="M0 0 C4.63586131 2.33188717 7.93179515 5.6608245 11.53442383 9.30737305 C12.16913605 9.94179321 12.80384827 10.57621338 13.45779419 11.2298584 C15.54565142 13.31910422 17.62634305 15.41533522 19.70703125 17.51171875 C21.15676398 18.96518327 22.60694014 20.41820562 24.05754089 21.87080383 C27.86775257 25.68863882 31.67191888 29.51244257 35.47485352 33.33752441 C39.35915664 37.24231394 43.24915251 41.14142315 47.13867188 45.04101562 C54.76469394 52.68846464 62.38434094 60.34223198 70 68 C68.33793145 72.31719433 65.06797289 75.21265329 61.85375977 78.4050293 C61.2243045 79.0379892 60.59484924 79.6709491 59.94631958 80.3230896 C57.86634896 82.41185589 55.77915581 84.4932297 53.69140625 86.57421875 C52.24384253 88.02312957 50.79657583 89.47233718 49.34959412 90.92182922 C46.31727938 93.95709215 43.28137725 96.98870877 40.24291992 100.01782227 C36.344234 103.90510376 32.45460801 107.80130745 28.56761265 111.70027447 C25.58158314 114.69352205 22.59081749 117.6820007 19.59858513 120.6690464 C18.16216031 122.10413511 16.72722505 123.54071635 15.29379463 124.97879601 C13.29253398 126.98512201 11.28499796 128.98494764 9.27563477 130.9831543 C8.68176468 131.58107285 8.08789459 132.17899139 7.47602844 132.79502869 C3.43464028 136.79483725 0.82209609 138.14804942 -4.8125 138.3125 C-9.65004408 138.25608549 -12.3256912 137.31583965 -16 134 C-19.27315148 129.35577054 -19.83402095 125.69985402 -19.63671875 120.09375 C-18.56364261 114.87978496 -15.47052317 112.09829479 -11.65771484 108.55810547 C-8.91669635 105.9817903 -6.2819869 103.29962468 -3.62866211 100.63354492 C-2.16068133 99.1623836 -0.68651474 97.69736069 0.79467773 96.23950195 C4.84589633 92.24241783 8.6987633 88.14939269 12.41455078 83.83886719 C14.5945398 81.31042905 16.8257234 78.85876394 19.125 76.4375 C19.93195313 75.56996094 20.73890625 74.70242188 21.5703125 73.80859375 C24 72 24 72 26.6171875 72.16015625 C27.40351563 72.43730469 28.18984375 72.71445312 29 73 C29.99 73.33 30.98 73.66 32 74 C31.46109131 73.46632813 30.92218262 72.93265625 30.36694336 72.3828125 C27.88773764 69.92460574 25.41260401 67.46233634 22.9375 65 C22.08994141 64.16082031 21.24238281 63.32164062 20.36914062 62.45703125 C16.66544072 58.76763134 13.0106388 55.08815176 9.6171875 51.109375 C6.68359807 47.68993264 3.55728586 44.49443624 0.35546875 41.328125 C-0.14475296 40.83340698 -0.64497467 40.33868896 -1.16035461 39.82897949 C-3.23869166 37.77834203 -5.32068242 35.73150079 -7.40698242 33.68896484 C-8.94889827 32.17724534 -10.48453337 30.65936394 -12.01953125 29.140625 C-12.92807861 28.24891602 -13.83662598 27.35720703 -14.77270508 26.43847656 C-19.11278022 21.68689589 -19.44213106 17.98155319 -19.31640625 11.6953125 C-18.74575094 6.83417465 -16.42868138 4.26060122 -12.875 1.125 C-8.64788815 -0.52908725 -4.47799741 -0.71368084 0 0 Z " fill="#FFFEFE" transform="translate(368,233)"/>
<path d="M0 0 C4.55605376 2.07093353 6.8446645 4.7432782 9.3359375 8.92578125 C11.89266668 16.91180006 7.99320649 23.48117058 4.74609375 30.6953125 C4.19765058 31.93927164 3.65059209 33.18384209 3.10484314 34.4289856 C1.97187846 37.01105482 0.8330882 39.59043303 -0.30987549 42.16809082 C-2.91822727 48.06422573 -5.43685888 53.99877386 -7.96484375 59.9296875 C-8.95280158 62.23873347 -9.94124815 64.54757038 -10.93017578 66.85620117 C-11.66835541 68.57980362 -11.66835541 68.57980362 -12.42144775 70.33822632 C-13.97942338 73.97280238 -15.53983502 77.60632707 -17.10107422 81.23950195 C-18.14689421 83.67395467 -19.19263091 86.10844316 -20.23828125 88.54296875 C-20.74292908 89.71787369 -21.2475769 90.89277863 -21.76751709 92.10328674 C-24.29665045 97.99974256 -26.80846835 103.90243323 -29.27656555 109.82470703 C-30.45792583 112.65898905 -31.6496891 115.48882618 -32.84280396 118.31817627 C-33.59696425 120.12049904 -34.33386237 121.93001521 -35.07006836 123.73974609 C-37.90487372 130.44337846 -40.32044222 134.66022111 -47 138 C-52.0111158 138.54978069 -55.89696493 138.56154513 -60.4375 136.25 C-64.84767162 132.37765419 -66.73998959 129.47149682 -67.36328125 123.546875 C-67.26206421 117.59261402 -64.61105975 112.58597696 -62.1875 107.25 C-61.37299639 105.40357598 -60.55855328 103.55712479 -59.74559021 101.71002197 C-58.8356317 99.64721541 -57.91946079 97.58723757 -57.00292969 95.52734375 C-53.61633813 87.89542228 -50.32752582 80.22079008 -47.02276611 72.55319214 C-45.80856823 69.74089333 -44.58923646 66.93087021 -43.36865234 64.12133789 C-39.24893615 54.62552546 -35.20082483 45.1076325 -31.28125 35.52734375 C-30.15228303 32.79034421 -29.02182509 30.05396506 -27.89096069 27.31774902 C-27.1801946 25.58426738 -26.47721361 23.84757019 -25.78262329 22.10754395 C-15.76097805 -2.99289629 -15.76097805 -2.99289629 0 0 Z " fill="#FFFEFD" transform="translate(314,233)"/>
<path d="M0 0 C0.969375 -0.01804688 1.93875 -0.03609375 2.9375 -0.0546875 C6.69482736 1.08592973 8.91985414 2.27063859 11.59082031 5.1640625 C14.61374074 10.97946591 14.02255472 17.78581942 13.91259766 24.19897461 C13.87511971 26.80417831 13.91225843 29.40091777 13.95703125 32.00585938 C13.99990669 45.83186015 13.99990669 45.83186015 9.8203125 51.00390625 C6.70885071 53.74574825 4.23452251 54.96509622 0 54.875 C-0.969375 54.895625 -1.93875 54.91625 -2.9375 54.9375 C-6.86235219 53.57581659 -8.97956046 52.04429632 -11.59082031 48.81298828 C-14.49342729 42.76136453 -14.02589883 36.01266596 -13.91259766 29.4206543 C-13.87501235 26.81335685 -13.9123321 24.21446308 -13.95703125 21.60742188 C-13.99991434 7.77380363 -13.99991434 7.77380363 -9.8203125 3.24609375 C-6.65445291 0.90696933 -3.98898539 -0.07426303 0 0 Z " fill="#FFEBEB" transform="translate(529,241.125)"/>
<path d="M0 0 C17 0 17 0 22.00390625 2.80859375 C26.83169805 8.94017277 26.15154859 17.02334547 25.98803711 24.4543457 C25.9375115 27.06190647 25.96729195 29.65997819 26.00585938 32.26757812 C26.0291561 46.02007999 26.0291561 46.02007999 22.56640625 50.68359375 C18 53 18 53 0 53 C0 35.51 0 18.02 0 0 Z " fill="#FFE8E8" transform="translate(551,242)"/>
<path d="M0 0 C1.30130859 -0.02707031 1.30130859 -0.02707031 2.62890625 -0.0546875 C7.37233946 1.51546146 10.09082124 3.36446932 12.4375 7.875 C13.60412018 13.390964 13.44347715 19.07119991 13.35009766 24.68115234 C13.31257437 27.36967145 13.34978416 30.05001396 13.39453125 32.73828125 C13.43749368 47.01254756 13.43749368 47.01254756 9.2578125 51.53515625 C6.10193072 53.84079028 3.39611437 54.8493488 -0.5625 54.8125 C-1.531875 54.84214844 -2.50125 54.87179687 -3.5 54.90234375 C-7.44516121 53.57890319 -9.53603754 52.05192338 -12.14892578 48.81518555 C-15.05970472 42.7608659 -14.62787773 36.02012583 -14.5300293 29.4206543 C-14.50000311 26.81276986 -14.55019225 24.21468575 -14.60742188 21.60742188 C-14.67855799 9.70688587 -14.67855799 9.70688587 -11.91088867 5.1640625 C-8.42109206 1.91381447 -4.87033407 -0.10161651 0 0 Z " fill="#FFEBED" transform="translate(660.5625,241.125)"/>
<path d="M0 0 C16 0 16 0 21 2.75 C26.03883511 8.90362164 25.12477745 18.39242575 24.45898438 25.92382812 C23.81028929 28.85813822 22.40939447 30.28451114 20 32 C21.73031785 37.54488219 23.72208567 42.81244871 26.23046875 48.0546875 C27 50 27 50 27 53 C24.69 53 22.38 53 20 53 C16 45 16 45 12 37 C10.68 37 9.36 37 8 37 C7.67 42.28 7.34 47.56 7 53 C4.69 53 2.38 53 0 53 C0 35.51 0 18.02 0 0 Z " fill="#FFEDF2" transform="translate(839,242)"/>
<path d="M0 0 C2.31 0 4.62 0 7 0 C7 7.59 7 15.18 7 23 C10.63 23 14.26 23 18 23 C18 15.41 18 7.82 18 0 C20.31 0 22.62 0 25 0 C25 17.49 25 34.98 25 53 C22.69 53 20.38 53 18 53 C18 45.41 18 37.82 18 30 C14.37 30 10.74 30 7 30 C7 37.59 7 45.18 7 53 C4.69 53 2.38 53 0 53 C0 35.51 0 18.02 0 0 Z " fill="#FFEFF2" transform="translate(776,242)"/>
<path d="M0 0 C3.32101338 1.76080575 5.28560895 3.64780581 7 7 C7.53156426 10.42287638 7.434611 13.57140208 7 17 C5.02 17 3.04 17 1 17 C0.896875 15.906875 0.79375 14.81375 0.6875 13.6875 C0.25727508 10.16069668 0.25727508 10.16069668 -1.1875 8.0625 C-3.87078033 6.48954256 -5.95639252 6.67621197 -9 7 C-11.45051772 9.45051772 -11.24532344 10.80958994 -11.27789307 14.15536499 C-11.2738446 14.85432892 -11.26979614 15.55329285 -11.265625 16.2734375 C-11.26753845 16.99359039 -11.2694519 17.71374329 -11.27142334 18.45571899 C-11.2727852 19.98057402 -11.26908864 21.50544064 -11.26074219 23.03027344 C-11.25007334 25.35899112 -11.26062081 27.68693188 -11.2734375 30.015625 C-11.27211529 31.49739753 -11.26955164 32.97916958 -11.265625 34.4609375 C-11.26967346 35.15585297 -11.27372192 35.85076843 -11.27789307 36.56674194 C-11.2427651 40.2104547 -10.99403761 42.90003389 -9 46 C-4.03088634 44.87302957 -4.03088634 44.87302957 0 42 C0.46396693 39.10776497 0.46396693 39.10776497 0.625 35.875 C0.69976563 34.77929688 0.77453125 33.68359375 0.8515625 32.5546875 C0.90054688 31.71164062 0.94953125 30.86859375 1 30 C-1.31 30 -3.62 30 -6 30 C-6 28.02 -6 26.04 -6 24 C-1.71 24 2.58 24 7 24 C7.19001018 27.35684643 7.32811616 30.70285343 7.4375 34.0625 C7.49615234 35.00544922 7.55480469 35.94839844 7.61523438 36.91992188 C7.74107871 42.07953943 7.44055524 45.25217516 3.84765625 49.12890625 C0.64773461 51.84132876 -1.71313857 52.95480859 -6 52.875 C-6.969375 52.89304687 -7.93875 52.91109375 -8.9375 52.9296875 C-12.69402443 51.78931401 -14.91988988 50.60798062 -17.59082031 47.71533203 C-20.61761962 41.88302747 -20.02258153 35.05091998 -19.91259766 28.62109375 C-19.87507065 26.00492557 -19.91228543 23.39715955 -19.95703125 20.78125 C-19.9999713 6.89380639 -19.9999713 6.89380639 -15.8203125 2.3671875 C-10.81166916 -1.32903058 -5.93793077 -1.38016769 0 0 Z " fill="#FFF8F9" transform="translate(702,243)"/>
<path d="M0 0 C7.26 0 14.52 0 22 0 C22 2.31 22 4.62 22 7 C17.38 7.33 12.76 7.66 8 8 C7.67 13.28 7.34 18.56 7 24 C10.96 24 14.92 24 19 24 C19 26.31 19 28.62 19 31 C15.37 31.33 11.74 31.66 8 32 C7.67 36.62 7.34 41.24 7 46 C12.28 46 17.56 46 23 46 C23 48.31 23 50.62 23 53 C15.41 53 7.82 53 0 53 C0 35.51 0 18.02 0 0 Z " fill="#FFEFF3" transform="translate(811,242)"/>
<path d="M0 0 C3.22172065 2.18497317 5.24169653 4.53028116 7 8 C7.53508651 10.9330668 7.37550058 12.99599536 7 16 C4.69 16 2.38 16 0 16 C-0.4640625 14.2984375 -0.4640625 14.2984375 -0.9375 12.5625 C-1.62924531 9.21224901 -1.62924531 9.21224901 -3 8 C-5.95817107 7.74994614 -5.95817107 7.74994614 -9 8 C-11.45527179 10.45527179 -11.24542215 11.82875615 -11.27789307 15.18101501 C-11.2738446 15.883116 -11.26979614 16.58521698 -11.265625 17.30859375 C-11.26753845 18.03111832 -11.2694519 18.75364288 -11.27142334 19.49806213 C-11.27278504 21.02711332 -11.26908964 22.55617607 -11.26074219 24.08520508 C-11.25005751 26.42490684 -11.2606295 28.76383807 -11.2734375 31.10351562 C-11.2721156 32.58854336 -11.26955257 34.07357062 -11.265625 35.55859375 C-11.26967346 36.2586705 -11.27372192 36.95874725 -11.27789307 37.68003845 C-11.24257654 41.34373296 -11.08995623 42.86506566 -9 46 C-6 46.41666667 -6 46.41666667 -3 46 C-0.23776722 43.23776722 -0.42143709 40.79293383 0 37 C2.31 37 4.62 37 7 37 C7.64948499 42.19587994 7.40995432 45.21531617 4.25 49.5 C0.24597968 53.60167935 -3.37859657 53.94422546 -8.9375 54.0625 C-13.98044903 52.31290544 -16.65309641 49.8186511 -19 45 C-20.14384328 39.75068219 -20.0492611 34.37423708 -19.9675293 29.02783203 C-19.93753844 26.50323552 -19.98765985 23.9887967 -20.04492188 21.46484375 C-20.12758624 8.05510467 -20.12758624 8.05510467 -15.2890625 2.90625 C-10.69673919 -0.96213306 -5.71332235 -1.69534788 0 0 Z " fill="#FFF5F5" transform="translate(500,242)"/>
<path d="M0 0 C6.93 0 13.86 0 21 0 C21 1.98 21 3.96 21 6 C16.05 6 11.1 6 6 6 C6 11.61 6 17.22 6 23 C10.29 23 14.58 23 19 23 C19 24.98 19 26.96 19 29 C14.71 29 10.42 29 6 29 C6 34.61 6 40.22 6 46 C11.28 46 16.56 46 22 46 C22 47.98 22 49.96 22 52 C14.74 52 7.48 52 0 52 C0 34.84 0 17.68 0 0 Z " fill="#FFFDFE" transform="translate(719,243)"/>
<path d="M0 0 C6.93 0 13.86 0 21 0 C21 1.98 21 3.96 21 6 C16.05 6 11.1 6 6 6 C6 11.61 6 17.22 6 23 C9.96 23 13.92 23 18 23 C18 24.98 18 26.96 18 29 C14.04 29 10.08 29 6 29 C6 34.61 6 40.22 6 46 C11.28 46 16.56 46 22 46 C22 47.98 22 49.96 22 52 C14.74 52 7.48 52 0 52 C0 34.84 0 17.68 0 0 Z " fill="#FFF3F4" transform="translate(586,243)"/>
<path d="M0 0 C9.9 0 19.8 0 30 0 C30 3.96 30 7.92 30 12 C28.02 12 26.04 12 24 12 C24 10.02 24 8.04 24 6 C22.02 6 20.04 6 18 6 C18 21.51 18 37.02 18 53 C16.02 53 14.04 53 12 53 C12 37.49 12 21.98 12 6 C10.02 6 8.04 6 6 6 C6 7.98 6 9.96 6 12 C4.02 12 2.04 12 0 12 C0 8.04 0 4.08 0 0 Z " fill="#FFEFEF" transform="translate(611,242)"/>
<path d="M0 0 C8.58 0 17.16 0 26 0 C26 2.31 26 4.62 26 7 C21.545 7.495 21.545 7.495 17 8 C16.67 22.85 16.34 37.7 16 53 C13.69 53 11.38 53 9 53 C9 37.82 9 22.64 9 7 C6.03 7 3.06 7 0 7 C0 4.69 0 2.38 0 0 Z " fill="#FFEBEF" transform="translate(744,242)"/>
<path d="M0 0 C1.65869141 1.05297852 1.65869141 1.05297852 3 3 C3.29828154 5.61118288 3.42059006 7.97912935 3.3984375 10.58984375 C3.40274277 11.70124474 3.40274277 11.70124474 3.40713501 12.83509827 C3.409175 14.40105962 3.40364958 15.96704649 3.39111328 17.53295898 C3.37508008 19.92555012 3.39095094 22.3164463 3.41015625 24.70898438 C3.40817336 26.23177455 3.40432873 27.75456368 3.3984375 29.27734375 C3.40754654 30.34782204 3.40754654 30.34782204 3.4168396 31.43992615 C3.37313911 34.53947282 3.15858168 36.71017135 1.65869141 39.45141602 C0 41 0 41 -2.9375 41.5 C-6.75121533 40.8773526 -7.68508208 40.06119051 -10 37 C-10.39842915 34.3673606 -10.56215695 32.15987832 -10.53125 29.53125 C-10.5350769 28.813927 -10.53890381 28.096604 -10.54284668 27.35754395 C-10.54556227 25.84463086 -10.53822555 24.33167055 -10.52148438 22.81884766 C-10.50006551 20.50707024 -10.52129351 18.19839987 -10.546875 15.88671875 C-10.54423166 14.41405566 -10.53910653 12.9413945 -10.53125 11.46875 C-10.53934692 10.78010864 -10.54744385 10.09146729 -10.55578613 9.38195801 C-10.4905935 6.03422275 -10.19821942 4.26254088 -8.15820312 1.56054688 C-5.2497065 -0.54251991 -3.51107115 -0.52292549 0 0 Z " fill="#FF9494" transform="translate(532,248)"/>
<path d="M0 0 C3.81371533 0.6226474 4.74758208 1.43880949 7.0625 4.5 C7.46092915 7.1326394 7.62465695 9.34012168 7.59375 11.96875 C7.5975769 12.686073 7.60140381 13.403396 7.60534668 14.14245605 C7.60806227 15.65536914 7.60072555 17.16832945 7.58398438 18.68115234 C7.56256551 20.99292976 7.58379351 23.30160013 7.609375 25.61328125 C7.60673166 27.08594434 7.60160653 28.5586055 7.59375 30.03125 C7.60184692 30.71989136 7.60994385 31.40853271 7.61828613 32.11804199 C7.55311262 35.46479563 7.26227642 37.23582058 5.22070312 39.93554688 C3.0625 41.5 3.0625 41.5 0 42 C-2.9375 41.5 -2.9375 41.5 -4.59619141 39.93554688 C-6.40273893 36.65521959 -6.36812099 33.68084724 -6.3359375 30.03125 C-6.33880768 29.313927 -6.34167786 28.596604 -6.34463501 27.85754395 C-6.34667169 26.34463713 -6.34116944 24.83170374 -6.32861328 23.31884766 C-6.31255237 21.00753716 -6.32847366 18.69797508 -6.34765625 16.38671875 C-6.34567375 14.91405865 -6.34182992 13.44139964 -6.3359375 11.96875 C-6.34201019 11.28010864 -6.34808289 10.59146729 -6.3543396 9.88195801 C-6.3099074 6.83974823 -6.07514174 4.74992974 -4.59619141 2.06445312 C-2.9375 0.5 -2.9375 0.5 0 0 Z " fill="#FF9DA6" transform="translate(659.9375,247.5)"/>
<path d="M0 0 C8 0 8 0 10.46679688 1.546875 C12.56099391 4.89759025 12.51751672 7.31051005 12.53125 11.25 C12.5350769 11.94512695 12.53890381 12.64025391 12.54284668 13.35644531 C12.5455618 14.82228041 12.53822835 16.28816428 12.52148438 17.75390625 C12.50006419 19.99328975 12.52129443 22.22946587 12.546875 24.46875 C12.54423165 25.89584039 12.5391065 27.32292879 12.53125 28.75 C12.52673828 30.04421875 12.52222656 31.3384375 12.51757812 32.671875 C12 36 12 36 10.46679688 38.453125 C8 40 8 40 0 40 C0 26.8 0 13.6 0 0 Z " fill="#FF9799" transform="translate(558,249)"/>
<path d="M0 0 C11 0 11 0 13.65234375 1.31640625 C15.86362917 5.71974853 15.61605342 10.08304034 15.5625 14.9375 C15.58634766 15.92685547 15.61019531 16.91621094 15.63476562 17.93554688 C15.62562757 22.46497688 15.44640097 25.25417261 13.08984375 29.19140625 C10 31 10 31 0 31 C0 20.77 0 10.54 0 0 Z " fill="#FFEEF1" transform="translate(735,329)"/>
<path d="M0 0 C2.1875 1.34765625 2.1875 1.34765625 4 4 C4.60225016 7.65287887 4.55753506 11.24326998 4.5 14.9375 C4.51546875 15.92685547 4.5309375 16.91621094 4.546875 17.93554688 C4.52288579 22.39454202 4.44022785 25.2343451 2.1875 29.15234375 C0 31 0 31 -3.5 31.625 C-7 31 -7 31 -9.1875 29.15234375 C-11.87357123 24.48066383 -11.58278016 20.23198121 -11.5 14.9375 C-11.51546875 13.94427734 -11.5309375 12.95105469 -11.546875 11.92773438 C-11.50817281 4.74364082 -11.50817281 4.74364082 -9.1875 1.34765625 C-5.94824419 -0.6479567 -3.72203994 -0.53171999 0 0 Z " fill="#FFEEF1" transform="translate(726,329)"/>
<path d="M0 0 C2.18774414 1.1875 2.18774414 1.1875 4 3 C4.50170898 5.49609375 4.50170898 5.49609375 4.49609375 8.4375 C4.49673828 9.49710937 4.49738281 10.55671875 4.49804688 11.6484375 C4.47806641 12.75445312 4.45808594 13.86046875 4.4375 15 C4.44458984 16.10601562 4.45167969 17.21203125 4.45898438 18.3515625 C4.39501609 26.44109025 4.39501609 26.44109025 2.71899414 28.8125 C0.29617322 30.48621126 -2.08733832 30.41292885 -4.96484375 30.49609375 C-8.19348914 29.70907271 -9.1334293 28.79370252 -11 26 C-11.59808961 22.32547011 -11.55759825 18.71508705 -11.5 15 C-11.51546875 14.00226563 -11.5309375 13.00453125 -11.546875 11.9765625 C-11.50810378 4.7457299 -11.50810378 4.7457299 -9.1875 1.33984375 C-5.9763065 -0.62701227 -3.68808812 -0.46101102 0 0 Z " fill="#FFEEEF" transform="translate(602,329)"/>
<path d="M0 0 C2.1875 1.34375 2.1875 1.34375 4 4 C4.60150271 7.67379347 4.55759383 11.28519809 4.5 15 C4.51546875 15.99773437 4.5309375 16.99546875 4.546875 18.0234375 C4.50809786 25.25537382 4.50809786 25.25537382 2.1875 28.65625 C-1.05242855 30.64649182 -3.27988436 30.53144509 -7 30 C-9.1875 28.65625 -9.1875 28.65625 -11 26 C-11.60150271 22.32620653 -11.55759383 18.71480191 -11.5 15 C-11.51546875 14.00226563 -11.5309375 13.00453125 -11.546875 11.9765625 C-11.50809786 4.74462618 -11.50809786 4.74462618 -9.1875 1.34375 C-5.94757145 -0.64649182 -3.72011564 -0.53144509 0 0 Z " fill="#FFEDED" transform="translate(512,329)"/>
<path d="M0 0 C1.98 0 3.96 0 6 0 C7.32 3.63 8.64 7.26 10 11 C10.33 7.37 10.66 3.74 11 0 C12.65 0 14.3 0 16 0 C16 9.9 16 19.8 16 30 C14.35 30.33 12.7 30.66 11 31 C10.32739649 29.23141309 9.66211605 27.46003984 9 25.6875 C8.62875 24.70136719 8.2575 23.71523438 7.875 22.69921875 C7 20 7 20 7 17 C6.34 17 5.68 17 5 17 C5 21.62 5 26.24 5 31 C3.35 31 1.7 31 0 31 C0 20.77 0 10.54 0 0 Z " fill="#FFE8EF" transform="translate(824,329)"/>
<path d="M0 0 C9 0 9 0 11.5625 1.4375 C13.70439425 5.25565931 13.28335968 8.72599148 13 13 C13 13.99 13 14.98 13 16 C13.33 16.33 13.66 16.66 14 17 C14.51798462 21.1863347 14.6416481 24.80420127 12.625 28.5625 C10 30 10 30 0 30 C0 20.1 0 10.2 0 0 Z " fill="#FFF3F4" transform="translate(572,329)"/>
<path d="M0 0 C4.29 0 8.58 0 13 0 C13 1.32 13 2.64 13 4 C10.69 4.33 8.38 4.66 6 5 C5.67 7.64 5.34 10.28 5 13 C7.31 13 9.62 13 12 13 C12 14.65 12 16.3 12 18 C10.02 18.33 8.04 18.66 6 19 C5.67 21.31 5.34 23.62 5 26 C9.95 26 14.9 26 20 26 C20 32 20 32 18 35 C17.01 35 16.02 35 15 35 C14.67 33.68 14.34 32.36 14 31 C9.38 31 4.76 31 0 31 C0 20.77 0 10.54 0 0 Z " fill="#FFF2F4" transform="translate(663,329)"/>
<path d="M0 0 C9 0 9 0 11.5390625 1.625 C13.38203298 4.62105896 13.47126131 6.49958867 13.375 10 C13.36210938 11.03125 13.34921875 12.0625 13.3359375 13.125 C13 16 13 16 11.890625 18.1875 C11.59671875 18.785625 11.3028125 19.38375 11 20 C11.93166826 22.03273074 12.9349985 24.03384339 14 26 C14 27.32 14 28.64 14 30 C12.1875 29.875 12.1875 29.875 10 29 C8.04679411 25.79116175 7 23.7794561 7 20 C5.68 20 4.36 20 3 20 C3 23.3 3 26.6 3 30 C2.01 30 1.02 30 0 30 C0 20.1 0 10.2 0 0 Z " fill="#FFFAFA" transform="translate(612,329)"/>
<path d="M0 0 C2.64 0 5.28 0 8 0 C8.67476789 3.8736343 9.33837032 7.74910183 10 11.625 C10.19078125 12.71941406 10.3815625 13.81382812 10.578125 14.94140625 C10.75859375 16.00488281 10.9390625 17.06835938 11.125 18.1640625 C11.29257812 19.13811035 11.46015625 20.1121582 11.6328125 21.11572266 C12.01375517 24.10804756 12.06252962 26.98685417 12 30 C10.68 30 9.36 30 8 30 C7.67 27.69 7.34 25.38 7 23 C5.02 23 3.04 23 1 23 C0.67 25.31 0.34 27.62 0 30 C-1.32 30 -2.64 30 -4 30 C-3.52519124 25.74950127 -3.04440163 21.49969995 -2.5625 17.25 C-2.42779297 16.0434375 -2.29308594 14.836875 -2.15429688 13.59375 C-2.02216797 12.43359375 -1.89003906 11.2734375 -1.75390625 10.078125 C-1.63345947 9.00981445 -1.5130127 7.94150391 -1.38891602 6.84082031 C-1.06675889 4.48763746 -0.63833394 2.28354934 0 0 Z " fill="#FFE6E8" transform="translate(633,329)"/>
<path d="M0 0 C2.64 0 5.28 0 8 0 C9.87800751 10.06075452 11.54453749 19.71429185 11 30 C10.01 30 9.02 30 8 30 C7.67 27.69 7.34 25.38 7 23 C5.02 23 3.04 23 1 23 C0.67 25.31 0.34 27.62 0 30 C-1.32 30 -2.64 30 -4 30 C-2.38297872 7.14893617 -2.38297872 7.14893617 0 0 Z " fill="#FFEEEE" transform="translate(556,329)"/>
<path d="M0 0 C4.05539101 0.82391849 6.16834249 2.24715869 8.82421875 5.37890625 C10.85426806 9.34831538 10.50941302 13.27470003 9.9609375 17.6015625 C7.9809375 17.6015625 6.0009375 17.6015625 3.9609375 17.6015625 C3.8578125 16.5084375 3.7546875 15.4153125 3.6484375 14.2890625 C3.21821258 10.76225918 3.21821258 10.76225918 1.7734375 8.6640625 C-0.90984283 7.09110506 -2.99545502 7.27777447 -6.0390625 7.6015625 C-8.86913252 10.43163252 -8.39152176 13.22109102 -8.453125 17.015625 C-8.47249115 17.74526459 -8.4918573 18.47490417 -8.5118103 19.22665405 C-8.57164672 21.55983752 -8.61800673 23.89307023 -8.6640625 26.2265625 C-8.70223864 27.80731332 -8.74129015 29.38804326 -8.78125 30.96875 C-8.87735128 34.8461848 -8.96136662 38.72371699 -9.0390625 42.6015625 C-9.3690625 42.6015625 -9.6990625 42.6015625 -10.0390625 42.6015625 C-10.3690625 32.0415625 -10.6990625 21.4815625 -11.0390625 10.6015625 C-11.13099883 15.22902456 -11.21059443 19.85330858 -11.25878906 24.48095703 C-11.2788813 26.05430854 -11.30616049 27.62758558 -11.34082031 29.20068359 C-11.38944744 31.46470522 -11.41205385 33.72773823 -11.4296875 35.9921875 C-11.45033264 36.69337708 -11.47097778 37.39456665 -11.49224854 38.11700439 C-11.49381163 41.53361266 -11.2697219 43.29812692 -9.17578125 46.05273438 C-6.50827108 47.98631351 -5.04614795 48.02298805 -1.7890625 47.8515625 C-0.45101562 47.79742187 -0.45101562 47.79742187 0.9140625 47.7421875 C1.58953125 47.69578125 2.265 47.649375 2.9609375 47.6015625 C2.9609375 48.2615625 2.9609375 48.9215625 2.9609375 49.6015625 C-0.23913562 51.20159906 -3.63079024 51.53589921 -7.0390625 50.6015625 C-12.60335193 46.07173345 -12.60335193 46.07173345 -13.60534668 42.69081116 C-13.82621218 40.52401685 -13.8702598 38.42390433 -13.84375 36.24609375 C-13.86430954 35.07091438 -13.86430954 35.07091438 -13.88528442 33.87199402 C-13.92244895 31.38542715 -13.91888329 28.90086639 -13.9140625 26.4140625 C-13.93220246 24.73239066 -13.95300924 23.05074535 -13.9765625 21.36914062 C-14.02973716 17.11291009 -14.04316069 12.85811406 -14.0390625 8.6015625 C-14.0390625 7.6115625 -14.0390625 6.6215625 -14.0390625 5.6015625 C-10.39592596 0.00674567 -6.23787829 -0.2926412 0 0 Z " fill="#FFE7EA" transform="translate(699.0390625,242.3984375)"/>
<path d="M0 0 C3.22172065 2.18497317 5.24169653 4.53028116 7 8 C7.53508651 10.9330668 7.37550058 12.99599536 7 16 C4.69 16 2.38 16 0 16 C-0.4640625 14.2984375 -0.4640625 14.2984375 -0.9375 12.5625 C-1.62924531 9.21224901 -1.62924531 9.21224901 -3 8 C-6.28758779 7.70112838 -8.57419006 7.83246758 -11.65893555 9.04614258 C-14.3417795 10.86795 -14.3417795 10.86795 -14.65942383 14.36987305 C-14.70047012 15.74996922 -14.71471829 17.13103372 -14.70703125 18.51171875 C-14.72215256 19.23994339 -14.73727386 19.96816803 -14.75285339 20.71846008 C-14.79580266 23.04178655 -14.80457426 25.36381578 -14.8125 27.6875 C-14.83563906 29.26370654 -14.86100318 30.83988209 -14.88867188 32.41601562 C-14.95159426 36.27745875 -14.98387313 40.13808933 -15 44 C-15.33 44 -15.66 44 -16 44 C-16.495 26.675 -16.495 26.675 -17 9 C-17.33 20.88 -17.66 32.76 -18 45 C-18.33 45 -18.66 45 -19 45 C-19.19890842 39.87734311 -19.34344975 34.75696787 -19.43945312 29.63134766 C-19.47949731 27.89104021 -19.53395364 26.15099876 -19.60351562 24.41162109 C-20.16105399 10.10420269 -20.16105399 10.10420269 -17.37915039 5.0625 C-12.41658964 -0.20019906 -7.10300423 -2.10771639 0 0 Z " fill="#FFE2E1" transform="translate(500,242)"/>
<path d="M0 0 C0.74378906 -0.00128906 1.48757813 -0.00257813 2.25390625 -0.00390625 C5.3975884 0.81153903 6.46111733 1.97729592 8.4375 4.5625 C8.8475178 7.46114759 9.0225002 9.97321182 9.00390625 12.87109375 C9.01320412 14.07669701 9.01320412 14.07669701 9.02268982 15.30665588 C9.02978199 17.00365998 9.0266244 18.70073374 9.01391602 20.39770508 C9.00006176 22.98845118 9.03410937 25.57557524 9.07226562 28.16601562 C9.07321701 29.81770921 9.07135696 31.46940731 9.06640625 33.12109375 C9.07966446 33.89206894 9.09292267 34.66304413 9.10658264 35.4573822 C9.03759274 39.46187342 8.60116647 41.35235163 6.11303711 44.54711914 C3.4375 46.5625 3.4375 46.5625 0 47.25 C-4.65500241 46.3516662 -6.87190378 44.42347531 -9.5625 40.5625 C-10.1550679 37.59014896 -10.38700346 35.44966457 -10.32421875 32.49609375 C-10.32758743 31.73958023 -10.33095612 30.98306671 -10.33442688 30.20362854 C-10.33412929 28.61265223 -10.31899851 27.02161649 -10.28979492 25.4309082 C-10.25003739 23.00228417 -10.26912367 20.57910743 -10.29492188 18.15039062 C-10.28736358 16.59893727 -10.2764109 15.04749595 -10.26171875 13.49609375 C-10.26870285 12.77514023 -10.27568695 12.05418671 -10.28288269 11.31138611 C-10.17337434 7.38409887 -9.66917309 5.69396867 -7.16357422 2.60595703 C-4.44692452 0.47170154 -3.3866267 -0.10012635 0 0 Z M-5.22119141 4.12695312 C-7.02773893 7.40728041 -6.99312099 10.38165276 -6.9609375 14.03125 C-6.96380768 14.748573 -6.96667786 15.465896 -6.96963501 16.20495605 C-6.97167169 17.71786287 -6.96616944 19.23079626 -6.95361328 20.74365234 C-6.93755237 23.05496284 -6.95347366 25.36452492 -6.97265625 27.67578125 C-6.97067375 29.14844135 -6.96682992 30.62110036 -6.9609375 32.09375 C-6.96701019 32.78239136 -6.97308289 33.47103271 -6.9793396 34.18054199 C-6.9349074 37.22275177 -6.70014174 39.31257026 -5.22119141 41.99804688 C-3.57584555 43.83948777 -3.57584555 43.83948777 -0.625 44.0625 C3.18871533 43.4398526 4.12258208 42.62369051 6.4375 39.5625 C6.83592915 36.9298606 6.99965695 34.72237832 6.96875 32.09375 C6.9725769 31.376427 6.97640381 30.659104 6.98034668 29.92004395 C6.98306227 28.40713086 6.97572555 26.89417055 6.95898438 25.38134766 C6.93756551 23.06957024 6.95879351 20.76089987 6.984375 18.44921875 C6.98173166 16.97655566 6.97660653 15.5038945 6.96875 14.03125 C6.97684692 13.34260864 6.98494385 12.65396729 6.99328613 11.94445801 C6.92811262 8.59770437 6.63727642 6.82667942 4.59570312 4.12695312 C2.45722674 2.33055148 2.45722674 2.33055148 -0.625 2.0625 C-3.57584555 2.28551223 -3.57584555 2.28551223 -5.22119141 4.12695312 Z " fill="#FFF9F9" transform="translate(660.5625,245.4375)"/>
<path d="M0 0 C4.29 0 8.58 0 13 0 C13 0.66 13 1.32 13 2 C13.66 2 14.32 2 15 2 C15 2.66 15 3.32 15 4 C15.66 4 16.32 4 17 4 C17.09897181 9.05365292 17.17151603 14.10674024 17.21972656 19.16113281 C17.23982628 20.87998279 17.26711089 22.59876452 17.30175781 24.31738281 C17.35035034 26.78988489 17.37298435 29.2614821 17.390625 31.734375 C17.41127014 32.50118591 17.43191528 33.26799683 17.45318604 34.05804443 C17.45410156 36.24121094 17.45410156 36.24121094 17 40 C15.68 41.32 14.36 42.64 13 44 C8.71 44 4.42 44 0 44 C0 29.48 0 14.96 0 0 Z M3 2 C3 15.2 3 28.4 3 42 C10.35567285 42.70835274 10.35567285 42.70835274 13.46679688 40.453125 C15.56099391 37.10240975 15.51751672 34.68948995 15.53125 30.75 C15.5350769 30.05487305 15.53890381 29.35974609 15.54284668 28.64355469 C15.5455618 27.17771959 15.53822835 25.71183572 15.52148438 24.24609375 C15.50006419 22.00671025 15.52129443 19.77053413 15.546875 17.53125 C15.54423165 16.10415961 15.5391065 14.67707121 15.53125 13.25 C15.52673828 11.95578125 15.52222656 10.6615625 15.51757812 9.328125 C15.22342745 5.99961455 15.22342745 5.99961455 13.46679688 3.546875 C10.35567285 1.29164726 10.35567285 1.29164726 3 2 Z " fill="#FFFCFC" transform="translate(555,247)"/>
<path d="M0 0 C0.9590625 -0.03287109 0.9590625 -0.03287109 1.9375 -0.06640625 C5.30404376 0.96013456 6.79769113 2.86365762 9 5.5625 C9.50034459 8.4125761 9.70395489 10.65446553 9.6640625 13.49609375 C9.66884613 14.25165054 9.67362976 15.00720734 9.67855835 15.78565979 C9.68194982 17.37836802 9.67279979 18.97114658 9.65185547 20.5637207 C9.6251098 22.99003891 9.65160241 25.41171681 9.68359375 27.83789062 C9.68028878 29.39063513 9.67388073 30.94337677 9.6640625 32.49609375 C9.67418365 33.21502304 9.68430481 33.93395233 9.69473267 34.67466736 C9.5636768 40.3634548 7.92593466 42.73616154 4 46.5625 C1.76171875 47.1484375 1.76171875 47.1484375 -0.3125 46.9375 C-1.529375 46.81375 -2.74625 46.69 -4 46.5625 C-4.66 45.2425 -5.32 43.9225 -6 42.5625 C-6.66 42.5625 -7.32 42.5625 -8 42.5625 C-10.38819552 37.78610895 -9.31224877 30.56058457 -9.35009766 25.25048828 C-9.36666578 23.54527141 -9.39396747 21.84012422 -9.43212891 20.13525391 C-9.48689057 17.67574074 -9.50876729 15.2178531 -9.5234375 12.7578125 C-9.54610687 11.9972757 -9.56877625 11.23673889 -9.59213257 10.45315552 C-9.57656993 6.5544119 -9.35863017 4.93202093 -6.59619141 2.08569336 C-4.12031267 0.63308781 -2.82515953 -0.00569589 0 0 Z M-7 6.5625 C-7.39842915 9.1951394 -7.56215695 11.40262168 -7.53125 14.03125 C-7.53699036 15.1072345 -7.53699036 15.1072345 -7.54284668 16.20495605 C-7.54556227 17.71786914 -7.53822555 19.23082945 -7.52148438 20.74365234 C-7.50006551 23.05542976 -7.52129351 25.36410013 -7.546875 27.67578125 C-7.54423166 29.14844434 -7.53910653 30.6211055 -7.53125 32.09375 C-7.53934692 32.78239136 -7.54744385 33.47103271 -7.55578613 34.18054199 C-7.49061262 37.52729563 -7.19977642 39.29832058 -5.15820312 41.99804688 C-3.01972674 43.79444852 -3.01972674 43.79444852 0.0625 44.0625 C3.00983251 43.8379491 3.00983251 43.8379491 4.65869141 42.01391602 C6.49476507 38.65825244 6.43016657 35.56858784 6.3984375 31.83984375 C6.40130768 31.09795303 6.40417786 30.35606232 6.40713501 29.59169006 C6.4091718 28.02750889 6.40366883 26.46330203 6.39111328 24.89916992 C6.37503001 22.50446772 6.39098528 20.11144729 6.41015625 17.71679688 C6.40817419 16.19530878 6.40433129 14.67382172 6.3984375 13.15234375 C6.40451019 12.43666733 6.41058289 11.72099091 6.4168396 10.98362732 C6.37562366 8.07404102 6.33688359 6.05151467 4.65869141 3.61547852 C-0.09418458 0.59823475 -3.91317906 2.47401712 -7 6.5625 Z " fill="#FFF7F7" transform="translate(529,245.4375)"/>
<path d="M0 0 C3.68718972 1.13967682 5.24659961 1.90760344 7.4375 5.0625 C7.6875 7.8125 7.6875 7.8125 7.4375 10.0625 C5.7875 10.0625 4.1375 10.0625 2.4375 10.0625 C2.1075 8.7425 1.7775 7.4225 1.4375 6.0625 C0.1175 6.0625 -1.2025 6.0625 -2.5625 6.0625 C-2.5625 12.6625 -2.5625 19.2625 -2.5625 26.0625 C-1.2425 26.0625 0.0775 26.0625 1.4375 26.0625 C1.7675 24.7425 2.0975 23.4225 2.4375 22.0625 C4.0875 22.0625 5.7375 22.0625 7.4375 22.0625 C7.75 24.25 7.75 24.25 7.4375 27.0625 C4.96985541 30.32850019 3.48131805 31.84503791 -0.5625 32.6875 C-4.76477546 31.81202595 -5.98854064 30.50869808 -8.5625 27.0625 C-9.30323147 23.38213136 -9.26098177 19.80517136 -9.1875 16.0625 C-9.20683594 15.07765625 -9.22617187 14.0928125 -9.24609375 13.078125 C-9.21381193 8.30041565 -9.11571832 5.82282534 -6.24609375 1.87890625 C-3.5625 0.0625 -3.5625 0.0625 0 0 Z " fill="#FFE4ED" transform="translate(852.5625,327.9375)"/>
<path d="M0 0 C2.4375 1.6875 2.4375 1.6875 4 4 C4.25 6.75 4.25 6.75 4 9 C2.68 9 1.36 9 0 9 C-0.66 7.68 -1.32 6.36 -2 5 C-3.32 5.33 -4.64 5.66 -6 6 C-5.85282765 8.41915365 -5.85282765 8.41915365 -5 11 C-2.93021841 12.52892582 -2.93021841 12.52892582 -0.4375 13.6875 C3.78418234 16.27563328 3.78418234 16.27563328 4.734375 19.46484375 C4.85208028 23.4727086 4.50090461 26.15848026 2.4375 29.625 C-0.82242096 31.46392977 -3.32112194 31.28299062 -7 31 C-7.66 29.68 -8.32 28.36 -9 27 C-9.66 27 -10.32 27 -11 27 C-11 24.69 -11 22.38 -11 20 C-9.68 20 -8.36 20 -7 20 C-6.67 21.65 -6.34 23.3 -6 25 C-4.35 25 -2.7 25 -1 25 C-0.67 23.02 -0.34 21.04 0 19 C-0.70125 18.7525 -1.4025 18.505 -2.125 18.25 C-5.59171094 16.74273437 -8.17731938 15.56010568 -11 13 C-11.76843874 9.86268995 -11.66471871 7.15018867 -11 4 C-8.21093968 -0.57405892 -5.10245628 -0.72892233 0 0 Z " fill="#FFECF1" transform="translate(797,329)"/>
<path d="M0 0 C3.96 0 7.92 0 12 0 C12 1.32 12 2.64 12 4 C9.36 4 6.72 4 4 4 C4 6.97 4 9.94 4 13 C6.31 13 8.62 13 11 13 C11 14.65 11 16.3 11 18 C9.02 18.33 7.04 18.66 5 19 C4.67 21.31 4.34 23.62 4 26 C6.97 26 9.94 26 13 26 C13 27.32 13 28.64 13 30 C8.71 30 4.42 30 0 30 C0 20.1 0 10.2 0 0 Z " fill="#FFE4EA" transform="translate(755,329)"/>
<path d="M0 0 C2.475 0.495 2.475 0.495 5 1 C5.99 3.97 6.98 6.94 8 10 C9.53521956 7.69717067 10.58357909 5.82137765 11.625 3.3125 C12.07875 2.219375 12.5325 1.12625 13 0 C14.32 0 15.64 0 17 0 C16.13507247 4.39586699 15.25550228 8.57917133 13.4375 12.6875 C11.10167231 18.4798808 11.25110073 24.8350441 11 31 C9.35 31 7.7 31 6 31 C5.98582031 30.14019531 5.97164062 29.28039062 5.95703125 28.39453125 C5.63015296 20.29325028 4.34696102 14.2132089 1.05859375 6.7421875 C0 4 0 4 0 0 Z " fill="#FFE6ED" transform="translate(804,329)"/>
<path d="M0 0 C7 0 7 0 9.40625 1.5625 C11.54555267 4.83437468 11.53294215 7.11282615 11.5 11 C11.5103125 12.216875 11.520625 13.43375 11.53125 14.6875 C11 18 11 18 9.40625 20.4375 C7 22 7 22 0 22 C0 14.74 0 7.48 0 0 Z " fill="#FFABC3" transform="translate(846,249)"/>
<path d="M0 0 C2.4375 1.6875 2.4375 1.6875 4 4 C4.25 6.75 4.25 6.75 4 9 C2.68 9 1.36 9 0 9 C-0.66 7.68 -1.32 6.36 -2 5 C-3.32 5 -4.64 5 -6 5 C-6 11.6 -6 18.2 -6 25 C-4.35 25 -2.7 25 -1 25 C-0.67 23.68 -0.34 22.36 0 21 C1.32 21 2.64 21 4 21 C4.3798302 24.32351429 4.08420069 25.84843876 2.4375 28.8125 C0 31 0 31 -3.5 31.625 C-7 31 -7 31 -9.1875 29.15234375 C-11.87357123 24.48066383 -11.58278016 20.23198121 -11.5 14.9375 C-11.51546875 13.94427734 -11.5309375 12.95105469 -11.546875 11.92773438 C-11.50817281 4.74364082 -11.50817281 4.74364082 -9.1875 1.34765625 C-5.94824419 -0.6479567 -3.72203994 -0.53171999 0 0 Z " fill="#FFEDF0" transform="translate(706,329)"/>
<path d="M0 0 C2.4375 1.6875 2.4375 1.6875 4 4 C4.25 6.75 4.25 6.75 4 9 C2.68 9 1.36 9 0 9 C-0.33 7.68 -0.66 6.36 -1 5 C-2.65 5.33 -4.3 5.66 -6 6 C-6 12.27 -6 18.54 -6 25 C-4.68 25.33 -3.36 25.66 -2 26 C-1.34 24.35 -0.68 22.7 0 21 C1.32 21 2.64 21 4 21 C4.35430394 24.18873549 4.25953249 25.61589191 2.4375 28.3125 C-0.92771179 30.64226201 -2.98972923 30.57289582 -7 30 C-9.1875 28.65625 -9.1875 28.65625 -11 26 C-11.60150271 22.32620653 -11.55759383 18.71480191 -11.5 15 C-11.51546875 14.00226563 -11.5309375 13.00453125 -11.546875 11.9765625 C-11.50809786 4.74462618 -11.50809786 4.74462618 -9.1875 1.34375 C-5.94757145 -0.64649182 -3.72011564 -0.53144509 0 0 Z " fill="#FFE8E8" transform="translate(492,329)"/>
<path d="M0 0 C4.95 0 9.9 0 15 0 C15 1.32 15 2.64 15 4 C13.68 4.33 12.36 4.66 11 5 C10.67 13.25 10.34 21.5 10 30 C8.35 30.33 6.7 30.66 5 31 C5 22.09 5 13.18 5 4 C3.35 4 1.7 4 0 4 C0 2.68 0 1.36 0 0 Z " fill="#FFDFE3" transform="translate(645,329)"/>
<path d="M0 0 C11 0 11 0 13 1 C13 1.66 13 2.32 13 3 C13.66 3 14.32 3 15 3 C16.54958148 6.09916296 16.26681073 9.35071849 16.3125 12.75 C16.34150391 13.45382812 16.37050781 14.15765625 16.40039062 14.8828125 C16.44426803 18.51451125 15.97970903 21.05619039 14.73046875 24.515625 C12 27 12 27 0 27 C0 18.09 0 9.18 0 0 Z M3 2 C3 9.26 3 16.52 3 24 C9.49970048 24.63537302 9.49970048 24.63537302 12.40625 22.4375 C14.54555267 19.16562532 14.53294215 16.88717385 14.5 13 C14.5103125 11.783125 14.520625 10.56625 14.53125 9.3125 C14.229126 5.98872408 14.229126 5.98872408 12.40625 3.5625 C9.49970048 1.36462698 9.49970048 1.36462698 3 2 Z " fill="#FFFCFC" transform="translate(843,247)"/>
<path d="M0 0 C3.53571429 0.53571429 3.53571429 0.53571429 5 2 C5.25035974 5.30516934 5.18521952 8.62396041 5.1875 11.9375 C5.19974609 12.87013672 5.21199219 13.80277344 5.22460938 14.76367188 C5.22654297 15.65505859 5.22847656 16.54644531 5.23046875 17.46484375 C5.23457764 18.285896 5.23868652 19.10694824 5.24291992 19.95288086 C5 22 5 22 3 24 C-0.53571429 23.46428571 -0.53571429 23.46428571 -2 22 C-2.25035974 18.69483066 -2.18521952 15.37603959 -2.1875 12.0625 C-2.19974609 11.12986328 -2.21199219 10.19722656 -2.22460938 9.23632812 C-2.22654297 8.34494141 -2.22847656 7.45355469 -2.23046875 6.53515625 C-2.23663208 5.30357788 -2.23663208 5.30357788 -2.24291992 4.04711914 C-2 2 -2 2 0 0 Z " fill="#FFA4B5" transform="translate(721,332)"/>
<path d="M0 0 C3.53571429 0.53571429 3.53571429 0.53571429 5 2 C5.25035974 5.30516934 5.18521952 8.62396041 5.1875 11.9375 C5.19974609 12.87013672 5.21199219 13.80277344 5.22460938 14.76367188 C5.22654297 15.65505859 5.22847656 16.54644531 5.23046875 17.46484375 C5.23457764 18.285896 5.23868652 19.10694824 5.24291992 19.95288086 C5 22 5 22 3 24 C-0.53571429 23.46428571 -0.53571429 23.46428571 -2 22 C-2.25035974 18.69483066 -2.18521952 15.37603959 -2.1875 12.0625 C-2.19974609 11.12986328 -2.21199219 10.19722656 -2.22460938 9.23632812 C-2.22654297 8.34494141 -2.22847656 7.45355469 -2.23046875 6.53515625 C-2.23663208 5.30357788 -2.23663208 5.30357788 -2.24291992 4.04711914 C-2 2 -2 2 0 0 Z " fill="#FF9495" transform="translate(507,332)"/>
<path d="M0 0 C2.5 0.125 2.5 0.125 3.5 1.125 C3.59883336 2.58978506 3.63079289 4.05922958 3.6328125 5.52734375 C3.63474609 6.86249023 3.63474609 6.86249023 3.63671875 8.22460938 C3.63285156 9.16111328 3.62898437 10.09761719 3.625 11.0625 C3.62886719 11.99513672 3.63273438 12.92777344 3.63671875 13.88867188 C3.63542969 14.78005859 3.63414062 15.67144531 3.6328125 16.58984375 C3.63168457 17.410896 3.63055664 18.23194824 3.62939453 19.07788086 C3.5 21.125 3.5 21.125 2.5 23.125 C-2.375 22.25 -2.375 22.25 -3.5 21.125 C-3.59880797 19.64847336 -3.63079245 18.16732764 -3.6328125 16.6875 C-3.63410156 15.79289062 -3.63539063 14.89828125 -3.63671875 13.9765625 C-3.63091797 12.56503906 -3.63091797 12.56503906 -3.625 11.125 C-3.62886719 10.18398438 -3.63273438 9.24296875 -3.63671875 8.2734375 C-3.63542969 7.37882812 -3.63414062 6.48421875 -3.6328125 5.5625 C-3.63112061 4.32306641 -3.63112061 4.32306641 -3.62939453 3.05859375 C-3.43090634 0.092506 -2.98394336 0.14919717 0 0 Z " fill="#FF9BA3" transform="translate(598.5,332.875)"/>
<path d="M0 0 C5.28 0 10.56 0 16 0 C16 0.33 16 0.66 16 1 C11.38 1 6.76 1 2 1 C2 8.59 2 16.18 2 24 C5.96 24 9.92 24 14 24 C14 24.33 14 24.66 14 25 C10.04 25 6.08 25 2 25 C2 31.93 2 38.86 2 46 C7.28 46 12.56 46 18 46 C18 46.66 18 47.32 18 48 C15.18743719 48.02684312 12.37512759 48.04676188 9.5625 48.0625 C8.76005859 48.07087891 7.95761719 48.07925781 7.13085938 48.08789062 C5.08704779 48.0965143 3.04316098 48.0522815 1 48 C0 47 0 47 -0.12025452 45.09544373 C-0.11803391 44.26271439 -0.11581329 43.42998505 -0.11352539 42.57202148 C-0.11344986 41.63112167 -0.11337433 40.69022186 -0.11329651 39.72080994 C-0.10813522 38.69790359 -0.10297394 37.67499725 -0.09765625 36.62109375 C-0.0962413 35.57929459 -0.09482635 34.53749542 -0.09336853 33.46412659 C-0.0877508 30.12188906 -0.0751953 26.77971743 -0.0625 23.4375 C-0.05748728 21.17773534 -0.05292398 18.91796963 -0.04882812 16.65820312 C-0.03777561 11.10544318 -0.0204991 5.55273278 0 0 Z " fill="#FFDDE2" transform="translate(721,245)"/>
<path d="M0 0 C1.65 0 3.3 0 5 0 C7 2 7 2 7.22705078 3.97119141 C7.21657715 4.75671387 7.20610352 5.54223633 7.1953125 6.3515625 C7.18886719 7.20234375 7.18242188 8.053125 7.17578125 8.9296875 C7.15902344 9.81914062 7.14226563 10.70859375 7.125 11.625 C7.11597656 12.5221875 7.10695313 13.419375 7.09765625 14.34375 C7.0740497 16.56276586 7.0411231 18.78125077 7 21 C4.69 21.33 2.38 21.66 0 22 C0 14.74 0 7.48 0 0 Z " fill="#FFA7B9" transform="translate(739,333)"/>
<path d="M0 0 C1.32 0 2.64 0 4 0 C4 8.91 4 17.82 4 27 C6.97 27 9.94 27 13 27 C13 27.99 13 28.98 13 30 C8.71 30 4.42 30 0 30 C0 20.1 0 10.2 0 0 Z " fill="#FFECEC" transform="translate(521,329)"/>
<path d="M0 0 C2.64 0 5.28 0 8 0 C8 0.33 8 0.66 8 1 C5.69 1 3.38 1 1 1 C1 5.95 1 10.9 1 16 C2.33901792 14.88873341 2.33901792 14.88873341 2.09765625 12.05859375 C2.08605469 10.86363281 2.07445312 9.66867187 2.0625 8.4375 C2.05347656 7.23996094 2.04445313 6.04242188 2.03515625 4.80859375 C2.02355469 3.88175781 2.01195312 2.95492188 2 2 C5.54077776 1.80329012 8.11378427 1.80283577 11 4 C11.609375 6.3828125 11.609375 6.3828125 11.75 9.125 C11.80671875 10.03507812 11.8634375 10.94515625 11.921875 11.8828125 C11.96054687 12.93082031 11.96054687 12.93082031 12 14 C8.16674383 16.70582788 5.67461851 17.32613618 1 17 C1 20.3 1 23.6 1 27 C0.67 27 0.34 27 0 27 C0 18.09 0 9.18 0 0 Z " fill="#FFD9DC" transform="translate(613,331)"/>
<path d="M0 0 C0.33 0 0.66 0 1 0 C1 9.9 1 19.8 1 30 C4.96 30 8.92 30 13 30 C13 29.01 13 28.02 13 27 C10.03 27 7.06 27 4 27 C4 23.7 4 20.4 4 17 C6.31 17 8.62 17 11 17 C11 16.01 11 15.02 11 14 C8.69 14 6.38 14 4 14 C4 10.7 4 7.4 4 4 C4.66 4.33 5.32 4.66 6 5 C5.67 7.64 5.34 10.28 5 13 C7.31 13 9.62 13 12 13 C12 14.65 12 16.3 12 18 C10.02 18.33 8.04 18.66 6 19 C5.67 21.31 5.34 23.62 5 26 C9.95 26 14.9 26 20 26 C20 32 20 32 18 35 C17.01 35 16.02 35 15 35 C14.67 33.68 14.34 32.36 14 31 C9.38 31 4.76 31 0 31 C0 20.77 0 10.54 0 0 Z " fill="#FFC0C8" transform="translate(663,329)"/>
<path d="M0 0 C2.64 0 5.28 0 8 0 C8 0.33 8 0.66 8 1 C5.69 1 3.38 1 1 1 C1.33 1.33 1.66 1.66 2 2 C2.804375 1.979375 3.60875 1.95875 4.4375 1.9375 C7 2 7 2 9 4 C9.66 3.67 10.32 3.34 11 3 C11 5.31 11 7.62 11 10 C10.01 10.495 10.01 10.495 9 11 C8.67 11.99 8.34 12.98 8 14 C5.69 14 3.38 14 1 14 C1 17.96 1 21.92 1 26 C3.31 26 5.62 26 8 26 C8 26.33 8 26.66 8 27 C5.36 27 2.72 27 0 27 C0 18.09 0 9.18 0 0 Z " fill="#FFDEDF" transform="translate(573,331)"/>
<path d="M0 0 C0.99 0 1.98 0 3 0 C3 8.91 3 17.82 3 27 C5.97 27 8.94 27 12 27 C12 27.99 12 28.98 12 30 C8.04 30 4.08 30 0 30 C0 20.1 0 10.2 0 0 Z " fill="#FFF2F3" transform="translate(538,329)"/>
<path d="M0 0 C9 0 9 0 11.5625 1.5 C13.65742367 5.14334551 13.27769546 7.83456807 13 12 C12.01 11.67 11.02 11.34 10 11 C8.8125 7.9375 8.8125 7.9375 8 5 C6.35 4.67 4.7 4.34 3 4 C3 7.3 3 10.6 3 14 C2.67 14 2.34 14 2 14 C2.01160156 13.21753906 2.02320313 12.43507813 2.03515625 11.62890625 C2.04417969 10.61699219 2.05320312 9.60507812 2.0625 8.5625 C2.07410156 7.55316406 2.08570313 6.54382813 2.09765625 5.50390625 C2.28612676 3.05978933 2.28612676 3.05978933 1 2 C1 10.91 1 19.82 1 29 C8.20849646 28.62840912 8.20849646 28.62840912 10.9375 26.875 C12.54263152 24.04241497 12.69781926 21.20311579 13 18 C13.33 18 13.66 18 14 18 C14.47567568 25.13513514 14.47567568 25.13513514 12.625 28.5 C10 30 10 30 0 30 C0 20.1 0 10.2 0 0 Z " fill="#FFF9FA" transform="translate(572,329)"/>
<path d="M0 0 C1.921875 1.5390625 1.921875 1.5390625 2.53125 5.015625 C2.59769281 6.3976355 2.6438002 7.7807406 2.671875 9.1640625 C2.70152344 9.87046875 2.73117187 10.576875 2.76171875 11.3046875 C2.83242857 13.04886297 2.87941535 14.79397077 2.921875 16.5390625 C2.1175 16.5184375 1.313125 16.4978125 0.484375 16.4765625 C-2.01167385 16.24272629 -2.01167385 16.24272629 -3.078125 17.5390625 C-0.438125 17.5390625 2.201875 17.5390625 4.921875 17.5390625 C5.251875 16.5490625 5.581875 15.5590625 5.921875 14.5390625 C5.921875 16.5190625 5.921875 18.4990625 5.921875 20.5390625 C5.591875 19.8790625 5.261875 19.2190625 4.921875 18.5390625 C1.951875 18.5390625 -1.018125 18.5390625 -4.078125 18.5390625 C-5.49661943 6.47094832 -5.49661943 6.47094832 -4.078125 0.5390625 C-2.078125 -0.4609375 -2.078125 -0.4609375 0 0 Z " fill="#FFDDDF" transform="translate(559.078125,331.4609375)"/>
<path d="M0 0 C0.99 0 1.98 0 3 0 C3 2.97 3 5.94 3 9 C4.65 9 6.3 9 8 9 C8.33 8.01 8.66 7.02 9 6 C9 7.32 9 8.64 9 10 C6.36 10 3.72 10 1 10 C1 10.33 1 10.66 1 11 C3.64 11 6.28 11 9 11 C9 11.33 9 11.66 9 12 C6.69 12 4.38 12 2 12 C1.67 14.64 1.34 17.28 1 20 C-0.32 20 -1.64 20 -3 20 C-2.69463301 16.85343097 -2.37951468 13.70791518 -2.0625 10.5625 C-1.97548828 9.66466797 -1.88847656 8.76683594 -1.79882812 7.84179688 C-1.71181641 6.98779297 -1.62480469 6.13378906 -1.53515625 5.25390625 C-1.456604 4.46314697 -1.37805176 3.6723877 -1.29711914 2.85766602 C-1 1 -1 1 0 0 Z " fill="#FFF2F3" transform="translate(632,339)"/>
<path d="M0 0 C2.64 0 5.28 0 8 0 C8 0.33 8 0.66 8 1 C5.69 1 3.38 1 1 1 C1 9.25 1 17.5 1 26 C1.33 25.34 1.66 24.68 2 24 C5.96 23.505 5.96 23.505 10 23 C10 16.4 10 9.8 10 3 C10.33 3 10.66 3 11 3 C11.28365658 6.60234932 11.52110551 10.20628973 11.75 13.8125 C11.83121094 14.83666016 11.91242187 15.86082031 11.99609375 16.91601562 C12.08310547 18.39038086 12.08310547 18.39038086 12.171875 19.89453125 C12.2347168 20.80050049 12.29755859 21.70646973 12.36230469 22.63989258 C12 25 12 25 10.48925781 26.8815918 C8 28 8 28 0 27 C0 18.09 0 9.18 0 0 Z " fill="#FFE0E6" transform="translate(737,331)"/>
<path d="M0 0 C3.96 0 7.92 0 12 0 C12 1.32 12 2.64 12 4 C4.25 4.125 4.25 4.125 2 3 C1.67 11.58 1.34 20.16 1 29 C3.97 29 6.94 29 10 29 C10 29.33 10 29.66 10 30 C6.7 30 3.4 30 0 30 C0 20.1 0 10.2 0 0 Z " fill="#FFF7F9" transform="translate(755,329)"/>
<path d="M0 0 C0.33 0 0.66 0 1 0 C1.33 6.6 1.66 13.2 2 20 C3.32 20.33 4.64 20.66 6 21 C6.66 19.35 7.32 17.7 8 16 C9.32 16 10.64 16 12 16 C12.21917317 18.70313576 12.32851983 20.43958382 10.9375 22.8125 C7.94449731 24.646921 5.42183337 24.31107576 2 24 C0 22 0 22 -0.22705078 19.75341797 C-0.21657715 18.84221191 -0.20610352 17.93100586 -0.1953125 16.9921875 C-0.18886719 16.00605469 -0.18242187 15.01992188 -0.17578125 14.00390625 C-0.15902344 12.97136719 -0.14226562 11.93882812 -0.125 10.875 C-0.11597656 9.83472656 -0.10695313 8.79445313 -0.09765625 7.72265625 C-0.07403747 5.14820908 -0.04110149 2.57421788 0 0 Z " fill="#FFF2F2" transform="translate(484,334)"/>
<path d="M0 0 C0.33 0 0.66 0 1 0 C1 9.9 1 19.8 1 30 C1.99 30 2.98 30 4 30 C4 23.07 4 16.14 4 9 C5.9451 11.91765 6.45276317 13.62537285 7 17 C6.34 17 5.68 17 5 17 C5 21.62 5 26.24 5 31 C3.35 31 1.7 31 0 31 C0 20.77 0 10.54 0 0 Z " fill="#FFC2D4" transform="translate(824,329)"/>
<path d="M0 0 C2.475 0.495 2.475 0.495 5 1 C5 4.3 5 7.6 5 11 C3.35 11.33 1.7 11.66 0 12 C0 8.04 0 4.08 0 0 Z " fill="#FF9CA5" transform="translate(616,333)"/>
<path d="M0 0 C4.875 0.875 4.875 0.875 6 2 C6.125 5 6.125 5 6 8 C5 9 5 9 2.4375 9.0625 C1.633125 9.041875 0.82875 9.02125 0 9 C0 6.03 0 3.06 0 0 Z " fill="#FF989E" transform="translate(576,346)"/>
<path d="M0 0 C0.103125 0.53625 0.20625 1.0725 0.3125 1.625 C0.96640006 4.17603721 0.96640006 4.17603721 2.5625 7 C4 10 4 10 4 14 C2.1875 13.875 2.1875 13.875 0 13 C-1.875 10.3125 -1.875 10.3125 -3 7 C-1.82926829 1.82926829 -1.82926829 1.82926829 0 0 Z " fill="#FFEEF0" transform="translate(622,345)"/>
<path d="M0 0 C0.66 0 1.32 0 2 0 C2.84681133 5.08086796 3.09038099 9.84828377 3 15 C1.68 15 0.36 15 -1 15 C-1.09038099 9.84828377 -0.84681133 5.08086796 0 0 Z " fill="#FFA7B1" transform="translate(636,333)"/>
<path d="M0 0 C0.66 0 1.32 0 2 0 C2.33 4.95 2.66 9.9 3 15 C1.68 15 0.36 15 -1 15 C-1.09038099 9.84828377 -0.84681133 5.08086796 0 0 Z " fill="#FFA1A5" transform="translate(559,333)"/>
<path d="M0 0 C1.27875 -0.061875 2.5575 -0.12375 3.875 -0.1875 C4.95394531 -0.23970703 4.95394531 -0.23970703 6.0546875 -0.29296875 C6.69664062 -0.19628906 7.33859375 -0.09960938 8 0 C8.66 0.99 9.32 1.98 10 3 C9.01 3.33 8.02 3.66 7 4 C7 10.27 7 16.54 7 23 C6.67 23 6.34 23 6 23 C5.67 16.73 5.34 10.46 5 4 C3.68 3.34 2.36 2.68 1 2 C0.67 1.34 0.34 0.68 0 0 Z " fill="#FFD4D7" transform="translate(596,330)"/>
<path d="M0 0 C3.6875 0.3125 3.6875 0.3125 6.125 2 C7.94703249 4.69660809 8.04180394 6.12376451 7.6875 9.3125 C6.3675 9.3125 5.0475 9.3125 3.6875 9.3125 C3.44 8.52875 3.1925 7.745 2.9375 6.9375 C1.51258536 3.94517926 0.70982813 3.44587305 -2.3125 2.3125 C-2.9725 1.9825 -3.6325 1.6525 -4.3125 1.3125 C-3.3125 0.3125 -3.3125 0.3125 0 0 Z " fill="#FFF2F1" transform="translate(488.3125,328.6875)"/>
<path d="M0 0 C2.475 0.495 2.475 0.495 5 1 C5 3.31 5 5.62 5 8 C3.35 8.33 1.7 8.66 0 9 C0 6.03 0 3.06 0 0 Z " fill="#FF9A9F" transform="translate(576,333)"/>
<path d="M0 0 C-0.33 0.99 -0.66 1.98 -1 3 C-2.65 3.66 -4.3 4.32 -6 5 C-6.33 11.6 -6.66 18.2 -7 25 C-7.33 25 -7.66 25 -8 25 C-8.33 17.41 -8.66 9.82 -9 2 C-5.23312136 0.11656068 -3.97041037 -0.22057835 0 0 Z " fill="#FFDADA" transform="translate(491,330)"/>
<path d="M0 0 C3.96 0 7.92 0 12 0 C12 1.32 12 2.64 12 4 C10.56416999 4.10836453 9.1259798 4.18576167 7.6875 4.25 C6.48673828 4.31960938 6.48673828 4.31960938 5.26171875 4.390625 C3 4 3 4 0 0 Z " fill="#FFEEF0" transform="translate(664,329)"/>
<path d="M0 0 C0.66 0.33 1.32 0.66 2 1 C2 1.33 2 1.66 2 2 C4.64 2 7.28 2 10 2 C10 2.33 10 2.66 10 3 C8.39125 3.12375 8.39125 3.12375 6.75 3.25 C2.57589709 4.08482058 1.83845939 5.06692529 -1 8 C-3.75 8.25 -3.75 8.25 -6 8 C-4.55746343 4.63408134 -2.66735273 2.48952921 0 0 Z " fill="#FFE4E7" transform="translate(690,243)"/>
<path d="M0 0 C1.32 0 2.64 0 4 0 C4.125 6.75 4.125 6.75 3 9 C1.68 9 0.36 9 -1 9 C-0.67 6.03 -0.34 3.06 0 0 Z " fill="#FFE5EB" transform="translate(770,355)"/>
<path d="M0 0 C0.33 0 0.66 0 1 0 C1 2.97 1 5.94 1 9 C2.65 8.67 4.3 8.34 6 8 C6.33 6.35 6.66 4.7 7 3 C7.99 2.67 8.98 2.34 10 2 C10.25 4.8125 10.25 4.8125 10 8 C8.375 9.9375 8.375 9.9375 6 11 C2.75 10.6875 2.75 10.6875 0 10 C0 6.7 0 3.4 0 0 Z " fill="#FFDCDE" transform="translate(575,346)"/>
<path d="M0 0 C1.32 0.33 2.64 0.66 4 1 C4 2.98 4 4.96 4 7 C2.68 7 1.36 7 0 7 C0 4.69 0 2.38 0 0 Z " fill="#FFECEE" transform="translate(641,352)"/>
<path d="M0 0 C1.65 0 3.3 0 5 0 C5 1.65 5 3.3 5 5 C3.35 4.67 1.7 4.34 0 4 C0 2.68 0 1.36 0 0 Z " fill="#FFDDE8" transform="translate(862,355)"/>
<path d="M0 0 C1.32 0 2.64 0 4 0 C4.1875 2.375 4.1875 2.375 4 5 C3.01 5.66 2.02 6.32 1 7 C1 6.34 1 5.68 1 5 C0.34 4.67 -0.32 4.34 -1 4 C-0.67 2.68 -0.34 1.36 0 0 Z " fill="#FFF2F4" transform="translate(706,350)"/>
<path d="M0 0 C0.99 0 1.98 0 3 0 C3 2.31 3 4.62 3 7 C1.68 7.33 0.36 7.66 -1 8 C-0.67 5.36 -0.34 2.72 0 0 Z " fill="#FFEFF1" transform="translate(679,356)"/>
<path d="M0 0 C0.33 0.99 0.66 1.98 1 3 C-2 5 -2 5 -5.1875 4.625 C-6.115625 4.41875 -7.04375 4.2125 -8 4 C-7.67 3.01 -7.34 2.02 -7 1 C-3.535 0.505 -3.535 0.505 0 0 Z " fill="#FFDFE7" transform="translate(799,354)"/>
<path d="M0 0 C3 1 3 1 5 3 C4 5 4 5 2.125 5.8125 C0 6 0 6 -1.75 4.5625 C-2.1625 4.046875 -2.575 3.53125 -3 3 C-2.01 2.01 -1.02 1.02 0 0 Z " fill="#FFDEE8" transform="translate(849,328)"/>
<path d="M0 0 C1.485 0.99 1.485 0.99 3 2 C3.1875 5.125 3.1875 5.125 3 8 C1.68 8 0.36 8 -1 8 C-0.67 5.36 -0.34 2.72 0 0 Z " fill="#FFF3F3" transform="translate(553,351)"/>
<path d="M0 0 C1.485 0.99 1.485 0.99 3 2 C2.67 5.3 2.34 8.6 2 12 C1.67 10.68 1.34 9.36 1 8 C0.34 8 -0.32 8 -1 8 C-0.67 5.36 -0.34 2.72 0 0 Z " fill="#FFDEDF" transform="translate(562,333)"/>
<path d="M0 0 C3.7758544 0.52442422 6.22372155 1.32654667 9 4 C9 4.99 9 5.98 9 7 C7.68 7 6.36 7 5 7 C4.731875 6.21625 4.46375 5.4325 4.1875 4.625 C3.15185568 1.71885077 3.15185568 1.71885077 0 0 Z " fill="#FFF5F8" transform="translate(850,331)"/>
<path d="M0 0 C4.55384615 -0.36923077 4.55384615 -0.36923077 6.8125 1.5 C7.204375 1.995 7.59625 2.49 8 3 C7.67 3.99 7.34 4.98 7 6 C4.0625 4.6875 4.0625 4.6875 1 3 C0.67 2.01 0.34 1.02 0 0 Z " fill="#FFE0E5" transform="translate(700,330)"/>
<path d="M0 0 C4.75 0.75 4.75 0.75 7 3 C6.67 3.99 6.34 4.98 6 6 C4.02 5.01 2.04 4.02 0 3 C0 2.01 0 1.02 0 0 Z " fill="#FFE3EA" transform="translate(792,330)"/>
<path d="M0 0 C2.97 0.495 2.97 0.495 6 1 C6 1.33 6 1.66 6 2 C2.68885166 3.12880057 -0.58978257 4.21302675 -4 5 C-2.68 3.35 -1.36 1.7 0 0 Z " fill="#FFE9ED" transform="translate(719,329)"/>
</svg>
