<?xml version="1.0" encoding="UTF-8"?>
<svg version="1.1" xmlns="http://www.w3.org/2000/svg" width="779" height="320">
<path d="M0 0 C9.9 0 19.8 0 30 0 C29.35122342 7.13654235 28.60966609 14.03301883 27.3984375 21.0625 C27.16278076 22.46165901 27.16278076 22.46165901 26.92236328 23.88908386 C26.58533416 25.8877313 26.24648249 27.88607213 25.90594482 29.88412476 C25.17837078 34.15392802 24.46005521 38.42527312 23.74136353 42.69657898 C23.37099334 44.89775009 23.00020221 47.0988504 22.6289978 49.29988098 C20.83899892 59.92284839 19.10022667 70.55385013 17.375 81.1875 C17.08661866 82.96167482 16.79820731 84.73584476 16.50976562 86.51000977 C15.13381667 94.97933612 13.76601759 103.44993632 12.40625 111.921875 C10.09753326 126.29451979 7.76463125 140.66171181 5.25 155 C4.95198486 156.72754517 4.95198486 156.72754517 4.64794922 158.48999023 C4.45990723 159.54516846 4.27186523 160.60034668 4.078125 161.6875 C3.83690918 163.05455078 3.83690918 163.05455078 3.59082031 164.44921875 C3 167 3 167 1 172 C-8.57 172 -18.14 172 -28 172 C-27.34527112 164.14325347 -26.57321897 156.58672769 -25.25341797 148.85522461 C-25.07919815 147.81063583 -24.90497833 146.76604706 -24.72547913 145.68980408 C-24.15228679 142.25986691 -23.57223491 138.83112767 -22.9921875 135.40234375 C-22.58394572 132.96667485 -22.17616909 130.53092795 -21.76882935 128.09510803 C-20.6940289 121.67480777 -19.61355658 115.25547545 -18.53167725 108.83636475 C-16.82532487 98.7053039 -15.12830097 88.5726733 -13.42960358 78.44032669 C-12.80736367 74.73079795 -12.18410278 71.02144178 -11.56072998 67.31210327 C-9.63178689 55.82330152 -7.71846073 44.33237719 -5.85644531 32.83251953 C-5.69136286 31.81331326 -5.5262804 30.794107 -5.35619545 29.74401569 C-4.59112821 25.01435944 -3.82994851 20.28411543 -3.07418823 15.55296326 C-2.81005638 13.91103834 -2.54590751 12.26911617 -2.28173828 10.62719727 C-2.16517002 9.88943369 -2.04860176 9.15167011 -1.92850113 8.39155006 C-1.45975853 5.48742201 -0.93244047 2.7973214 0 0 Z " fill="#C01224" transform="translate(241,74)"/>
<path d="M0 0 C3.79485991 29.64126157 3.79485991 29.64126157 -2.11376953 37.98486328 C-7.67511225 42.84689353 -14.16529166 45.83455394 -20.93408203 48.67431641 C-25.20097925 50.51929585 -29.06282464 52.85947737 -33 55.3125 C-33.62140869 55.66908691 -34.24281738 56.02567383 -34.88305664 56.39306641 C-36.28953358 57.20558848 -37.65149554 58.09451383 -39 59 C-39 59.66 -39 60.32 -39 61 C-36.93455378 62.41706207 -36.93455378 62.41706207 -34.1875 63.875 C-28.43329331 67.13183993 -22.83050275 70.57897043 -17.25 74.125 C-16.45875732 74.62757324 -15.66751465 75.13014648 -14.85229492 75.64794922 C-13.30627918 76.63038238 -11.77053694 77.62919055 -10.24609375 78.64477539 C-8.05534119 80.06465522 -8.05534119 80.06465522 -5.66015625 80.85327148 C-2.99014571 81.94283663 -1.72466607 82.66091458 0 85 C1.01310698 90.95973264 0.75106353 96.79348862 0.5 102.8125 C0.45985353 104.47582653 0.42335474 106.13924537 0.390625 107.80273438 C0.30263668 111.87077097 0.16471556 115.9343765 0 120 C-3.1458249 118.80881628 -5.97245154 117.52574437 -8.80078125 115.70703125 C-9.87658447 115.02072632 -9.87658447 115.02072632 -10.97412109 114.32055664 C-11.74578613 113.82289795 -12.51745117 113.32523926 -13.3125 112.8125 C-15.01913938 111.72334406 -16.72619034 110.63483283 -18.43359375 109.546875 C-19.33706543 108.97001953 -20.24053711 108.39316406 -21.17138672 107.79882812 C-26.05553396 104.69280388 -30.96529085 101.62790066 -35.875 98.5625 C-37.37546875 97.62494873 -37.37546875 97.62494873 -38.90625 96.66845703 C-46.75381997 91.76877572 -54.61658294 86.89384422 -62.48974609 82.03540039 C-63.3039502 81.53258545 -64.1181543 81.02977051 -64.95703125 80.51171875 C-65.66835205 80.07303467 -66.37967285 79.63435059 -67.11254883 79.18237305 C-71.96481624 76.14272345 -71.96481624 76.14272345 -72.72143555 73.07348633 C-75.4336986 48.63760666 -75.4336986 48.63760666 -69.9375 41.21435547 C-64.35740765 36.43245714 -57.83872389 33.43407696 -51.16308594 30.46777344 C-46.59308709 28.34714724 -42.49978728 25.6575083 -38.3125 22.875 C-36.79702861 21.90971913 -35.27877344 20.9487953 -33.7578125 19.9921875 C-32.99500977 19.51104492 -32.23220703 19.02990234 -31.44628906 18.53417969 C-25.99190211 15.11348431 -20.51004815 11.73667382 -15.02661133 8.36279297 C-11.47888745 6.1758163 -7.95179893 3.98993512 -4.51953125 1.625 C-2 0 -2 0 0 0 Z " fill="#C01224" transform="translate(200,100)"/>
<path d="M0 0 C3.1458249 1.19118372 5.97245154 2.47425563 8.80078125 4.29296875 C9.5177417 4.75034424 10.23470215 5.20771973 10.97338867 5.67895508 C11.74529541 6.1767749 12.51720215 6.67459473 13.3125 7.1875 C15.02303783 8.27927227 16.73399517 9.37038747 18.4453125 10.4609375 C19.34926758 11.03811523 20.25322266 11.61529297 21.18457031 12.20996094 C25.00833832 14.64109751 28.84821439 17.04562782 32.69604492 19.43847656 C34.70328934 20.69593255 36.70083813 21.96898945 38.6887207 23.25683594 C43.95546306 26.64033427 49.14756005 29.59986475 54.86328125 32.1640625 C70.10972479 39.40223968 70.10972479 39.40223968 73.45019531 47.52734375 C76.05197389 56.93404622 75.83091753 67.00349911 72 76 C66.09655503 83.09762055 57.62250932 86.73031111 49.36816406 90.4296875 C44.64565771 92.6314243 40.39470363 95.37363991 36.0625 98.25 C34.56200957 99.20644917 33.05941497 100.15960566 31.5546875 101.109375 C30.81702148 101.57794922 30.07935547 102.04652344 29.31933594 102.52929688 C26.82247645 104.11256862 24.32183465 105.68973116 21.8203125 107.265625 C20.96171631 107.80670898 20.10312012 108.34779297 19.21850586 108.90527344 C17.58418595 109.93501952 15.94960192 110.96434661 14.31469727 111.99316406 C11.0338411 114.06242367 7.77629171 116.14280898 4.58203125 118.34375 C2 120 2 120 0 120 C-2.98648396 90.06261425 -2.98648396 90.06261425 1.55859375 82.35791016 C5.75171367 78.3149824 10.87422855 76.26071155 16.24414062 74.18212891 C21.03977257 72.12503732 25.23811375 69.14224906 29.5625 66.25 C31.14200905 65.22642064 32.72624412 64.21007483 34.31640625 63.203125 C34.98099854 62.77676758 35.64559082 62.35041016 36.33032227 61.91113281 C38 61 38 61 40 61 C37.9676704 58.83987292 35.98089831 57.24159337 33.4375 55.72265625 C31.15226941 54.35391736 28.87578708 52.98355999 26.62744141 51.5546875 C22.37495474 48.87760174 18.28333011 46.64008773 13.5859375 44.83984375 C8.02207326 42.47513726 3.17531256 40.36012451 0 35 C-2.89915261 23.91639784 -1.12225891 11.24985046 0 0 Z " fill="#C11224" transform="translate(284,100)"/>
<path d="M0 0 C2.64 0 5.28 0 8 0 C8 9.57 8 19.14 8 29 C5.36 29 2.72 29 0 29 C-1.03125 29.20625 -2.0625 29.4125 -3.125 29.625 C-6.72088797 30.09402887 -8.76271035 29.61864483 -12 28 C-14.936764 23.72834328 -14.52521613 17.98955323 -14 13 C-12.65392798 9.599397 -11.76868016 8.44502535 -8.625 6.625 C-5.69693028 5.92784054 -3.87002036 6.17999418 -1 7 C-1.020625 6.030625 -1.04125 5.06125 -1.0625 4.0625 C-1 1 -1 1 0 0 Z M-5 13 C-5 16.3 -5 19.6 -5 23 C-3.68 23 -2.36 23 -1 23 C-1 19.7 -1 16.4 -1 13 C-2.32 13 -3.64 13 -5 13 Z " fill="#DEC81A" transform="translate(449,133)"/>
<path d="M0 0 C3.875 1.75 3.875 1.75 5 4 C4.64208735 6.01576407 4.19077312 8.01552969 3.6875 10 C3.42324219 11.0725 3.15898438 12.145 2.88671875 13.25 C2 16 2 16 0 18 C-1.32 18 -2.64 18 -4 18 C-4 18.66 -4 19.32 -4 20 C-3.030625 20.144375 -2.06125 20.28875 -1.0625 20.4375 C2 21 2 21 3 22 C3.3125 25.375 3.3125 25.375 3 29 C0.74440391 31.34131946 -0.63525099 31.95391079 -3.875 32.36328125 C-4.90625 32.34652344 -5.9375 32.32976562 -7 32.3125 C-8.03125 32.30863281 -9.0625 32.30476563 -10.125 32.30078125 C-12.92633186 32.00770713 -14.61170203 31.44101632 -17 30 C-16.67 28.35 -16.34 26.7 -16 25 C-12.04 25.33 -8.08 25.66 -4 26 C-4 25.34 -4 24.68 -4 24 C-4.94875 24.04125 -5.8975 24.0825 -6.875 24.125 C-10 24 -10 24 -12 22 C-11.625 19.875 -11.625 19.875 -11 18 C-11.61875 17.87625 -12.2375 17.7525 -12.875 17.625 C-15 17 -15 17 -17 15 C-17.66898955 8.08710801 -17.66898955 8.08710801 -15.5 4.5625 C-12.06201011 2.41375632 -8.97215443 2.30178586 -5 2 C-2.20044815 1.53909087 -2.20044815 1.53909087 0 0 Z M-9 7 C-9 9.31 -9 11.62 -9 14 C-7.68 14 -6.36 14 -5 14 C-5 11.69 -5 9.38 -5 7 C-6.32 7 -7.64 7 -9 7 Z " fill="#D6C72E" transform="translate(543,137)"/>
<path d="M0 0 C0.33 2.31 0.66 4.62 1 7 C2.051875 6.79375 3.10375 6.5875 4.1875 6.375 C8 6 8 6 13 8 C13 14.93 13 21.86 13 29 C10.36 29 7.72 29 5 29 C5 23.72 5 18.44 5 13 C3.02 13.99 3.02 13.99 1 15 C1 19.62 1 24.24 1 29 C-1.97 29 -4.94 29 -8 29 C-8 19.76 -8 10.52 -8 1 C-5.29120665 -0.35439668 -2.99066732 -0.06501451 0 0 Z " fill="#D7C423" transform="translate(597,133)"/>
<path d="M0 0 C3.14336099 2.9584574 3.20254114 5.86098741 3.375 10 C3.25299969 14.0931103 2.70440311 16.77551937 0 20 C-4.21625188 22.10812594 -9.41865649 21.50022659 -14 21 C-17.25 19.25 -17.25 19.25 -19 16 C-19.93719149 10.24977425 -20.17509693 5.66472065 -16.75 0.8125 C-11.14115529 -2.88423856 -6.20173679 -2.09904937 0 0 Z M-10 5 C-10 8.3 -10 11.6 -10 15 C-8.68 15 -7.36 15 -6 15 C-6 11.7 -6 8.4 -6 5 C-7.32 5 -8.64 5 -10 5 Z " fill="#DDCA1C" transform="translate(521,141)"/>
<path d="M0 0 C2.28249483 3.42374225 2.49228969 5.13715058 2.375 9.125 C2 11 2 11 -0.0625 13 C-3.52263802 14.17791933 -6.36865963 14.21360826 -10 14 C-10 14.66 -10 15.32 -10 16 C-6.37 15.67 -2.74 15.34 1 15 C1.33 16.98 1.66 18.96 2 21 C-4.59186189 22.75602878 -9.58976082 23.69904808 -16 21 C-18.89394576 17.20169619 -19.49536452 13.61792833 -19.28125 8.9609375 C-18.82128399 5.75395228 -17.87802849 3.62923989 -16 1 C-11.13364415 -1.72990694 -5.30658424 -1.42208822 0 0 Z M-10 6 C-10 6.99 -10 7.98 -10 9 C-8.35 8.67 -6.7 8.34 -5 8 C-5 7.34 -5 6.68 -5 6 C-6.65 6 -8.3 6 -10 6 Z " fill="#E1CC0E" transform="translate(568,140)"/>
<path d="M0 0 C2.77150851 4.54527396 2.99542771 9.48702653 2.26171875 14.69921875 C1.6875 16.5625 1.6875 16.5625 -0.4375 19.5625 C-4.80673238 21.66007969 -8.58231785 21.70043261 -13.3125 20.9375 C-16.72311784 19.43682815 -17.88829696 18.91910659 -19.4375 15.5625 C-20.56242486 10.9485504 -20.83770001 7.61064287 -19.125 3.125 C-16.30532133 -1.15673428 -16.30532133 -1.15673428 -13.3125 -2.125 C-8.48450841 -2.64978169 -4.24472868 -2.50330153 0 0 Z M-11.4375 4.5625 C-11.4375 7.8625 -11.4375 11.1625 -11.4375 14.5625 C-9.7875 14.5625 -8.1375 14.5625 -6.4375 14.5625 C-6.4375 11.2625 -6.4375 7.9625 -6.4375 4.5625 C-8.0875 4.5625 -9.7375 4.5625 -11.4375 4.5625 Z " fill="#DCCB1E" transform="translate(430.4375,141.4375)"/>
<path d="M0 0 C2.76030472 2.25843114 2.94290657 3.53373697 3.375 7.0625 C3 10 3 10 1.76953125 11.640625 C-0.44374657 13.3408914 -1.9245594 13.48728691 -4.6875 13.6875 C-5.89986328 13.78611328 -5.89986328 13.78611328 -7.13671875 13.88671875 C-7.75160156 13.92410156 -8.36648438 13.96148437 -9 14 C-9 14.66 -9 15.32 -9 16 C-5.37 15.67 -1.74 15.34 2 15 C2 16.98 2 18.96 2 21 C-4.12395886 23.00420472 -8.92958987 23.55401402 -15 21 C-18.08386677 18.00958374 -18.20926193 15.12503645 -18.375 11 C-18.22850595 6.89816653 -17.9053261 4.09901451 -15 1 C-10.13366022 -1.54903512 -5.21531628 -1.40097712 0 0 Z M-9 6 C-9 6.99 -9 7.98 -9 9 C-7.68 9 -6.36 9 -5 9 C-5 8.01 -5 7.02 -5 6 C-6.32 6 -7.64 6 -9 6 Z " fill="#DFCB1B" transform="translate(478,140)"/>
<path d="M0 0 C2.0472744 1.54006678 2.86379056 2.43700099 3.46875 4.9375 C3.50085314 7.05630749 3.45345543 8.9270609 3 11 C0.07175551 13.83950981 -1.74061349 13.98724329 -5.8125 14.1875 C-6.864375 14.125625 -7.91625 14.06375 -9 14 C-9 14.66 -9 15.32 -9 16 C-5.37 15.67 -1.74 15.34 2 15 C2.33 16.98 2.66 18.96 3 21 C-3.22373082 22.91273051 -8.90543764 23.85169999 -15 21 C-18.50514497 16.5389064 -18.43146507 12.43645991 -18 7 C-17.4375 4.1875 -17.4375 4.1875 -16 2 C-10.77782273 -1.19725139 -5.92197626 -1.81331831 0 0 Z M-9 6 C-9 6.99 -9 7.98 -9 9 C-7.35 9 -5.7 9 -4 9 C-4 8.01 -4 7.02 -4 6 C-5.65 6 -7.3 6 -9 6 Z " fill="#DCC920" transform="translate(631,140)"/>
<path d="M0 0 C-0.33 1.98 -0.66 3.96 -1 6 C-3.97 6 -6.94 6 -10 6 C-10.33 10.29 -10.66 14.58 -11 19 C-7.7 18.67 -4.4 18.34 -1 18 C-0.67 20.64 -0.34 23.28 0 26 C-11.47119712 27.70798508 -11.47119712 27.70798508 -17 25 C-20.67146573 19.43358421 -20.69867925 13.51781599 -20 7 C-19.15990606 3.34656822 -18.08664346 0.73508234 -14.875 -1.4375 C-9.47586987 -2.49385155 -4.68193254 -3.12128836 0 0 Z " fill="#DFCB10" transform="translate(409,136)"/>
<path d="M0 0 C6.93 0 13.86 0 21 0 C21 2.31 21 4.62 21 7 C19.02 7 17.04 7 15 7 C15 13.6 15 20.2 15 27 C12.36 27 9.72 27 7 27 C7 20.4 7 13.8 7 7 C4.69 7 2.38 7 0 7 C0 4.69 0 2.38 0 0 Z " fill="#DAC81C" transform="translate(482,135)"/>
<path d="M0 0 C0 1.98 0 3.96 0 6 C0.99 6 1.98 6 3 6 C3 7.98 3 9.96 3 12 C2.01 12 1.02 12 0 12 C0 15.3 0 18.6 0 22 C0.99 22 1.98 22 3 22 C3 23.65 3 25.3 3 27 C-1.96650782 29.07900327 -2.64555971 29.14177612 -8 27 C-8 22.05 -8 17.1 -8 12 C-8.66 12 -9.32 12 -10 12 C-10 10.02 -10 8.04 -10 6 C-9.34 6 -8.68 6 -8 6 C-8.33 5.01 -8.66 4.02 -9 3 C-7.68825887 2.4980125 -6.37558403 1.99846423 -5.0625 1.5 C-4.33160156 1.2215625 -3.60070312 0.943125 -2.84765625 0.65625 C-1 0 -1 0 0 0 Z " fill="#E1CC0E" transform="translate(583,134)"/>
<path d="M0 0 C1.98 0 3.96 0 6 0 C6.0867982 3.79152334 6.14032207 7.58279296 6.1875 11.375 C6.21263672 12.45523438 6.23777344 13.53546875 6.26367188 14.6484375 C6.27333984 15.6796875 6.28300781 16.7109375 6.29296875 17.7734375 C6.3086792 18.72653809 6.32438965 19.67963867 6.34057617 20.66162109 C6.22818604 21.43328613 6.1157959 22.20495117 6 23 C3 25 3 25 0.8125 24.625 C-0.0846875 24.315625 -0.0846875 24.315625 -1 24 C-1 24.66 -1 25.32 -1 26 C-4.27275026 26 -6.846632 25.70074844 -10 25 C-11.125 19.375 -11.125 19.375 -10 16 C-9.67 16.99 -9.34 17.98 -9 19 C-8.34 19 -7.68 19 -7 19 C-6.67 17.68 -6.34 16.36 -6 15 C-6 17.31 -6 19.62 -6 22 C-4.35 21.67 -2.7 21.34 -1 21 C-0.67 17.37 -0.34 13.74 0 10 C-1.98 10 -3.96 10 -6 10 C-5.67 8.68 -5.34 7.36 -5 6 C-3.68 5.67 -2.36 5.34 -1 5 C-0.67 3.35 -0.34 1.7 0 0 Z " fill="#E1CC0C" transform="translate(449,135)"/>
<path d="M0 0 C0 2.64 0 5.28 0 8 C-1.65 8.66 -3.3 9.32 -5 10 C-5 14.29 -5 18.58 -5 23 C-7.64 23 -10.28 23 -13 23 C-13 15.74 -13 8.48 -13 1 C-11.35 1 -9.7 1 -8 1 C-7.34 1.66 -6.68 2.32 -6 3 C-5.195625 2.505 -4.39125 2.01 -3.5625 1.5 C-1 0 -1 0 0 0 Z " fill="#D8C71B" transform="translate(651,139)"/>
<path d="M0 0 C1.14984375 0.01546875 2.2996875 0.0309375 3.484375 0.046875 C6.25 0.25 6.25 0.25 7.25 1.25 C7.48880597 8.77238806 7.48880597 8.77238806 6.25 11.25 C3.6875 11.875 3.6875 11.875 1.25 12.25 C1.25 8.95 1.25 5.65 1.25 2.25 C-0.4 2.58 -2.05 2.91 -3.75 3.25 C-3.75 5.89 -3.75 8.53 -3.75 11.25 C-2.43 11.58 -1.11 11.91 0.25 12.25 C-0.41 13.9 -1.07 15.55 -1.75 17.25 C-3.07 16.92 -4.39 16.59 -5.75 16.25 C-5.75 15.59 -5.75 14.93 -5.75 14.25 C-6.36875 14.12625 -6.9875 14.0025 -7.625 13.875 C-9.75 13.25 -9.75 13.25 -11.75 11.25 C-12.38839286 5.50446429 -12.38839286 5.50446429 -11.75 3.25 C-7.95056766 0.11317738 -4.82131723 -0.10907958 0 0 Z M4.25 1.25 C4.58 2.24 4.91 3.23 5.25 4.25 C5.58 3.26 5.91 2.27 6.25 1.25 C5.59 1.25 4.93 1.25 4.25 1.25 Z " fill="#E1CC0D" transform="translate(537.75,140.75)"/>
<path d="M0 0 C3.36838724 0.0612434 5.32927236 0.13755162 8.375 1.625 C10.51508961 6.00708826 9.98457731 10.52625444 9.6875 15.3125 C9.0275 15.3125 8.3675 15.3125 7.6875 15.3125 C7.6875 16.3025 7.6875 17.2925 7.6875 18.3125 C3.98348872 20.78184085 0.98162135 20.76178433 -3.3125 20.3125 C-5.8125 19.3125 -5.8125 19.3125 -7.3125 18.3125 C-7.3125 17.6525 -7.3125 16.9925 -7.3125 16.3125 C-6.3225 16.3125 -5.3325 16.3125 -4.3125 16.3125 C-3.9825 15.6525 -3.6525 14.9925 -3.3125 14.3125 C-3.3125 14.9725 -3.3125 15.6325 -3.3125 16.3125 C-1.3325 15.9825 0.6475 15.6525 2.6875 15.3125 C3.0175 11.6825 3.3475 8.0525 3.6875 4.3125 C1.3775 4.3125 -0.9325 4.3125 -3.3125 4.3125 C-3.3125 3.6525 -3.3125 2.9925 -3.3125 2.3125 C-5.7875 3.7975 -5.7875 3.7975 -8.3125 5.3125 C-6.00323161 0.54001199 -5.3966356 0.13580937 0 0 Z " fill="#E0CC0E" transform="translate(421.3125,140.6875)"/>
<path d="M0 0 C0.66 0 1.32 0 2 0 C2.33 1.32 2.66 2.64 3 4 C5.97 4.495 5.97 4.495 9 5 C9 5.66 9 6.32 9 7 C6.69 7 4.38 7 2 7 C2 7.99 2 8.98 2 10 C7.94 9.505 7.94 9.505 14 9 C14.33 10.98 14.66 12.96 15 15 C9.26696495 16.57300962 4.84340558 17.24327778 -1 16 C-1.12375 15.360625 -1.2475 14.72125 -1.375 14.0625 C-1.58125 13.381875 -1.7875 12.70125 -2 12 C-2.66 11.67 -3.32 11.34 -4 11 C-3.21681311 7.08406554 -1.60820142 3.63593365 0 0 Z " fill="#E0CD0B" transform="translate(619,146)"/>
<path d="M0 0 C0 1.98 0 3.96 0 6 C0.99 6 1.98 6 3 6 C3 7.98 3 9.96 3 12 C2.01 12 1.02 12 0 12 C0 15.3 0 18.6 0 22 C0.99 22 1.98 22 3 22 C3 23.65 3 25.3 3 27 C-1.96650782 29.07900327 -2.64555971 29.14177612 -8 27 C-8 22.05 -8 17.1 -8 12 C-8.66 12 -9.32 12 -10 12 C-10 10.02 -10 8.04 -10 6 C-9.34 6 -8.68 6 -8 6 C-8.33 5.01 -8.66 4.02 -9 3 C-7.68825887 2.4980125 -6.37558403 1.99846423 -5.0625 1.5 C-4.33160156 1.2215625 -3.60070312 0.943125 -2.84765625 0.65625 C-1 0 -1 0 0 0 Z M-5 3 C-6.19838209 5.32854463 -6.19838209 5.32854463 -7 8 C-6.01 9.485 -6.01 9.485 -5 11 C-5.33 11.33 -5.66 11.66 -6 12 C-6.07313567 14.53049402 -6.09247527 17.03304837 -6.0625 19.5625 C-6.05798828 20.27341797 -6.05347656 20.98433594 -6.04882812 21.71679688 C-6.03700864 23.47790013 -6.01907263 25.23896036 -6 27 C-3.69 27 -1.38 27 1 27 C1 25.68 1 24.36 1 23 C0.34 23 -0.32 23 -1 23 C-0.88648483 21.18674449 -0.75887039 19.37436643 -0.625 17.5625 C-0.55539062 16.55316406 -0.48578125 15.54382813 -0.4140625 14.50390625 C-0.27742187 13.67761719 -0.14078125 12.85132813 0 12 C0.66 11.67 1.32 11.34 2 11 C2 9.68 2 8.36 2 7 C1.01 7 0.02 7 -1 7 C-1 5.68 -1 4.36 -1 3 C-2.32 3 -3.64 3 -5 3 Z " fill="#D2C12D" transform="translate(583,134)"/>
<path d="M0 0 C2.6875 0.875 2.6875 0.875 5 2 C5 2.66 5 3.32 5 4 C3.68 4 2.36 4 1 4 C1 5.32 1 6.64 1 8 C4.63 8 8.26 8 12 8 C12 8.99 12 9.98 12 11 C6.6061385 13.98383828 3.65708842 14.17766208 -2.27734375 12.54296875 C-2.84582031 12.36378906 -3.41429687 12.18460938 -4 12 C-4.16015625 4.953125 -4.16015625 4.953125 -3 2 C-2.01 1.34 -1.02 0.68 0 0 Z " fill="#E0CC16" transform="translate(467,149)"/>
<path d="M0 0 C1.65 0 3.3 0 5 0 C5.33 2.31 5.66 4.62 6 7 C6.99 7 7.98 7 9 7 C8.3547078 9.93015334 7.4319105 12.48756475 6.125 15.1875 C5.79757812 15.88230469 5.47015625 16.57710937 5.1328125 17.29296875 C4 19 4 19 1 20 C-0.05619003 15.71702469 -0.11702092 11.57014354 -0.0625 7.1875 C-0.05798828 6.49462891 -0.05347656 5.80175781 -0.04882812 5.08789062 C-0.03713156 3.39188932 -0.01919924 1.69593297 0 0 Z " fill="#E0CC0D" transform="translate(590,135)"/>
<path d="M0 0 C3.875 1.75 3.875 1.75 5 4 C4.64208735 6.01576407 4.19077312 8.01552969 3.6875 10 C3.42324219 11.0725 3.15898438 12.145 2.88671875 13.25 C2 16 2 16 0 18 C-1.32 18 -2.64 18 -4 18 C-4.33 18.99 -4.66 19.98 -5 21 C-5 19.35 -5 17.7 -5 16 C-6.65 15.67 -8.3 15.34 -10 15 C-10.09765625 8.84765625 -10.09765625 8.84765625 -10 7 C-9 6 -9 6 -6.4375 5.9375 C-5.2309375 5.9684375 -5.2309375 5.9684375 -4 6 C-3.67 8.97 -3.34 11.94 -3 15 C-1.68 15 -0.36 15 1 15 C1 11.7 1 8.4 1 5 C-1.08304538 4.94581674 -3.16649768 4.90712449 -5.25 4.875 C-6.41015625 4.85179687 -7.5703125 4.82859375 -8.765625 4.8046875 C-11.82786046 4.9896051 -13.44202751 5.39176977 -16 7 C-15.67 6.01 -15.34 5.02 -15 4 C-10.55867468 1.99082902 -6.80307382 2 -2 2 C-1.34 1.34 -0.68 0.68 0 0 Z M-9 7 C-9 9.31 -9 11.62 -9 14 C-7.68 14 -6.36 14 -5 14 C-5 11.69 -5 9.38 -5 7 C-6.32 7 -7.64 7 -9 7 Z M-1 5 C-0.01 5.495 -0.01 5.495 1 6 C0.34 6.66 -0.32 7.32 -1 8 C-1 7.01 -1 6.02 -1 5 Z " fill="#D1BD26" transform="translate(543,137)"/>
<path d="M0 0 C-0.33 0.99 -0.66 1.98 -1 3 C-1.99 3 -2.98 3 -4 3 C-3.67 10.92 -3.34 18.84 -3 27 C-1.68 27 -0.36 27 1 27 C1 27.66 1 28.32 1 29 C1.66 29 2.32 29 3 29 C3 30.32 3 31.64 3 33 C-2.11111111 37 -2.11111111 37 -5 37 C-5.07404737 32.05211686 -5.12855246 27.10455476 -5.16479492 22.15625 C-5.17990003 20.4722736 -5.20038546 18.78833665 -5.22631836 17.10449219 C-5.26262721 14.68675007 -5.27970847 12.26952708 -5.29296875 9.8515625 C-5.30845261 9.0963028 -5.32393646 8.34104309 -5.33988953 7.56289673 C-5.34057617 5.43994141 -5.34057617 5.43994141 -5 2 C-2 0 -2 0 0 0 Z " fill="#BF1224" transform="translate(289,183)"/>
<path d="M0 0 C2 2 2 2 2.3125 4.9375 C2 8 2 8 0.7734375 9.6484375 C-1.44245455 11.33720105 -2.92892532 11.48760328 -5.6875 11.6875 C-6.89986328 11.78611328 -6.89986328 11.78611328 -8.13671875 11.88671875 C-8.75160156 11.92410156 -9.36648438 11.96148437 -10 12 C-10 12.66 -10 13.32 -10 14 C-4.555 13.505 -4.555 13.505 1 13 C1 14.98 1 16.96 1 19 C-0.32 19.33 -1.64 19.66 -3 20 C-2.67 19.34 -2.34 18.68 -2 18 C-1.34 18 -0.68 18 0 18 C0 17.01 0 16.02 0 15 C-3.63 15 -7.26 15 -11 15 C-11 13.68 -11 12.36 -11 11 C-9.68 11 -8.36 11 -7 11 C-7 10.34 -7 9.68 -7 9 C-8.32 8.67 -9.64 8.34 -11 8 C-11.33 6.35 -11.66 4.7 -12 3 C-10.35 3 -8.7 3 -7 3 C-7.99 3.33 -8.98 3.66 -10 4 C-10 4.99 -10 5.98 -10 7 C-8.68 7 -7.36 7 -6 7 C-6 6.01 -6 5.02 -6 4 C-4.35 4.33 -2.7 4.66 -1 5 C-1.99 5.495 -1.99 5.495 -3 6 C-3 6.66 -3 7.32 -3 8 C-2.01 8.33 -1.02 8.66 0 9 C0 6.03 0 3.06 0 0 Z " fill="#D4C22E" transform="translate(479,142)"/>
<path d="M0 0 C0.90105469 0.01804688 1.80210937 0.03609375 2.73046875 0.0546875 C3.41753906 0.07789063 4.10460937 0.10109375 4.8125 0.125 C5.1425 1.445 5.4725 2.765 5.8125 4.125 C2.5125 4.455 -0.7875 4.785 -4.1875 5.125 C-4.1875 8.095 -4.1875 11.065 -4.1875 14.125 C-7.1875 14.125 -7.1875 14.125 -8.875 12.875 C-10.1875 11.125 -10.1875 11.125 -10.1875 7.125 C-9.1975 6.795 -8.2075 6.465 -7.1875 6.125 C-7.1875 5.795 -7.1875 5.465 -7.1875 5.125 C-8.5075 4.795 -9.8275 4.465 -11.1875 4.125 C-10.1975 4.125 -9.2075 4.125 -8.1875 4.125 C-8.1875 3.465 -8.1875 2.805 -8.1875 2.125 C-4.87379 -0.08414 -3.8428979 -0.09981553 0 0 Z " fill="#E1CC0B" transform="translate(513.1875,140.875)"/>
<path d="M0 0 C0 0.99 0 1.98 0 3 C-1.32 2.67 -2.64 2.34 -4 2 C-4 2.99 -4 3.98 -4 5 C-5.98 5 -7.96 5 -10 5 C-10 4.34 -10 3.68 -10 3 C-13.29075996 3.37904208 -13.29075996 3.37904208 -16 5 C-16.23427778 7.01594582 -16.41336124 9.038474 -16.5625 11.0625 C-16.68818359 12.71958984 -16.68818359 12.71958984 -16.81640625 14.41015625 C-16.87699219 15.26480469 -16.93757812 16.11945313 -17 17 C-16.34 17 -15.68 17 -15 17 C-14.67 18.32 -14.34 19.64 -14 21 C-17 20 -17 20 -18.1875 17.9375 C-19.61895104 12.76225392 -19.54813564 8.64440691 -17.875 3.625 C-16 1 -16 1 -13.4375 -0.4375 C-8.81953608 -1.19316682 -4.60536948 -0.67351253 0 0 Z " fill="#DECE22" transform="translate(568,140)"/>
<path d="M0 0 C0.66 1.32 1.32 2.64 2 4 C0.33333333 4 -1.33333333 4 -3 4 C-2.67 5.98 -2.34 7.96 -2 10 C-0.68 10.33 0.64 10.66 2 11 C2.33 8.03 2.66 5.06 3 2 C3.66 2 4.32 2 5 2 C5 5.3 5 8.6 5 12 C6.32 12.33 7.64 12.66 9 13 C6.69 13.33 4.38 13.66 2 14 C2.33 15.32 2.66 16.64 3 18 C-0.65316671 16.75023244 -1.78065836 16.32901247 -4 13 C-4.1953125 10.30078125 -4.1953125 10.30078125 -4.125 7.3125 C-4.10695313 6.31863281 -4.08890625 5.32476562 -4.0703125 4.30078125 C-4.04710937 3.54152344 -4.02390625 2.78226563 -4 2 C-2.68 2 -1.36 2 0 2 C0 1.34 0 0.68 0 0 Z " fill="#DECA1D" transform="translate(506,144)"/>
<path d="M0 0 C-1.32 0.33 -2.64 0.66 -4 1 C-4.33 2.32 -4.66 3.64 -5 5 C-3.02 5 -1.04 5 1 5 C1.02687279 6.81242052 1.04633715 8.62495233 1.0625 10.4375 C1.07410156 11.44683594 1.08570313 12.45617187 1.09765625 13.49609375 C1 16 1 16 0 17 C-1.66617115 17.04063832 -3.33388095 17.042721 -5 17 C-5.33 14.03 -5.66 11.06 -6 8 C-7.98 8.33 -9.96 8.66 -12 9 C-11.60404157 7.51515588 -11.18249294 6.0371169 -10.75 4.5625 C-10.40195312 3.32693359 -10.40195312 3.32693359 -10.046875 2.06640625 C-9 0 -9 0 -7.0625 -0.8125 C-4.54043829 -1.04177834 -2.44617392 -0.61154348 0 0 Z M-4 6 C-4 9.3 -4 12.6 -4 16 C-2.68 16 -1.36 16 0 16 C0 12.7 0 9.4 0 6 C-1.32 6 -2.64 6 -4 6 Z " fill="#D7C421" transform="translate(448,140)"/>
<path d="M0 0 C0.66 0.33 1.32 0.66 2 1 C1.67 2.98 1.34 4.96 1 7 C-1.97 7 -4.94 7 -8 7 C-8.33 11.29 -8.66 15.58 -9 20 C-5.7 19.67 -2.4 19.34 1 19 C1.33 21.64 1.66 24.28 2 27 C-8.55808656 28.33257403 -8.55808656 28.33257403 -13 27 C-13 26.67 -13 26.34 -13 26 C-8.71 26 -4.42 26 0 26 C0 24.35 0 22.7 0 21 C-3.3 21 -6.6 21 -10 21 C-10 15.39 -10 9.78 -10 4 C-6.7 4 -3.4 4 0 4 C0 2.68 0 1.36 0 0 Z " fill="#D5C73A" transform="translate(407,135)"/>
<path d="M0 0 C1.65 0.33 3.3 0.66 5 1 C5 3.31 5 5.62 5 8 C2.89651926 8.19504458 0.79217415 8.38078496 -1.3125 8.5625 C-2.48425781 8.66691406 -3.65601563 8.77132812 -4.86328125 8.87890625 C-8 9 -8 9 -11 8 C-10.67 6.68 -10.34 5.36 -10 4 C-6.7 4.33 -3.4 4.66 0 5 C0 3.35 0 1.7 0 0 Z " fill="#DFCC11" transform="translate(540,159)"/>
<path d="M0 0 C5.94 0 11.88 0 18 0 C18 1.32 18 2.64 18 4 C14.7 4.66 11.4 5.32 8 6 C8 5.34 8 4.68 8 4 C5.36 4 2.72 4 0 4 C0 2.68 0 1.36 0 0 Z " fill="#E1CC0C" transform="translate(483,137)"/>
<path d="M0 0 C1.65 0 3.3 0 5 0 C6.2077558 3.62326739 5.54311128 4.64146369 4 8 C4.66 8.33 5.32 8.66 6 9 C5.4409112 12.24271506 4.5867822 13.93057424 2 16 C1.34 16 0.68 16 0 16 C0 10.72 0 5.44 0 0 Z " fill="#E1CD0C" transform="translate(639,141)"/>
<path d="M0 0 C0.33 0 0.66 0 1 0 C1.42780749 5.21925134 1.42780749 5.21925134 1 8 C-1.92824449 10.83950981 -3.74061349 10.98724329 -7.8125 11.1875 C-9.3903125 11.0946875 -9.3903125 11.0946875 -11 11 C-11.33 11.66 -11.66 12.32 -12 13 C-12 12.01 -12 11.02 -12 10 C-9.69 10 -7.38 10 -5 10 C-5 9.34 -5 8.68 -5 8 C-6.98 8 -8.96 8 -11 8 C-11 7.34 -11 6.68 -11 6 C-9.35 6 -7.7 6 -6 6 C-6 5.01 -6 4.02 -6 3 C-7.65 3 -9.3 3 -11 3 C-9.1875 1.9375 -9.1875 1.9375 -7 1 C-6.01 1.33 -5.02 1.66 -4 2 C-4 2.99 -4 3.98 -4 5 C-0.75150023 3.27773504 -0.75150023 3.27773504 0 0 Z " fill="#D4C127" transform="translate(633,143)"/>
<path d="M0 0 C0.33 0 0.66 0 1 0 C1.33 4.62 1.66 9.24 2 14 C-0.31 14 -2.62 14 -5 14 C-6 13 -6 13 -6.09765625 10.49609375 C-6.08605469 9.48675781 -6.07445312 8.47742188 -6.0625 7.4375 C-6.05347656 6.42558594 -6.04445313 5.41367188 -6.03515625 4.37109375 C-6.02355469 3.58863281 -6.01195312 2.80617187 -6 2 C-5.67 2 -5.34 2 -5 2 C-5 3.65 -5 5.3 -5 7 C-1.67098753 4.78065836 -1.24976756 3.65316671 0 0 Z " fill="#DDC922" transform="translate(596,148)"/>
<path d="M0 0 C2.64 0 5.28 0 8 0 C8 9.57 8 19.14 8 29 C7.67 29 7.34 29 7 29 C5.79515278 23.36473035 5.8870357 17.85463885 5.9375 12.125 C5.94201172 11.15046875 5.94652344 10.1759375 5.95117188 9.171875 C5.96289094 6.78118566 5.97929781 4.3906256 6 2 C4.02 2 2.04 2 0 2 C0 3.65 0 5.3 0 7 C-0.33 7 -0.66 7 -1 7 C-1.04254356 5.00045254 -1.04080783 2.99958364 -1 1 C-0.67 0.67 -0.34 0.34 0 0 Z " fill="#DFCC46" transform="translate(449,133)"/>
<path d="M0 0 C1.21236328 0.01353516 1.21236328 0.01353516 2.44921875 0.02734375 C3.37154297 0.04474609 3.37154297 0.04474609 4.3125 0.0625 C4.6425 1.7125 4.9725 3.3625 5.3125 5.0625 C0.12040596 5.27442221 -3.814239 4.6537689 -8.6875 3.0625 C-9.3475 6.6925 -10.0075 10.3225 -10.6875 14.0625 C-11.3475 13.7325 -12.0075 13.4025 -12.6875 13.0625 C-12.19844891 5.72673358 -12.19844891 5.72673358 -9.8125 2.625 C-6.54221903 0.22038164 -3.9379817 -0.0570722 0 0 Z " fill="#DBCA21" transform="translate(401.6875,133.9375)"/>
<path d="M0 0 C6.93 0 13.86 0 21 0 C21 2.31 21 4.62 21 7 C19.02 7 17.04 7 15 7 C16.32 6.67 17.64 6.34 19 6 C19 4.68 19 3.36 19 2 C13.06 2 7.12 2 1 2 C1 3.32 1 4.64 1 6 C2.98 6 4.96 6 7 6 C7 6.33 7 6.66 7 7 C4.69 7 2.38 7 0 7 C0 4.69 0 2.38 0 0 Z " fill="#D6C53B" transform="translate(482,135)"/>
<path d="M0 0 C2.0625 0.4375 2.0625 0.4375 4 1 C4.625 2.8125 4.625 2.8125 5 5 C4.01 6.485 4.01 6.485 3 8 C3.66 8.33 4.32 8.66 5 9 C4 12 3 15 2 18 C-0.83293634 15.16706366 -0.49317603 12.2427167 -0.6875 8.4375 C-0.73455078 7.73947266 -0.78160156 7.04144531 -0.83007812 6.32226562 C-0.93491375 4.55037178 -0.97276011 2.77478345 -1 1 C-0.67 0.67 -0.34 0.34 0 0 Z " fill="#E1CC0A" transform="translate(603,141)"/>
<path d="M0 0 C0.33 1.98 0.66 3.96 1 6 C-4.73303505 7.57300962 -9.15659442 8.24327778 -15 7 C-15 6.67 -15 6.34 -15 6 C-11.535 5.505 -11.535 5.505 -8 5 C-8 4.34 -8 3.68 -8 3 C-8.99 2.34 -9.98 1.68 -11 1 C-9.54182203 0.83197949 -8.0834516 0.66562857 -6.625 0.5 C-5.81289063 0.4071875 -5.00078125 0.314375 -4.1640625 0.21875 C-2 0 -2 0 0 0 Z " fill="#DECC15" transform="translate(633,155)"/>
<path d="M0 0 C3 2 3 2 3.6171875 4.13671875 C4.20762596 9.97848108 4.4695623 14.1017944 1 19 C-3.41275728 21.11847511 -7.16906969 21.14508307 -11.9375 20.3125 C-15 19 -15 19 -17 16 C-16.175 16.33 -15.35 16.66 -14.5 17 C-9.50091354 18.42831042 -5.01276235 18.67092078 0 17 C0 16.01 0 15.02 0 14 C0.66 14 1.32 14 2 14 C1.85866501 12.22880197 1.71176792 10.45804713 1.5625 8.6875 C1.48128906 7.70136719 1.40007812 6.71523437 1.31640625 5.69921875 C1.08187441 2.90624401 1.08187441 2.90624401 0 0 Z " fill="#D6C736" transform="translate(429,142)"/>
<path d="M0 0 C1.258125 -0.020625 2.51625 -0.04125 3.8125 -0.0625 C4.52019531 -0.07410156 5.22789062 -0.08570313 5.95703125 -0.09765625 C8 0 8 0 11 1 C11 3.97 11 6.94 11 10 C9.68 9.67 8.36 9.34 7 9 C7.33 8.01 7.66 7.02 8 6 C7.236875 5.71125 6.47375 5.4225 5.6875 5.125 C3 4 3 4 0 2 C0 1.34 0 0.68 0 0 Z " fill="#E2CB0D" transform="translate(468,141)"/>
<path d="M0 0 C0.33 0 0.66 0 1 0 C1.42780749 5.21925134 1.42780749 5.21925134 1 8 C-1.92824449 10.83950981 -3.74061349 10.98724329 -7.8125 11.1875 C-9.3903125 11.0946875 -9.3903125 11.0946875 -11 11 C-11.33 11.66 -11.66 12.32 -12 13 C-12 12.01 -12 11.02 -12 10 C-10.68 10 -9.36 10 -8 10 C-8 9.34 -8 8.68 -8 8 C-8.99 8 -9.98 8 -11 8 C-11 7.34 -11 6.68 -11 6 C-10.360625 5.87625 -9.72125 5.7525 -9.0625 5.625 C-8.381875 5.41875 -7.70125 5.2125 -7 5 C-6.67 4.34 -6.34 3.68 -6 3 C-5.34 3 -4.68 3 -4 3 C-3.67 4.32 -3.34 5.64 -3 7 C-2.34 7 -1.68 7 -1 7 C-0.67 4.69 -0.34 2.38 0 0 Z " fill="#D3C228" transform="translate(569,143)"/>
<path d="M0 0 C0.99 0.33 1.98 0.66 3 1 C2.93993922 2.45947705 2.8511311 3.91779272 2.75 5.375 C2.70359375 6.18710938 2.6571875 6.99921875 2.609375 7.8359375 C2 10 2 10 0.078125 11.3515625 C-2 12 -2 12 -4 11 C-3.91291331 9.54054712 -3.80473093 8.08234132 -3.6875 6.625 C-3.62949219 5.81289062 -3.57148437 5.00078125 -3.51171875 4.1640625 C-3 2 -3 2 0 0 Z M-1 8 C0 10 0 10 0 10 Z " fill="#CCE4AA" transform="translate(603,178)"/>
<path d="M0 0 C1.32 0 2.64 0 4 0 C3.85892253 1.45880109 3.71197585 2.91703551 3.5625 4.375 C3.48128906 5.18710938 3.40007813 5.99921875 3.31640625 6.8359375 C3 9 3 9 2 11 C0.68 11 -0.64 11 -2 11 C-1.85957123 9.35369672 -1.71250671 7.70795821 -1.5625 6.0625 C-1.48128906 5.14597656 -1.40007813 4.22945312 -1.31640625 3.28515625 C-1 1 -1 1 0 0 Z " fill="#D6F3A9" transform="translate(613,181)"/>
<path d="M0 0 C3.875 1.75 3.875 1.75 5 4 C4.01 5.32 3.02 6.64 2 8 C1.67 7.01 1.34 6.02 1 5 C-1.08304538 4.94581674 -3.16649768 4.90712449 -5.25 4.875 C-6.41015625 4.85179687 -7.5703125 4.82859375 -8.765625 4.8046875 C-11.82786046 4.9896051 -13.44202751 5.39176977 -16 7 C-15.67 6.01 -15.34 5.02 -15 4 C-10.55867468 1.99082902 -6.80307382 2 -2 2 C-1.34 1.34 -0.68 0.68 0 0 Z M-1 5 C-0.01 5.495 -0.01 5.495 1 6 C0.34 6.66 -0.32 7.32 -1 8 C-1 7.01 -1 6.02 -1 5 Z " fill="#DCCC33" transform="translate(543,137)"/>
<path d="M0 0 C0.66 0 1.32 0 2 0 C2 0.66 2 1.32 2 2 C4.31 2 6.62 2 9 2 C9.02687279 3.81242052 9.04633715 5.62495233 9.0625 7.4375 C9.07410156 8.44683594 9.08570313 9.45617187 9.09765625 10.49609375 C9 13 9 13 8 14 C6.00041636 14.04080783 3.99954746 14.04254356 2 14 C0.79727181 11.59454362 0.89928528 10.05003047 0.9375 7.375 C0.94652344 6.55773437 0.95554687 5.74046875 0.96484375 4.8984375 C0.97644531 4.27195313 0.98804688 3.64546875 1 3 C0.34 3 -0.32 3 -1 3 C-0.67 2.01 -0.34 1.02 0 0 Z M3 3 C3 6.3 3 9.6 3 13 C4.65 13 6.3 13 8 13 C8 9.7 8 6.4 8 3 C6.35 3 4.7 3 3 3 Z " fill="#CEBD25" transform="translate(416,143)"/>
<path d="M0 0 C2.125 0.375 2.125 0.375 4 1 C3.67 2.65 3.34 4.3 3 6 C2.34 6 1.68 6 1 6 C0.67 6.66 0.34 7.32 0 8 C0.99 8.33 1.98 8.66 3 9 C2.67 9.66 2.34 10.32 2 11 C0.35 11 -1.3 11 -3 11 C-2.88590407 9.54077307 -2.75834456 8.08259402 -2.625 6.625 C-2.55539062 5.81289062 -2.48578125 5.00078125 -2.4140625 4.1640625 C-2 2 -2 2 0 0 Z " fill="#D2EBA1" transform="translate(535,178)"/>
<path d="M0 0 C0.33 1.98 0.66 3.96 1 6 C-9.37357631 8.48063781 -9.37357631 8.48063781 -15 7 C-15 6.67 -15 6.34 -15 6 C-14.28972656 5.95101562 -13.57945312 5.90203125 -12.84765625 5.8515625 C-11.92855469 5.77679688 -11.00945313 5.70203125 -10.0625 5.625 C-9.14597656 5.55539063 -8.22945312 5.48578125 -7.28515625 5.4140625 C-6.15400391 5.20910156 -6.15400391 5.20910156 -5 5 C-4.67 4.34 -4.34 3.68 -4 3 C-6.31 2.67 -8.62 2.34 -11 2 C-11 1.67 -11 1.34 -11 1 C-9.54182203 0.83197949 -8.0834516 0.66562857 -6.625 0.5 C-5.81289063 0.4071875 -5.00078125 0.314375 -4.1640625 0.21875 C-2 0 -2 0 0 0 Z " fill="#D6C92F" transform="translate(569,155)"/>
<path d="M0 0 C-0.33 0.99 -0.66 1.98 -1 3 C-1.99 3 -2.98 3 -4 3 C-4 14.22 -4 25.44 -4 37 C-4.33 37 -4.66 37 -5 37 C-5.07404737 32.05211686 -5.12855246 27.10455476 -5.16479492 22.15625 C-5.17990003 20.4722736 -5.20038546 18.78833665 -5.22631836 17.10449219 C-5.26262721 14.68675007 -5.27970847 12.26952708 -5.29296875 9.8515625 C-5.30845261 9.0963028 -5.32393646 8.34104309 -5.33988953 7.56289673 C-5.34057617 5.43994141 -5.34057617 5.43994141 -5 2 C-2 0 -2 0 0 0 Z " fill="#A31827" transform="translate(289,183)"/>
<path d="M0 0 C1.65 0 3.3 0 5 0 C4.88637738 1.4800841 4.75877092 2.95910074 4.625 4.4375 C4.55539062 5.26121094 4.48578125 6.08492187 4.4140625 6.93359375 C4.27742187 7.61550781 4.14078125 8.29742187 4 9 C3.01 9.495 3.01 9.495 2 10 C1.67 9.01 1.34 8.02 1 7 C0.01 7.33 -0.98 7.66 -2 8 C-1.34 5.36 -0.68 2.72 0 0 Z " fill="#D5F0A7" transform="translate(625,181)"/>
<path d="M0 0 C0.33 0 0.66 0 1 0 C1 1.98 1 3.96 1 6 C-0.546875 5.9690625 -0.546875 5.9690625 -2.125 5.9375 C-5.88799732 5.87924349 -5.88799732 5.87924349 -9.0625 6.625 C-12.56657309 7.07232848 -14.75902529 6.3118231 -18 5 C-18 4.34 -18 3.68 -18 3 C-16.88625 3.185625 -15.7725 3.37125 -14.625 3.5625 C-11.17431139 4.31680657 -11.17431139 4.31680657 -9 3 C-9 3.66 -9 4.32 -9 5 C-8.34 5 -7.68 5 -7 5 C-7 4.34 -7 3.68 -7 3 C-6.21625 3.061875 -5.4325 3.12375 -4.625 3.1875 C-3.75875 3.125625 -2.8925 3.06375 -2 3 C-1.34 2.01 -0.68 1.02 0 0 Z " fill="#DDCA27" transform="translate(455,156)"/>
<path d="M0 0 C0.99 0 1.98 0 3 0 C3 1.65 3 3.3 3 5 C2.01 5.33 1.02 5.66 0 6 C0 6.66 0 7.32 0 8 C0.66 8 1.32 8 2 8 C1.67 8.99 1.34 9.98 1 11 C-0.32 11 -1.64 11 -3 11 C-2.88590407 9.54077307 -2.75834456 8.08259402 -2.625 6.625 C-2.55539062 5.81289062 -2.48578125 5.00078125 -2.4140625 4.1640625 C-2 2 -2 2 0 0 Z " fill="#DEF0BE" transform="translate(392,178)"/>
<path d="M0 0 C0.66 0 1.32 0 2 0 C1.67 1.32 1.34 2.64 1 4 C1.66 4 2.32 4 3 4 C3.36458333 8.49652778 3.36458333 8.49652778 1.6875 10.8125 C0 12 0 12 -3 12 C-2.69230293 10.18667846 -2.37870936 8.37435655 -2.0625 6.5625 C-1.80146484 5.04849609 -1.80146484 5.04849609 -1.53515625 3.50390625 C-1 1 -1 1 0 0 Z " fill="#D3EDAA" transform="translate(446,177)"/>
<path d="M0 0 C0.99 0.33 1.98 0.66 3 1 C2.34 3.97 1.68 6.94 1 10 C-0.65 10.33 -2.3 10.66 -4 11 C-4 8.69 -4 6.38 -4 4 C-2.68 3.67 -1.36 3.34 0 3 C0 2.01 0 1.02 0 0 Z M-2 5 C-1 8 -1 8 -1 8 Z " fill="#D3EBA5" transform="translate(560,178)"/>
<path d="M0 0 C0.99 0.33 1.98 0.66 3 1 C-1.29 3.64 -5.58 6.28 -10 9 C-10.33 8.34 -10.66 7.68 -11 7 C-10.34 7 -9.68 7 -9 7 C-9 6.01 -9 5.02 -9 4 C-9.66 4 -10.32 4 -11 4 C-10.67 3.01 -10.34 2.02 -10 1 C-9.0925 1.20625 -8.185 1.4125 -7.25 1.625 C-3.76861938 2.02669776 -2.9317167 1.61749887 0 0 Z " fill="#B0192A" transform="translate(348,178)"/>
<path d="M0 0 C0.33 0 0.66 0 1 0 C1.56364659 10.75103676 1.56364659 10.75103676 -2 15 C-4.40545638 16.20272819 -5.94996953 16.10071472 -8.625 16.0625 C-9.85089844 16.04896484 -9.85089844 16.04896484 -11.1015625 16.03515625 C-11.72804688 16.02355469 -12.35453125 16.01195312 -13 16 C-13 15.67 -13 15.34 -13 15 C-10.36 15 -7.72 15 -5 15 C-4.67 13.35 -4.34 11.7 -4 10 C-3.01 9.67 -2.02 9.34 -1 9 C-0.67 6.03 -0.34 3.06 0 0 Z " fill="#D7C72F" transform="translate(523,146)"/>
<path d="M0 0 C2.05619793 2.31322267 2.95899829 3.55923162 3.25 6.6875 C3 9 3 9 2 10 C0.00041636 10.04080783 -2.00045254 10.04254356 -4 10 C-2.625 8.5 -2.625 8.5 -1 7 C-0.34 7 0.32 7 1 7 C0.566875 6.566875 0.13375 6.13375 -0.3125 5.6875 C-1.875 4.125 -3.4375 2.5625 -5 1 C-3.35 0.67 -1.7 0.34 0 0 Z " fill="#AE1A2E" transform="translate(323,154)"/>
<path d="M0 0 C0.66 0 1.32 0 2 0 C1.52433594 0.79664063 1.52433594 0.79664063 1.0390625 1.609375 C-0.2370349 4.54535848 -0.41707021 7.06174329 -0.625 10.25 C-0.69976563 11.32765625 -0.77453125 12.4053125 -0.8515625 13.515625 C-0.90054688 14.33546875 -0.94953125 15.1553125 -1 16 C-0.34 16 0.32 16 1 16 C1.33 17.32 1.66 18.64 2 20 C-1 19 -1 19 -2.1875 16.9375 C-3.67483086 11.5602269 -3.66758278 7.55769316 -1.5 2.5 C-1.005 1.675 -0.51 0.85 0 0 Z " fill="#D3C43B" transform="translate(552,141)"/>
<path d="M0 0 C0.66 0.33 1.32 0.66 2 1 C0.02 1.99 0.02 1.99 -2 3 C-1.67 3.99 -1.34 4.98 -1 6 C-0.34 5.67 0.32 5.34 1 5 C1 6.65 1 8.3 1 10 C1.99 10.33 2.98 10.66 4 11 C3.67 11.66 3.34 12.32 3 13 C0.13275314 12.42655063 -0.8614515 12.1385485 -3 10 C-3.30078125 8.125 -3.30078125 8.125 -3.3125 6 C-3.32925781 5.29875 -3.34601562 4.5975 -3.36328125 3.875 C-3.24339844 3.25625 -3.12351562 2.6375 -3 2 C-2.01 1.34 -1.02 0.68 0 0 Z " fill="#DEC81F" transform="translate(529,142)"/>
<path d="M0 0 C2.0625 0.4375 2.0625 0.4375 4 1 C3.34 3.31 2.68 5.62 2 8 C-0.475 7.01 -0.475 7.01 -3 6 C-1.125 1.125 -1.125 1.125 0 0 Z M0 2 C1 4 1 4 1 4 Z " fill="#D7F1AB" transform="translate(434,181)"/>
<path d="M0 0 C0.33 0.99 0.66 1.98 1 3 C0.34 3 -0.32 3 -1 3 C-0.67 4.98 -0.34 6.96 0 9 C-1.32 9.33 -2.64 9.66 -4 10 C-4.33 7.36 -4.66 4.72 -5 2 C-2 0 -2 0 0 0 Z " fill="#D4EEA9" transform="translate(494,179)"/>
<path d="M0 0 C2.0625 0.4375 2.0625 0.4375 4 1 C3.34 3.31 2.68 5.62 2 8 C-0.475 7.01 -0.475 7.01 -3 6 C-1.125 1.125 -1.125 1.125 0 0 Z M0 2 C1 4 1 4 1 4 Z " fill="#D2EEA5" transform="translate(480,181)"/>
<path d="M0 0 C0.99 0 1.98 0 3 0 C3.125 2.875 3.125 2.875 3 6 C2.34 6.66 1.68 7.32 1 8 C0.01 8 -0.98 8 -2 8 C-1.125 1.125 -1.125 1.125 0 0 Z " fill="#D0ECA7" transform="translate(546,181)"/>
<path d="M0 0 C0.99 0 1.98 0 3 0 C3.125 2.875 3.125 2.875 3 6 C2.34 6.66 1.68 7.32 1 8 C0.01 8 -0.98 8 -2 8 C-1.125 1.125 -1.125 1.125 0 0 Z " fill="#D2EEA4" transform="translate(457,181)"/>
<path d="M0 0 C0.99 0 1.98 0 3 0 C2.67 2.31 2.34 4.62 2 7 C0.68 7.33 -0.64 7.66 -2 8 C-2.125 5.125 -2.125 5.125 -2 2 C-1.34 1.34 -0.68 0.68 0 0 Z " fill="#C7E19F" transform="translate(403,181)"/>
<path d="M0 0 C1.32 0 2.64 0 4 0 C3.6875 1.9375 3.6875 1.9375 3 4 C2.01 4.33 1.02 4.66 0 5 C0.99 5 1.98 5 3 5 C3 5.66 3 6.32 3 7 C1.0625 7.5625 1.0625 7.5625 -1 8 C-2 7 -2 7 -2.1875 4.5625 C-2 2 -2 2 0 0 Z " fill="#D5EBAA" transform="translate(638,181)"/>
<path d="M0 0 C1.32 0 2.64 0 4 0 C3.67 2.31 3.34 4.62 3 7 C1.68 7.33 0.36 7.66 -1 8 C-1.125 2.25 -1.125 2.25 0 0 Z " fill="#CAE1A3" transform="translate(502,181)"/>
<path d="M0 0 C0.99 0 1.98 0 3 0 C2.67 2.31 2.34 4.62 2 7 C0.68 7.33 -0.64 7.66 -2 8 C-2.125 5.125 -2.125 5.125 -2 2 C-1.34 1.34 -0.68 0.68 0 0 Z " fill="#D0E8A8" transform="translate(570,181)"/>
<path d="M0 0 C1.65 0.33 3.3 0.66 5 1 C3.36587557 2.70840281 2.13093906 3.93453047 0 5 C0 5.66 0 6.32 0 7 C2.46326712 8.6446674 2.46326712 8.6446674 5 10 C4.67 10.66 4.34 11.32 4 12 C1.5625 11.375 1.5625 11.375 -1 10 C-2.07143765 6.71425787 -2.33973524 4.86066261 -1.0625 1.625 C-0.5365625 0.820625 -0.5365625 0.820625 0 0 Z " fill="#A8192B" transform="translate(161,154)"/>
<path d="M0 0 C0.33 0.66 0.66 1.32 1 2 C0.67 2.66 0.34 3.32 0 4 C0.66 4.33 1.32 4.66 2 5 C1.01 5 0.02 5 -1 5 C-0.67 6.03125 -0.34 7.0625 0 8.125 C0.9715192 11.48426709 1.17116771 14.49106202 1 18 C-1 17 -1 17 -2 14 C-2.11792999 12.35720783 -2.17511674 10.70947306 -2.1875 9.0625 C-2.20167969 8.20785156 -2.21585937 7.35320312 -2.23046875 6.47265625 C-1.98703556 3.86090697 -1.3178268 2.24499348 0 0 Z " fill="#D7C331" transform="translate(462,142)"/>
<path d="M0 0 C3.69876091 1.37287342 6.9514476 3.06355453 10.3125 5.125 C11.19550781 5.66382813 12.07851563 6.20265625 12.98828125 6.7578125 C13.65214844 7.16773438 14.31601562 7.57765625 15 8 C13.09375 8.5859375 13.09375 8.5859375 11 9 C9.5 7.625 9.5 7.625 8 6 C5.89667109 5.28552357 5.89667109 5.28552357 4 5 C4 4.34 4 3.68 4 3 C2.35 2.67 0.7 2.34 -1 2 C-0.67 1.34 -0.34 0.68 0 0 Z " fill="#B0192C" transform="translate(325,126)"/>
<path d="M0 0 C1.32 0 2.64 0 4 0 C3.67 1.65 3.34 3.3 3 5 C2.34 5 1.68 5 1 5 C0.67 5.99 0.34 6.98 0 8 C-0.66 8 -1.32 8 -2 8 C-1.34 5.36 -0.68 2.72 0 0 Z " fill="#D3EEA8" transform="translate(468,181)"/>
<path d="M0 0 C0.66 0 1.32 0 2 0 C2 3.3 2 6.6 2 10 C3.32 10.33 4.64 10.66 6 11 C3.69 11.33 1.38 11.66 -1 12 C-0.67 8.04 -0.34 4.08 0 0 Z " fill="#D9C633" transform="translate(509,146)"/>
<path d="M0 0 C0.33 0.99 0.66 1.98 1 3 C1.45375 2.505 1.9075 2.01 2.375 1.5 C4 0 4 0 6 0 C5.01 3.3 4.02 6.6 3 10 C2.34 9.67 1.68 9.34 1 9 C0.5859375 6.93359375 0.5859375 6.93359375 0.375 4.4375 C0.30023438 3.61121094 0.22546875 2.78492188 0.1484375 1.93359375 C0.09945313 1.29550781 0.05046875 0.65742188 0 0 Z " fill="#E2C721" transform="translate(410,148)"/>
<path d="M0 0 C-3.63 2.31 -7.26 4.62 -11 7 C-11 5.68 -11 4.36 -11 3 C-9.68 3 -8.36 3 -7 3 C-6.67 2.01 -6.34 1.02 -6 0 C-3 -1 -3 -1 0 0 Z " fill="#A51A2C" transform="translate(304,208)"/>
<path d="M0 0 C0.33 0 0.66 0 1 0 C0.85831863 1.43791516 0.71148957 2.8753237 0.5625 4.3125 C0.48128906 5.11300781 0.40007812 5.91351563 0.31640625 6.73828125 C0 9 0 9 -1 12 C-1.66 12 -2.32 12 -3 12 C-2.88541307 10.56163249 -2.75790884 9.12429034 -2.625 7.6875 C-2.55539062 6.88699219 -2.48578125 6.08648437 -2.4140625 5.26171875 C-2 3 -2 3 0 0 Z " fill="#D5ECAC" transform="translate(425,177)"/>
<path d="M0 0 C0.66 0.66 1.32 1.32 2 2 C1.86328125 4.12890625 1.86328125 4.12890625 1.3125 6.5625 C1.14363281 7.36816406 0.97476562 8.17382812 0.80078125 9.00390625 C0.53652344 9.66261719 0.27226562 10.32132813 0 11 C-0.99 11.33 -1.98 11.66 -3 12 C-2.69230293 10.18667846 -2.37870936 8.37435655 -2.0625 6.5625 C-1.80146484 5.04849609 -1.80146484 5.04849609 -1.53515625 3.50390625 C-1 1 -1 1 0 0 Z " fill="#D7ECAE" transform="translate(415,177)"/>
<path d="M0 0 C0.99 0.33 1.98 0.66 3 1 C2.67 1.66 2.34 2.32 2 3 C3.65 3 5.3 3 7 3 C7 3.33 7 3.66 7 4 C5.35 4 3.7 4 2 4 C1.67 5.32 1.34 6.64 1 8 C0.67 7.01 0.34 6.02 0 5 C-0.99 5 -1.98 5 -3 5 C-2.01 3.35 -1.02 1.7 0 0 Z " fill="#DCC617" transform="translate(556,142)"/>
<path d="M0 0 C3.94876098 0.56410871 6.75634176 1.65735794 10 4 C10.33 4.99 10.66 5.98 11 7 C6.89188572 5.55007731 3.53144334 3.54592427 0 1 C0 0.67 0 0.34 0 0 Z " fill="#AA1B2C" transform="translate(289,137)"/>
<path d="M0 0 C0.33 0.99 0.66 1.98 1 3 C0.01 3.66 -0.98 4.32 -2 5 C-2.66 4.67 -3.32 4.34 -4 4 C-4 4.66 -4 5.32 -4 6 C-5.65 6.66 -7.3 7.32 -9 8 C-7.82255415 4.46766245 -7.04394359 4.13691925 -3.9375 2.3125 C-3.20402344 1.87550781 -2.47054687 1.43851562 -1.71484375 0.98828125 C-1.14894531 0.66214844 -0.58304688 0.33601563 0 0 Z " fill="#B0192C" transform="translate(168,119)"/>
<path d="M0 0 C1.32 0 2.64 0 4 0 C3.42415568 2.38564077 2.77772405 4.66682784 2 7 C1.34 7 0.68 7 0 7 C-0.38133299 5.0085944 -0.71325582 3.00720923 -1 1 C-0.67 0.67 -0.34 0.34 0 0 Z " fill="#D0EF9F" transform="translate(613,181)"/>
<path d="M0 0 C0.33 1.98 0.66 3.96 1 6 C-0.32 6.33 -1.64 6.66 -3 7 C-2.67 5.35 -2.34 3.7 -2 2 C-4.97 2 -7.94 2 -11 2 C-11 1.67 -11 1.34 -11 1 C-9.54182203 0.83197949 -8.0834516 0.66562857 -6.625 0.5 C-5.81289063 0.4071875 -5.00078125 0.314375 -4.1640625 0.21875 C-2 0 -2 0 0 0 Z " fill="#D1BD3F" transform="translate(633,155)"/>
<path d="M0 0 C2.64 0.33 5.28 0.66 8 1 C8.66 2.65 9.32 4.3 10 6 C6.00499382 4.6302836 3.19990508 2.74277578 0 0 Z " fill="#AA1A2C" transform="translate(131,177)"/>
<path d="M0 0 C0.66 0 1.32 0 2 0 C2 0.66 2 1.32 2 2 C2.99 2.33 3.98 2.66 5 3 C3.35 4.65 1.7 6.3 0 8 C-0.99 7.67 -1.98 7.34 -3 7 C-2.01 6.34 -1.02 5.68 0 5 C0.25030977 2.41619823 0.25030977 2.41619823 0 0 Z " fill="#B11929" transform="translate(194,131)"/>
<path d="M0 0 C1.98 0 3.96 0 6 0 C6 0.99 6 1.98 6 3 C3.29120665 4.35439668 0.99066732 4.06501451 -2 4 C-1.34 2.68 -0.68 1.36 0 0 Z " fill="#E0CC0C" transform="translate(473,157)"/>
<path d="M0 0 C0.66 1.32 1.32 2.64 2 4 C0.33333333 4 -1.33333333 4 -3 4 C-3 6.97 -3 9.94 -3 13 C-3.33 13 -3.66 13 -4 13 C-4 9.37 -4 5.74 -4 2 C-2.68 2 -1.36 2 0 2 C0 1.34 0 0.68 0 0 Z " fill="#D7C524" transform="translate(506,144)"/>
<path d="M0 0 C0 2.64 0 5.28 0 8 C-0.99 8.495 -0.99 8.495 -2 9 C-2 7.02 -2 5.04 -2 3 C-3.32 3.33 -4.64 3.66 -6 4 C-3.33333333 0 -3.33333333 0 0 0 Z " fill="#D2C63E" transform="translate(651,139)"/>
<path d="M0 0 C0.66 1.32 1.32 2.64 2 4 C1 5 1 5 -2.5625 5.0625 C-3.696875 5.041875 -4.83125 5.02125 -6 5 C-2.25 1.125 -2.25 1.125 0 0 Z " fill="#B0172A" transform="translate(192,104)"/>
<path d="M0 0 C2.97 1.65 5.94 3.3 9 5 C9 5.66 9 6.32 9 7 C8.01 7 7.02 7 6 7 C6 6.34 6 5.68 6 5 C4.35 4.67 2.7 4.34 1 4 C0.67 2.68 0.34 1.36 0 0 Z " fill="#B5172C" transform="translate(291,104)"/>
<path d="M0 0 C1.98 0 3.96 0 6 0 C6 2.31 6 4.62 6 7 C5.34 7 4.68 7 4 7 C4 5.35 4 3.7 4 2 C2.68 2 1.36 2 0 2 C0 1.34 0 0.68 0 0 Z " fill="#D9CA3B" transform="translate(591,133)"/>
<path d="M0 0 C0.66 0.33 1.32 0.66 2 1 C1.67 2.65 1.34 4.3 1 6 C-2.10551666 6 -3.35261084 5.4606285 -6 4 C-4.02 2.68 -2.04 1.36 0 0 Z " fill="#B1192A" transform="translate(182,110)"/>
<path d="M0 0 C0.33 0.66 0.66 1.32 1 2 C3.52733235 2.65555119 3.52733235 2.65555119 6 3 C5.67 3.99 5.34 4.98 5 6 C3.35 6 1.7 6 0 6 C0 4.02 0 2.04 0 0 Z " fill="#D5ECAE" transform="translate(532,183)"/>
<path d="M0 0 C0.99 0.33 1.98 0.66 3 1 C2.67 2.65 2.34 4.3 2 6 C1.01 6 0.02 6 -1 6 C-1.33 4.35 -1.66 2.7 -2 1 C-1.34 0.67 -0.68 0.34 0 0 Z " fill="#DBF3AD" transform="translate(603,178)"/>
<path d="M0 0 C1.11375 0.185625 2.2275 0.37125 3.375 0.5625 C6.82568861 1.31680657 6.82568861 1.31680657 9 0 C9 0.66 9 1.32 9 2 C9.99 2.33 10.98 2.66 12 3 C7.31034294 4.11658501 4.46236469 3.80619523 0 2 C0 1.34 0 0.68 0 0 Z " fill="#DECA37" transform="translate(437,159)"/>
<path d="M0 0 C0.33 0 0.66 0 1 0 C1.36923077 5.41538462 1.36923077 5.41538462 -0.5 8.375 C-0.995 8.91125 -1.49 9.4475 -2 10 C-3.32 9.67 -4.64 9.34 -6 9 C-5.67 8.34 -5.34 7.68 -5 7 C-3.68 7 -2.36 7 -1 7 C-0.67 4.69 -0.34 2.38 0 0 Z " fill="#CCC22D" transform="translate(545,145)"/>
<path d="M0 0 C0.99 0 1.98 0 3 0 C3 1.65 3 3.3 3 5 C2.01 5.495 2.01 5.495 1 6 C0.67 5.34 0.34 4.68 0 4 C-0.66 4 -1.32 4 -2 4 C-1.34 2.68 -0.68 1.36 0 0 Z " fill="#C9DC9E" transform="translate(392,178)"/>
<path d="M0 0 C0 0.99 0 1.98 0 3 C-1.32 3.33 -2.64 3.66 -4 4 C-4 4.66 -4 5.32 -4 6 C-5.32 5.67 -6.64 5.34 -8 5 C-4.04 2.525 -4.04 2.525 0 0 Z " fill="#AA182C" transform="translate(313,167)"/>
<path d="M0 0 C0.66 0.33 1.32 0.66 2 1 C1.34 2.32 0.68 3.64 0 5 C-1.98 5 -3.96 5 -6 5 C-2.25 1.125 -2.25 1.125 0 0 Z " fill="#B31930" transform="translate(152,129)"/>
<path d="M0 0 C3.79303725 1.00193437 6.71536341 1.81024227 10 4 C10 4.66 10 5.32 10 6 C6.40992874 4.66654496 3.20429093 3.1056769 0 1 C0 0.67 0 0.34 0 0 Z " fill="#A71B2B" transform="translate(157,193)"/>
<path d="M0 0 C0.99 0.33 1.98 0.66 3 1 C2.01 1.99 1.02 2.98 0 4 C0 2.68 0 1.36 0 0 Z " fill="#DBE0C8" transform="translate(580,187)"/>
<path d="M0 0 C0.66 0 1.32 0 2 0 C1.67 1.32 1.34 2.64 1 4 C0.34 3.67 -0.32 3.34 -1 3 C-0.67 2.01 -0.34 1.02 0 0 Z " fill="#E4EDD7" transform="translate(513,187)"/>
<path d="M0 0 C0.99 0 1.98 0 3 0 C3 0.66 3 1.32 3 2 C2.01 1.67 1.02 1.34 0 1 C0 0.67 0 0.34 0 0 Z " fill="#D1D8C1" transform="translate(648,187)"/>
</svg>
