<?xml version="1.0" encoding="UTF-8"?>
<svg version="1.1" xmlns="http://www.w3.org/2000/svg" width="500" height="500">
<path d="M0 0 C6.14190428 0 9.02145538 2.24151257 13.49609375 6.30859375 C15 8 15 8 15 10 C15.66 10 16.32 10 17 10 C18.41235352 11.43359375 18.41235352 11.43359375 20.06640625 13.4375 C24.12214332 18.20722345 28.4878254 22.59989333 32.9375 27 C33.71673828 27.77472656 34.49597656 28.54945313 35.29882812 29.34765625 C37.1969242 31.23410757 39.09733149 33.11816245 41 35 C39.44346929 38.74886556 37.12681671 41.08955008 34.24609375 43.9140625 C32.84133789 45.30238281 32.84133789 45.30238281 31.40820312 46.71875 C30.41831227 47.68785102 29.42807386 48.65659713 28.4375 49.625 C26.49549092 51.53065371 24.55765812 53.44035631 22.62109375 55.3515625 C21.7592749 56.19541504 20.89745605 57.03926758 20.00952148 57.90869141 C17.95795963 59.83637401 17.95795963 59.83637401 17 62 C16.34 62 15.68 62 15 62 C15 62.66 15 63.32 15 64 C12.98828125 65.9453125 12.98828125 65.9453125 10.3125 68.125 C9.00732422 69.21167969 9.00732422 69.21167969 7.67578125 70.3203125 C4.73190676 72.16829211 3.39963285 72.52214728 0 72 C-3.74146016 69.44900444 -5.64595481 67.85873723 -6.5 63.375 C-5.72252056 58.12701377 -2.66842754 55.68525519 1 52 C1.59522461 51.39784668 2.19044922 50.79569336 2.80371094 50.17529297 C7.17518457 45.75581633 11.5768399 41.36771065 16 37 C14.49287699 33.44961928 12.42833908 31.20886613 9.68359375 28.5234375 C8.41418945 27.27046875 8.41418945 27.27046875 7.11914062 25.9921875 C6.23419922 25.12851563 5.34925781 24.26484375 4.4375 23.375 C2.68402618 21.65585815 0.93261425 19.93460987 -0.81640625 18.2109375 C-1.59443604 17.45087402 -2.37246582 16.69081055 -3.17407227 15.90771484 C-5.44347241 13.53666353 -5.93913269 12.4565048 -6.375 9.1875 C-5.87954982 4.9761735 -4.15647263 3.69454981 -1 1 C-0.67 0.67 -0.34 0.34 0 0 Z " fill="#FDF7F5" transform="translate(179,214)"/>
<path d="M0 0 C0.66 0.33 1.32 0.66 2 1 C2 1.66 2 2.32 2 3 C2.66 3 3.32 3 4 3 C4 6.3 4 9.6 4 13 C3.34 13 2.68 13 2 13 C2 13.66 2 14.32 2 15 C0.625 16.625 0.625 16.625 -1 18 C-1.66 18 -2.32 18 -3 18 C-3 18.66 -3 19.32 -3 20 C-3.66 20 -4.32 20 -5 20 C-5 20.66 -5 21.32 -5 22 C-5.66 22 -6.32 22 -7 22 C-7 22.66 -7 23.32 -7 24 C-7.66 24 -8.32 24 -9 24 C-9 24.66 -9 25.32 -9 26 C-9.66 26 -10.32 26 -11 26 C-11.2475 26.5775 -11.495 27.155 -11.75 27.75 C-13.16683317 30.3002997 -14.87627537 32.01785701 -17 34 C-15.9007566 36.56490126 -14.87156808 38.12843192 -12.875 40.125 C-11 42 -11 42 -11 44 C-10.34 44 -9.68 44 -9 44 C-9 44.66 -9 45.32 -9 46 C-8.34 46 -7.68 46 -7 46 C-7 46.66 -7 47.32 -7 48 C-6.34 48 -5.68 48 -5 48 C-5 48.66 -5 49.32 -5 50 C-4.34 50 -3.68 50 -3 50 C-3 50.66 -3 51.32 -3 52 C-2.01 52.33 -1.02 52.66 0 53 C0 53.66 0 54.32 0 55 C0.66 55 1.32 55 2 55 C2 55.66 2 56.32 2 57 C2.66 57 3.32 57 4 57 C4 60.3 4 63.6 4 67 C3.34 67 2.68 67 2 67 C2 67.66 2 68.32 2 69 C-0.37500897 70.55289048 -1.89152359 70.99753463 -4.75 71.0625 C-9.4869635 69.51387732 -12.47980557 66.43763123 -16 63 C-16.57363281 62.47148437 -17.14726563 61.94296875 -17.73828125 61.3984375 C-19 60 -19 60 -19 58 C-19.66 58 -20.32 58 -21 58 C-21 57.34 -21 56.68 -21 56 C-21.556875 55.773125 -22.11375 55.54625 -22.6875 55.3125 C-25.66159588 53.62449964 -27.72008865 51.53323483 -30 49 C-30 48.34 -30 47.68 -30 47 C-30.66 47 -31.32 47 -32 47 C-32 46.34 -32 45.68 -32 45 C-32.66 45 -33.32 45 -34 45 C-34 44.34 -34 43.68 -34 43 C-34.66 43 -35.32 43 -36 43 C-37.35386936 41.34997172 -38.68678142 39.6825613 -40 38 C-40.66 37.67 -41.32 37.34 -42 37 C-41.40312566 33.65750371 -40.26396123 31.53563658 -38 29 C-37.34 29 -36.68 29 -36 29 C-36 28.34 -36 27.68 -36 27 C-35.34 27 -34.68 27 -34 27 C-34 26.34 -34 25.68 -34 25 C-33.34 25 -32.68 25 -32 25 C-32 24.34 -32 23.68 -32 23 C-30.28515625 21.34375 -30.28515625 21.34375 -28.0625 19.5 C-25.07954821 17.11073001 -25.07954821 17.11073001 -23 14 C-22.34 14 -21.68 14 -21 14 C-21 13.34 -21 12.68 -21 12 C-20.34 12 -19.68 12 -19 12 C-19 11.34 -19 10.68 -19 10 C-18.34 10 -17.68 10 -17 10 C-17 9.34 -17 8.68 -17 8 C-16.34 8 -15.68 8 -15 8 C-15 7.34 -15 6.68 -15 6 C-13.5390625 4.52734375 -13.5390625 4.52734375 -11.625 2.9375 C-10.99851562 2.41027344 -10.37203125 1.88304687 -9.7265625 1.33984375 C-6.20518247 -1.39281089 -4.28900829 -0.89354339 0 0 Z " fill="#FDF8F6" transform="translate(108,215)"/>
<path d="M0 0 C2.64971542 1.80662415 4.55620529 3.11241058 6 6 C6.49696743 11.09577054 5.08453428 14.62027723 2.8125 19.0625 C0.49580894 23.79415542 -1.65719043 28.49457933 -3.5 33.4375 C-6.37095313 41.09337502 -9.60380956 48.56441488 -13 56 C-13.46140381 57.01102783 -13.46140381 57.01102783 -13.93212891 58.04248047 C-14.83393931 59.99506315 -15.75606108 61.93640159 -16.6875 63.875 C-17.22761719 65.00679688 -17.76773438 66.13859375 -18.32421875 67.3046875 C-20.05821239 70.09362833 -20.89411823 71.06640489 -24 72 C-26.97524961 71.70247504 -29.32241195 71.33879403 -32 70 C-32 69.34 -32 68.68 -32 68 C-32.66 68 -33.32 68 -34 68 C-35.09805628 58.99187166 -31.95871287 52.91742575 -28 45 C-27.12635065 42.96659392 -26.27133104 40.92505592 -25.4375 38.875 C-23.54189403 34.26795764 -21.54643428 29.72563758 -19.44921875 25.20703125 C-18.28641245 22.63381299 -17.17410672 20.05257715 -16.08203125 17.44921875 C-15.73889893 16.64436035 -15.3957666 15.83950195 -15.04223633 15.01025391 C-14.36047956 13.40910766 -13.68928015 11.80341445 -13.0300293 10.19287109 C-10.53014022 4.37556676 -7.24176122 -1.44835224 0 0 Z " fill="#FDF6F4" transform="translate(157,214)"/>
<path d="M0 0 C0.99 0 1.98 0 3 0 C3 4.29 3 8.58 3 13 C4.32 13 5.64 13 7 13 C7.33 8.71 7.66 4.42 8 0 C8.99 0 9.98 0 11 0 C12.06671952 3.20015856 11.94845472 4.88544294 11.5625 8.1875 C11.46066406 9.08855469 11.35882813 9.98960937 11.25390625 10.91796875 C11.17011719 11.60503906 11.08632813 12.29210937 11 13 C12.65 13 14.3 13 16 13 C15.98839844 12.39671875 15.97679687 11.7934375 15.96484375 11.171875 C15.95582031 10.37265625 15.94679688 9.5734375 15.9375 8.75 C15.92589844 7.96109375 15.91429687 7.1721875 15.90234375 6.359375 C15.99614694 4.09308998 16.36758937 2.1711105 17 0 C19.375 -0.125 19.375 -0.125 22 0 C22.66 0.66 23.32 1.32 24 2 C24.33 1.34 24.66 0.68 25 0 C27.33294775 -0.04241723 29.66702567 -0.04092937 32 0 C33 1 33 1 33.09765625 2.84765625 C33.06510417 4.8984375 33.03255208 6.94921875 33 9 C33.66 9 34.32 9 35 9 C34.979375 7.88625 34.95875 6.7725 34.9375 5.625 C35 2 35 2 36 0 C38.31 0 40.62 0 43 0 C43.495 0.99 43.495 0.99 44 2 C44.33 1.34 44.66 0.68 45 0 C47.31 0 49.62 0 52 0 C52 0.66 52 1.32 52 2 C52.82226074 1.51104248 52.82226074 1.51104248 53.66113281 1.01220703 C56.43141928 -0.18670817 58.41059317 -0.22877119 61.421875 -0.1953125 C62.95908203 -0.18564453 62.95908203 -0.18564453 64.52734375 -0.17578125 C65.59082031 -0.15902344 66.65429688 -0.14226562 67.75 -0.125 C68.82894531 -0.11597656 69.90789062 -0.10695313 71.01953125 -0.09765625 C73.67991278 -0.07411305 76.33984336 -0.04122799 79 0 C78.835 0.61875 78.67 1.2375 78.5 1.875 C77.92365356 3.96063386 77.92365356 3.96063386 78 6 C78 10 78 10 76.5 11.75 C76.005 12.1625 75.51 12.575 75 13 C77.64 13 80.28 13 83 13 C82.67 14.65 82.34 16.3 82 18 C78.21293268 18 74.73486879 17.5745952 71 17 C70.95101562 16.07316406 70.90203125 15.14632813 70.8515625 14.19140625 C70.73941406 12.39509766 70.73941406 12.39509766 70.625 10.5625 C70.52058594 8.77005859 70.52058594 8.77005859 70.4140625 6.94140625 C70.20910156 5.48541016 70.20910156 5.48541016 70 4 C69.01 3.505 69.01 3.505 68 3 C68.08378906 3.84304688 68.16757812 4.68609375 68.25390625 5.5546875 C68.40666016 7.19824219 68.40666016 7.19824219 68.5625 8.875 C68.71912109 10.51082031 68.71912109 10.51082031 68.87890625 12.1796875 C69 15 69 15 68 17 C67.4225 16.814375 66.845 16.62875 66.25 16.4375 C64.00967475 15.83231516 64.00967475 15.83231516 61.875 16.5625 C61.25625 16.706875 60.6375 16.85125 60 17 C59.34 16.34 58.68 15.68 58 15 C57.67 15.66 57.34 16.32 57 17 C55.02 17 53.04 17 51 17 C50.505 16.01 50.505 16.01 50 15 C48.02 15.99 48.02 15.99 46 17 C45.34 16.34 44.68 15.68 44 15 C43.01 15.66 42.02 16.32 41 17 C37.67759676 16.6758631 36.39223697 16.39223697 34 14 C33.60167969 14.49113281 33.20335937 14.98226563 32.79296875 15.48828125 C30.4878245 17.43183425 29.2803281 17.316536 26.3125 17.1875 C25.50425781 17.16042969 24.69601562 17.13335937 23.86328125 17.10546875 C23.24839844 17.07066406 22.63351562 17.03585937 22 17 C21.67 15.68 21.34 14.36 21 13 C20.34 13 19.68 13 19 13 C18.67 14.32 18.34 15.64 18 17 C12.06 17 6.12 17 0 17 C0 11.39 0 5.78 0 0 Z M39 3 C39 6.3 39 9.6 39 13 C39.33 13 39.66 13 40 13 C40 9.7 40 6.4 40 3 C39.67 3 39.34 3 39 3 Z M62 3 C62.66 3.66 63.32 4.32 64 5 C64 4.34 64 3.68 64 3 C63.34 3 62.68 3 62 3 Z M28 4 C28.33 4.66 28.66 5.32 29 6 C29.33 5.34 29.66 4.68 30 4 C29.34 4 28.68 4 28 4 Z M49 4 C50 7 50 7 50 7 Z M54 7 C53.34 8.32 52.68 9.64 52 11 C52.99 11 53.98 11 55 11 C54.67 9.68 54.34 8.36 54 7 Z M63 8 C64 12 64 12 64 12 Z M29 10 C29 10.99 29 11.98 29 13 C29.66 12.34 30.32 11.68 31 11 C30.34 10.67 29.68 10.34 29 10 Z " fill="#FDEDEE" transform="translate(260,263)"/>
<path d="M0 0 C2.53541298 0.09086451 5.03554784 0.2370945 7.5625 0.4375 C8.62887695 0.51581055 8.62887695 0.51581055 9.71679688 0.59570312 C11.47821999 0.72574107 13.23916173 0.86226897 15 1 C15.33 1.99 15.66 2.98 16 4 C16.70125 3.34 17.4025 2.68 18.125 2 C21.52460766 -0.36494446 22.94587851 -0.67568691 27 0 C29.65234375 1.41015625 29.65234375 1.41015625 32 4 C32.72878421 7.32426545 32.65253416 10.54783553 32.5625 13.9375 C32.57345703 14.83146484 32.58441406 15.72542969 32.59570312 16.64648438 C32.54889574 20.84978733 32.35034239 23.3943753 30.21484375 27.0859375 C27.9067829 29.08055799 27.00339583 29.70509802 24 29.6875 C23.34 29.71199219 22.68 29.73648438 22 29.76171875 C18.59912539 28.46646377 17.63987193 26.14784112 16 23 C15.56739263 20.25460707 15.30843647 17.86620191 15.25 15.125 C15.22035156 14.43664062 15.19070313 13.74828125 15.16015625 13.0390625 C15.09019464 11.35998374 15.04274789 9.67999188 15 8 C12.525 7.505 12.525 7.505 10 7 C10 13.93 10 20.86 10 28 C8.35 28.33 6.7 28.66 5 29 C3.21597604 27.21597604 3.86767471 24.84121603 3.86328125 22.46875 C3.86714844 21.7365625 3.87101562 21.004375 3.875 20.25 C3.86919922 19.17492187 3.86919922 19.17492187 3.86328125 18.078125 C3.87030007 14.259888 4.07964742 10.71062786 5 7 C3.824375 7.2784375 3.824375 7.2784375 2.625 7.5625 C0 8 0 8 -2 7 C-2 6.34 -2 5.68 -2 5 C-4.31 5 -6.62 5 -9 5 C-9 7.31 -9 9.62 -9 12 C-7.02 12 -5.04 12 -3 12 C-2.67 13.32 -2.34 14.64 -2 16 C-3.98 16.66 -5.96 17.32 -8 18 C-8.33 19.65 -8.66 21.3 -9 23 C-6.69 23 -4.38 23 -2 23 C-1.61781233 24.65614657 -1.28604898 26.32457024 -1 28 C-1.33 28.33 -1.66 28.66 -2 29 C-5.96 29 -9.92 29 -14 29 C-14 19.76 -14 10.52 -14 1 C-9.71 1 -5.42 1 -1 1 C-0.67 0.67 -0.34 0.34 0 0 Z M23 5 C21.55611429 6.21428988 21.55611429 6.21428988 21.90234375 9.81640625 C21.90901911 11.39846682 21.92098125 12.98051159 21.9375 14.5625 C21.94201172 15.36880859 21.94652344 16.17511719 21.95117188 17.00585938 C21.96299482 19.00393756 21.98093086 21.00197783 22 23 C23.32 23 24.64 23 26 23 C26 17.06 26 11.12 26 5 C25.01 5 24.02 5 23 5 Z " fill="#FDEEEE" transform="translate(306,219)"/>
<path d="M0 0 C1.16402344 0.00773438 1.16402344 0.00773438 2.3515625 0.015625 C3.12242187 0.01046875 3.89328125 0.0053125 4.6875 0 C7.1757986 0.28874455 8.81890448 1.02423271 10.9765625 2.265625 C11.6365625 1.605625 12.2965625 0.945625 12.9765625 0.265625 C17.15086823 0.02386984 20.89602914 0.65947214 24.5390625 2.703125 C26.77414058 6.68739462 26.47355091 10.79272928 25.9765625 15.265625 C25.6465625 15.595625 25.3165625 15.925625 24.9765625 16.265625 C24.70751051 20.30140489 25.03759379 22.75124422 26.9765625 26.265625 C26.9765625 27.255625 26.9765625 28.245625 26.9765625 29.265625 C25.3265625 29.265625 23.6765625 29.265625 21.9765625 29.265625 C20.6565625 26.955625 19.3365625 24.645625 17.9765625 22.265625 C17.6465625 24.575625 17.3165625 26.885625 16.9765625 29.265625 C13.85158187 29.29458476 10.7266356 29.31240983 7.6015625 29.328125 C6.71210938 29.33650391 5.82265625 29.34488281 4.90625 29.35351562 C3.63007813 29.35834961 3.63007813 29.35834961 2.328125 29.36328125 C1.14984131 29.37113647 1.14984131 29.37113647 -0.05224609 29.37915039 C-2.0234375 29.265625 -2.0234375 29.265625 -4.0234375 28.265625 C-4.08127592 23.97401453 -4.1169787 19.68250355 -4.1484375 15.390625 C-4.16519531 14.16730469 -4.18195313 12.94398438 -4.19921875 11.68359375 C-4.20566406 10.51699219 -4.21210938 9.35039062 -4.21875 8.1484375 C-4.22922363 7.06965332 -4.23969727 5.99086914 -4.25048828 4.87939453 C-3.97131412 1.66558957 -3.30726991 0.43415898 0 0 Z M2.9765625 5.265625 C2.9765625 7.575625 2.9765625 9.885625 2.9765625 12.265625 C4.9565625 12.265625 6.9365625 12.265625 8.9765625 12.265625 C8.9765625 13.585625 8.9765625 14.905625 8.9765625 16.265625 C9.6365625 16.265625 10.2965625 16.265625 10.9765625 16.265625 C11.17147702 14.80826413 11.35725608 13.34967907 11.5390625 11.890625 C11.64347656 11.07851562 11.74789063 10.26640625 11.85546875 9.4296875 C12.15893578 7.21663314 12.15893578 7.21663314 10.9765625 5.265625 C8.3365625 5.265625 5.6965625 5.265625 2.9765625 5.265625 Z M16.9765625 6.265625 C16.9765625 8.905625 16.9765625 11.545625 16.9765625 14.265625 C17.6365625 14.265625 18.2965625 14.265625 18.9765625 14.265625 C19.3065625 12.285625 19.6365625 10.305625 19.9765625 8.265625 C18.9865625 7.605625 17.9965625 6.945625 16.9765625 6.265625 Z M2.9765625 18.265625 C2.9765625 19.915625 2.9765625 21.565625 2.9765625 23.265625 C5.6165625 23.265625 8.2565625 23.265625 10.9765625 23.265625 C10.6465625 21.615625 10.3165625 19.965625 9.9765625 18.265625 C7.6665625 18.265625 5.3565625 18.265625 2.9765625 18.265625 Z " fill="#FDF4F8" transform="translate(407.0234375,218.734375)"/>
<path d="M0 0 C2.53125 -0.36328125 2.53125 -0.36328125 5.5 -0.3125 C6.4796875 -0.30863281 7.459375 -0.30476563 8.46875 -0.30078125 C11 0 11 0 13 2 C13.33 1.34 13.66 0.68 14 0 C19 0 24 0 29 0 C30.010625 -0.04125 31.02125 -0.0825 32.0625 -0.125 C35 0 35 0 37 2 C37 3.32 37 4.64 37 6 C36.34 6.33 35.68 6.66 35 7 C35 7.66 35 8.32 35 9 C35.66 9.33 36.32 9.66 37 10 C37 10.99 37 11.98 37 13 C38.32 13.33 39.64 13.66 41 14 C40.67 14.99 40.34 15.98 40 17 C39.360625 16.814375 38.72125 16.62875 38.0625 16.4375 C37.0415625 16.2209375 37.0415625 16.2209375 36 16 C35.505 16.495 35.505 16.495 35 17 C33.00041636 17.04080783 30.99954746 17.04254356 29 17 C29 16.34 29 15.68 29 15 C28.01 15 27.02 15 26 15 C26 15.66 26 16.32 26 17 C19.84765625 17.09765625 19.84765625 17.09765625 18 17 C16.03177114 15.03177114 16.33751619 11.65191291 16 9 C15.34 11.64 14.68 14.28 14 17 C12.68 16.67 11.36 16.34 10 16 C9.67 14.02 9.34 12.04 9 10 C8.71125 10.78375 8.4225 11.5675 8.125 12.375 C7 15 7 15 5 17 C1.70285207 16.67028521 0.3773161 16.3773161 -2 14 C-1.68834559 11.99650739 -1.35236497 9.99673484 -1 8 C-1.185625 7.113125 -1.37125 6.22625 -1.5625 5.3125 C-2 3 -2 3 0 0 Z M32 7 C32 8.98 32 10.96 32 13 C32.33 13 32.66 13 33 13 C33 11.02 33 9.04 33 7 C32.67 7 32.34 7 32 7 Z " fill="#FCF4FA" transform="translate(394,263)"/>
<path d="M0 0 C1.134375 0.020625 2.26875 0.04125 3.4375 0.0625 C3.4375 0.7225 3.4375 1.3825 3.4375 2.0625 C4.4275 1.4025 5.4175 0.7425 6.4375 0.0625 C9.5 -0.0625 9.5 -0.0625 12.4375 0.0625 C13.0975 0.0625 13.7575 0.0625 14.4375 0.0625 C20.77083333 0.0625 27.10416667 0.0625 33.4375 0.0625 C33.1075 1.3825 32.7775 2.7025 32.4375 4.0625 C31.4475 4.0625 30.4575 4.0625 29.4375 4.0625 C29.4375 4.7225 29.4375 5.3825 29.4375 6.0625 C30.4275 6.3925 31.4175 6.7225 32.4375 7.0625 C32.4375 8.0525 32.4375 9.0425 32.4375 10.0625 C31.4475 10.0625 30.4575 10.0625 29.4375 10.0625 C29.4375 11.0525 29.4375 12.0425 29.4375 13.0625 C31.7475 13.0625 34.0575 13.0625 36.4375 13.0625 C36.4375 14.7125 36.4375 16.3625 36.4375 18.0625 C35.1175 18.3925 33.7975 18.7225 32.4375 19.0625 C32.4375 18.4025 32.4375 17.7425 32.4375 17.0625 C31.365 17.0625 30.2925 17.0625 29.1875 17.0625 C24.60416667 17.0625 20.02083333 17.0625 15.4375 17.0625 C15.1075 16.4025 14.7775 15.7425 14.4375 15.0625 C13.7775 15.0625 13.1175 15.0625 12.4375 15.0625 C12.4375 15.7225 12.4375 16.3825 12.4375 17.0625 C8.72150809 17.26336443 7.66541555 17.2144437 4.4375 15.0625 C3.4475 15.7225 2.4575 16.3825 1.4375 17.0625 C-3.10304054 16.52195946 -3.10304054 16.52195946 -4.5625 15.0625 C-4.66159302 12.73089945 -4.69220504 10.39620058 -4.6875 8.0625 C-4.69007813 6.78375 -4.69265625 5.505 -4.6953125 4.1875 C-4.52071446 0.07931078 -4.52071446 0.07931078 0 0 Z M14.4375 2.0625 C15.4375 4.0625 15.4375 4.0625 15.4375 4.0625 Z M9.4375 3.0625 C10.4375 6.0625 10.4375 6.0625 10.4375 6.0625 Z M-0.5625 4.0625 C-0.5625 6.7025 -0.5625 9.3425 -0.5625 12.0625 C-0.2325 11.4025 0.0975 10.7425 0.4375 10.0625 C2.4175 10.5575 2.4175 10.5575 4.4375 11.0625 C4.4375 9.4125 4.4375 7.7625 4.4375 6.0625 C3.1175 6.0625 1.7975 6.0625 0.4375 6.0625 C0.1075 5.4025 -0.2225 4.7425 -0.5625 4.0625 Z " fill="#FDF4F8" transform="translate(351.5625,262.9375)"/>
<path d="M0 0 C0.81919922 -0.00128906 1.63839844 -0.00257813 2.48242188 -0.00390625 C3.34029297 -0.00003906 4.19816406 0.00382813 5.08203125 0.0078125 C5.92056641 0.00394531 6.75910156 0.00007812 7.62304688 -0.00390625 C12.4865183 0.00368699 17.09959183 0.31527208 21.89453125 1.1328125 C21.89453125 2.4528125 21.89453125 3.7728125 21.89453125 5.1328125 C20.24453125 5.1328125 18.59453125 5.1328125 16.89453125 5.1328125 C16.89453125 13.0528125 16.89453125 20.9728125 16.89453125 29.1328125 C15.24453125 29.1328125 13.59453125 29.1328125 11.89453125 29.1328125 C11.39953125 17.2528125 11.39953125 17.2528125 10.89453125 5.1328125 C7.26453125 5.1328125 3.63453125 5.1328125 -0.10546875 5.1328125 C-0.10546875 7.4428125 -0.10546875 9.7528125 -0.10546875 12.1328125 C1.87453125 12.1328125 3.85453125 12.1328125 5.89453125 12.1328125 C5.89453125 13.7828125 5.89453125 15.4328125 5.89453125 17.1328125 C3.91453125 17.4628125 1.93453125 17.7928125 -0.10546875 18.1328125 C-0.10546875 19.7828125 -0.10546875 21.4328125 -0.10546875 23.1328125 C2.20453125 23.1328125 4.51453125 23.1328125 6.89453125 23.1328125 C7.27671892 24.78895907 7.60848227 26.45738274 7.89453125 28.1328125 C6.89453125 29.1328125 6.89453125 29.1328125 4.20703125 29.265625 C3.11390625 29.26304687 2.02078125 29.26046875 0.89453125 29.2578125 C-0.19859375 29.26039063 -1.29171875 29.26296875 -2.41796875 29.265625 C-5.10546875 29.1328125 -5.10546875 29.1328125 -6.10546875 28.1328125 C-6.19304878 26.13316268 -6.21243451 24.1304514 -6.203125 22.12890625 C-6.19990234 20.91396484 -6.19667969 19.69902344 -6.19335938 18.44726562 C-6.18498047 17.16787109 -6.17660156 15.88847656 -6.16796875 14.5703125 C-6.16345703 13.28705078 -6.15894531 12.00378906 -6.15429688 10.68164062 C-6.1424642 7.49865228 -6.12597943 4.31575488 -6.10546875 1.1328125 C-3.82293185 -0.00845595 -2.53469051 0.0038584 0 0 Z " fill="#FDF3F7" transform="translate(364.10546875,218.8671875)"/>
<path d="M0 0 C0.99 0 1.98 0 3 0 C3 4.29 3 8.58 3 13 C4.32 13 5.64 13 7 13 C7.33 8.71 7.66 4.42 8 0 C8.99 0 9.98 0 11 0 C12.06671952 3.20015856 11.94845472 4.88544294 11.5625 8.1875 C11.46066406 9.08855469 11.35882813 9.98960937 11.25390625 10.91796875 C11.17011719 11.60503906 11.08632813 12.29210937 11 13 C12.65 13 14.3 13 16 13 C15.98839844 12.39671875 15.97679687 11.7934375 15.96484375 11.171875 C15.95582031 10.37265625 15.94679688 9.5734375 15.9375 8.75 C15.92589844 7.96109375 15.91429687 7.1721875 15.90234375 6.359375 C15.99614694 4.09308998 16.36758937 2.1711105 17 0 C19.375 -0.125 19.375 -0.125 22 0 C22.66 0.66 23.32 1.32 24 2 C24.33 1.34 24.66 0.68 25 0 C27.33294775 -0.04241723 29.66702567 -0.04092937 32 0 C33 1 33 1 33.09765625 2.84765625 C33.06510417 4.8984375 33.03255208 6.94921875 33 9 C33.66 9 34.32 9 35 9 C35 6.69 35 4.38 35 2 C35.33 2 35.66 2 36 2 C36 5.96 36 9.92 36 14 C34.02 14.99 34.02 14.99 32 16 C31.67 16.33 31.34 16.66 31 17 C29.48071962 17.07179964 27.95832518 17.08392007 26.4375 17.0625 C25.61121094 17.05347656 24.78492188 17.04445313 23.93359375 17.03515625 C22.97646484 17.01775391 22.97646484 17.01775391 22 17 C21.67 15.68 21.34 14.36 21 13 C20.34 13 19.68 13 19 13 C18.67 14.32 18.34 15.64 18 17 C12.06 17 6.12 17 0 17 C0 11.39 0 5.78 0 0 Z M28 4 C28.33 4.66 28.66 5.32 29 6 C29.33 5.34 29.66 4.68 30 4 C29.34 4 28.68 4 28 4 Z M29 10 C29 10.99 29 11.98 29 13 C29.66 12.34 30.32 11.68 31 11 C30.34 10.67 29.68 10.34 29 10 Z " fill="#FCE7E8" transform="translate(260,263)"/>
<path d="M0 0 C3.3 0 6.6 0 10 0 C10 0.66 10 1.32 10 2 C10.66 2 11.32 2 12 2 C13 8.625 13 8.625 13 12 C13.05800781 12.83273438 13.11601562 13.66546875 13.17578125 14.5234375 C13.54313099 22.18530351 13.54313099 22.18530351 10.875 26.1875 C8 28 8 28 5 28.6875 C1.59797848 27.90787007 0.15112067 26.67787844 -2.00146484 23.96313477 C-3.99198228 20.04974829 -3.23339452 15.87028146 -2.8125 11.625 C-2.74224609 10.69816406 -2.67199219 9.77132812 -2.59960938 8.81640625 C-2.42369016 6.54118446 -2.22327594 4.27098069 -2 2 C-1.34 2 -0.68 2 0 2 C0 1.34 0 0.68 0 0 Z M4 4 C2.55611429 5.21428988 2.55611429 5.21428988 2.90234375 8.81640625 C2.90901911 10.39846682 2.92098125 11.98051159 2.9375 13.5625 C2.94201172 14.36880859 2.94652344 15.17511719 2.95117188 16.00585938 C2.96299482 18.00393756 2.98093086 20.00197783 3 22 C4.32 22 5.64 22 7 22 C7 20.35 7 18.7 7 17 C6.34 16.67 5.68 16.34 5 16 C4.375 13.4375 4.375 13.4375 4 11 C4.99 10.67 5.98 10.34 7 10 C7 8.35 7 6.7 7 5 C6.01 4.67 5.02 4.34 4 4 Z " fill="#FDECEF" transform="translate(343,220)"/>
<path d="M0 0 C0.99 0.33 1.98 0.66 3 1 C3.33 4.3 3.66 7.6 4 11 C4.66 11 5.32 11 6 11 C6.03738281 10.37351563 6.07476562 9.74703125 6.11328125 9.1015625 C6.17902344 8.28429687 6.24476563 7.46703125 6.3125 6.625 C6.37050781 5.81289062 6.42851562 5.00078125 6.48828125 4.1640625 C7 2 7 2 10 0 C12.25526145 1.76513285 12.94723194 2.62812976 13.35644531 5.51196289 C13.34709961 6.4889917 13.33775391 7.46602051 13.328125 8.47265625 C13.32296875 9.53677734 13.3178125 10.60089844 13.3125 11.69726562 C13.291875 12.80779297 13.27125 13.91832031 13.25 15.0625 C13.24484375 16.17689453 13.2396875 17.29128906 13.234375 18.43945312 C13.15430775 26.69138451 13.15430775 26.69138451 12 29 C10.35 28.67 8.7 28.34 7 28 C7 24.7 7 21.4 7 18 C5.68 17.67 4.36 17.34 3 17 C3 20.96 3 24.92 3 29 C1.35 28.67 -0.3 28.34 -2 28 C-2.05783842 23.70838953 -2.0935412 19.41687855 -2.125 15.125 C-2.14175781 13.90167969 -2.15851563 12.67835938 -2.17578125 11.41796875 C-2.18222656 10.25136719 -2.18867188 9.08476562 -2.1953125 7.8828125 C-2.20578613 6.80402832 -2.21625977 5.72524414 -2.22705078 4.61376953 C-2 2 -2 2 0 0 Z " fill="#FEF5F8" transform="translate(389,219)"/>
<path d="M0 0 C2.82907302 2.04621094 4.73493104 3.6265173 5.41674805 7.15942383 C5.52839228 9.68636465 5.4854413 12.16067914 5.375 14.6875 C5.35373047 15.9878418 5.35373047 15.9878418 5.33203125 17.31445312 C5.18456633 23.63086735 5.18456633 23.63086735 4 26 C3.34 26 2.68 26 2 26 C1.67 26.99 1.34 27.98 1 29 C-2.25 29.3125 -2.25 29.3125 -6 29 C-8.51734392 26.83972614 -9.81439205 25.08561568 -10.37988281 21.77807617 C-10.53879426 19.15270523 -10.5455011 16.56708464 -10.5 13.9375 C-10.51546875 13.03966797 -10.5309375 12.14183594 -10.546875 11.21679688 C-10.50818022 4.71123744 -10.50818022 4.71123744 -8.15234375 1.4140625 C-5.15139629 -0.55752186 -3.52336671 -0.64714899 0 0 Z M-4 5 C-5.53266582 8.06533164 -5.10276471 11.26754272 -5.0625 14.625 C-5.05798828 15.33140625 -5.05347656 16.0378125 -5.04882812 16.765625 C-5.03703875 18.51045275 -5.01910324 20.255237 -5 22 C-3.05396726 22.59070014 -3.05396726 22.59070014 -1 23 C0.7462388 21.2537612 0.13221151 19.00121676 0.13671875 16.67773438 C0.13285156 15.97970703 0.12898438 15.28167969 0.125 14.5625 C0.13080078 13.52125977 0.13080078 13.52125977 0.13671875 12.45898438 C0.19359835 8.60230243 0.19359835 8.60230243 -1 5 C-1.99 5 -2.98 5 -4 5 Z " fill="#FCE3E1" transform="translate(267,219)"/>
<path d="M0 0 C3.63 0 7.26 0 11 0 C11 0.66 11 1.32 11 2 C11.66 2 12.32 2 13 2 C14.16171778 4.32343556 14.12903969 5.69633316 14.1328125 8.28125 C14.13474609 9.54388672 14.13474609 9.54388672 14.13671875 10.83203125 C14.13285156 11.71246094 14.12898438 12.59289062 14.125 13.5 C14.12886719 14.38042969 14.13273437 15.26085937 14.13671875 16.16796875 C14.13542969 17.00972656 14.13414062 17.85148437 14.1328125 18.71875 C14.13168457 19.49154297 14.13055664 20.26433594 14.12939453 21.06054688 C14 23 14 23 13 25 C12.34 25 11.68 25 11 25 C10.67 25.99 10.34 26.98 10 28 C8.52093108 28.02689216 7.04172517 28.04634621 5.5625 28.0625 C4.32693359 28.07990234 4.32693359 28.07990234 3.06640625 28.09765625 C1 28 1 28 0 27 C-0.08758003 25.00035018 -0.10696576 22.9976389 -0.09765625 20.99609375 C-0.09443359 19.78115234 -0.09121094 18.56621094 -0.08789062 17.31445312 C-0.07951172 16.03505859 -0.07113281 14.75566406 -0.0625 13.4375 C-0.05798828 12.15423828 -0.05347656 10.87097656 -0.04882812 9.54882812 C-0.03699545 6.36583978 -0.02051068 3.18294238 0 0 Z M5 4 C5 9.94 5 15.88 5 22 C6.32 21.67 7.64 21.34 9 21 C9.02691685 18.54159395 9.04679802 16.08348118 9.0625 13.625 C9.07087891 12.92632812 9.07925781 12.22765625 9.08789062 11.5078125 C9.1835442 7.62704624 9.1835442 7.62704624 8 4 C7.01 4 6.02 4 5 4 Z " fill="#FBDDDE" transform="translate(275,220)"/>
<path d="M0 0 C0.66 0.33 1.32 0.66 2 1 C2 1.66 2 2.32 2 3 C2.66 3 3.32 3 4 3 C4 4.98 4 6.96 4 9 C2.68 9.33 1.36 9.66 0 10 C-0.66 8.68 -1.32 7.36 -2 6 C-2.66 6 -3.32 6 -4 6 C-4.33 11.61 -4.66 17.22 -5 23 C-3.68 23 -2.36 23 -1 23 C-0.67 21.35 -0.34 19.7 0 18 C1.32 18 2.64 18 4 18 C4.48275862 24.27586207 4.48275862 24.27586207 2.375 27.4375 C-0.71685231 29.47161336 -2.36367425 29.60605429 -6 29 C-8.15625 27.625 -8.15625 27.625 -10 25 C-10.60145139 21.49255644 -10.55780865 18.05041443 -10.5 14.5 C-10.51546875 13.54996094 -10.5309375 12.59992188 -10.546875 11.62109375 C-10.50810499 4.72972526 -10.50810499 4.72972526 -8.1640625 1.36328125 C-5.28529738 -0.45023685 -3.34044063 -0.36309137 0 0 Z " fill="#FDECEA" transform="translate(250,219)"/>
<path d="M0 0 C1.09570312 0.10183594 2.19140625 0.20367187 3.3203125 0.30859375 C4.16335938 0.39238281 5.00640625 0.47617188 5.875 0.5625 C5.545 1.2225 5.215 1.8825 4.875 2.5625 C0.915 2.5625 -3.045 2.5625 -7.125 2.5625 C-7.125 4.8725 -7.125 7.1825 -7.125 9.5625 C-3.84726496 8.81099977 -3.84726496 8.81099977 -2.125 5.5625 C-2.125 7.5425 -2.125 9.5225 -2.125 11.5625 C-0.145 11.5625 1.835 11.5625 3.875 11.5625 C3.875 13.2125 3.875 14.8625 3.875 16.5625 C1.895 16.8925 -0.085 17.2225 -2.125 17.5625 C-2.125 19.2125 -2.125 20.8625 -2.125 22.5625 C0.185 22.5625 2.495 22.5625 4.875 22.5625 C5.25718767 24.21864657 5.58895102 25.88707024 5.875 27.5625 C4.875 28.5625 4.875 28.5625 2.1875 28.6953125 C1.094375 28.69273437 0.00125 28.69015625 -1.125 28.6875 C-2.218125 28.69007813 -3.31125 28.69265625 -4.4375 28.6953125 C-7.125 28.5625 -7.125 28.5625 -8.125 27.5625 C-8.21258003 25.56285018 -8.23196576 23.5601389 -8.22265625 21.55859375 C-8.21943359 20.34365234 -8.21621094 19.12871094 -8.21289062 17.87695312 C-8.20451172 16.59755859 -8.19613281 15.31816406 -8.1875 14 C-8.18298828 12.71673828 -8.17847656 11.43347656 -8.17382812 10.11132812 C-8.16199545 6.92833978 -8.14551068 3.74544238 -8.125 0.5625 C-5.28943413 -0.85528293 -3.1341294 -0.30007622 0 0 Z " fill="#FCEAEF" transform="translate(366.125,219.4375)"/>
<path d="M0 0 C1.134375 0.020625 2.26875 0.04125 3.4375 0.0625 C3.4375 0.7225 3.4375 1.3825 3.4375 2.0625 C4.4275 1.4025 5.4175 0.7425 6.4375 0.0625 C9.5 -0.25 9.5 -0.25 12.4375 0.0625 C13.0975 1.0525 13.7575 2.0425 14.4375 3.0625 C10.94622818 5.18220075 10.94622818 5.18220075 8.3125 4.5625 C7.69375 4.3975 7.075 4.2325 6.4375 4.0625 C5.7775 4.7225 5.1175 5.3825 4.4375 6.0625 C3.1175 6.0625 1.7975 6.0625 0.4375 6.0625 C0.4375 7.3825 0.4375 8.7025 0.4375 10.0625 C1.7575 10.3925 3.0775 10.7225 4.4375 11.0625 C4.4375 12.3825 4.4375 13.7025 4.4375 15.0625 C1.4375 17.0625 1.4375 17.0625 -1.1875 16.75 C-3.5625 16.0625 -3.5625 16.0625 -4.5625 15.0625 C-4.66159302 12.73089945 -4.69220504 10.39620058 -4.6875 8.0625 C-4.69007813 6.78375 -4.69265625 5.505 -4.6953125 4.1875 C-4.52071446 0.07931078 -4.52071446 0.07931078 0 0 Z " fill="#FEE9EF" transform="translate(351.5625,262.9375)"/>
<path d="M0 0 C0.99 0.66 1.98 1.32 3 2 C3 3.32 3 4.64 3 6 C2.01 6.495 2.01 6.495 1 7 C1 7.66 1 8.32 1 9 C1.66 9.33 2.32 9.66 3 10 C3 10.99 3 11.98 3 13 C4.32 13.33 5.64 13.66 7 14 C6.67 14.99 6.34 15.98 6 17 C5.360625 16.814375 4.72125 16.62875 4.0625 16.4375 C3.0415625 16.2209375 3.0415625 16.2209375 2 16 C1.67 16.33 1.34 16.66 1 17 C-0.99958364 17.04080783 -3.00045254 17.04254356 -5 17 C-5 16.34 -5 15.68 -5 15 C-5.99 15 -6.98 15 -8 15 C-8 15.66 -8 16.32 -8 17 C-14.15234375 17.09765625 -14.15234375 17.09765625 -16 17 C-17 16 -17 16 -17.0625 12.9375 C-17.041875 11.968125 -17.02125 10.99875 -17 10 C-16.67 10 -16.34 10 -16 10 C-16 11.65 -16 13.3 -16 15 C-15.34 15 -14.68 15 -14 15 C-14 14.34 -14 13.68 -14 13 C-13.236875 13.226875 -12.47375 13.45375 -11.6875 13.6875 C-9.07460259 14.25615427 -9.07460259 14.25615427 -7.3125 13.0625 C-5.29999397 9.89999053 -4.77956783 6.65797214 -4 3 C-2.68 3 -1.36 3 0 3 C0 2.01 0 1.02 0 0 Z M-2 7 C-2 8.98 -2 10.96 -2 13 C-1.67 13 -1.34 13 -1 13 C-1 11.02 -1 9.04 -1 7 C-1.33 7 -1.66 7 -2 7 Z " fill="#FEEEF6" transform="translate(428,263)"/>
<path d="M0 0 C7 0 7 0 10 1 C9.67 1.99 9.34 2.98 9 4 C7.35 4 5.7 4 4 4 C4 10.27 4 16.54 4 23 C4.66 23.33 5.32 23.66 6 24 C6.66 24.99 7.32 25.98 8 27 C5.36 27 2.72 27 0 27 C0 18.09 0 9.18 0 0 Z " fill="#FDE8E6" transform="translate(275,220)"/>
<path d="M0 0 C0.33 0 0.66 0 1 0 C1.04898437 0.98742187 1.09796875 1.97484375 1.1484375 2.9921875 C1.22320312 4.27351562 1.29796875 5.55484375 1.375 6.875 C1.44460938 8.15117187 1.51421875 9.42734375 1.5859375 10.7421875 C1.67241106 14.08061699 1.67241106 14.08061699 4 16 C4.33 15.67 4.66 15.34 5 15 C6.99958364 14.95919217 9.00045254 14.95745644 11 15 C11 15.33 11 15.66 11 16 C9.35 16.33 7.7 16.66 6 17 C5.67 18.65 5.34 20.3 5 22 C7.31 22 9.62 22 12 22 C12.38218767 23.65614657 12.71395102 25.32457024 13 27 C12.67 27.33 12.34 27.66 12 28 C8.04 28 4.08 28 0 28 C0 18.76 0 9.52 0 0 Z " fill="#FCE3E5" transform="translate(292,220)"/>
<path d="M0 0 C3.3 0 6.6 0 10 0 C10 0.66 10 1.32 10 2 C10.66 2 11.32 2 12 2 C12.38063221 4.3260857 12.71269945 6.66055264 13 9 C12 10 12 10 9.4375 10.0625 C8.633125 10.041875 7.82875 10.02125 7 10 C6.67 8.35 6.34 6.7 6 5 C5.34 5 4.68 5 4 5 C3.67 10.28 3.34 15.56 3 21 C2.67 21 2.34 21 2 21 C1.67 18.03 1.34 15.06 1 12 C0.67 12 0.34 12 0 12 C-0.33 13.98 -0.66 15.96 -1 18 C-1.33 18 -1.66 18 -2 18 C-2 12.72 -2 7.44 -2 2 C-1.34 2 -0.68 2 0 2 C0 1.34 0 0.68 0 0 Z " fill="#FCE5E8" transform="translate(343,220)"/>
<path d="M0 0 C1.134375 0.020625 2.26875 0.04125 3.4375 0.0625 C4.79031371 2.76812743 4.64359362 4.98143655 4.6875 8 C4.72617187 9.59134766 4.72617187 9.59134766 4.765625 11.21484375 C4.4375 14.0625 4.4375 14.0625 3.0859375 15.95703125 C1.4375 17.0625 1.4375 17.0625 -1.1875 16.8125 C-3.5625 16.0625 -3.5625 16.0625 -4.5625 15.0625 C-4.66159302 12.73089945 -4.69220504 10.39620058 -4.6875 8.0625 C-4.69007813 6.78375 -4.69265625 5.505 -4.6953125 4.1875 C-4.52071446 0.07931078 -4.52071446 0.07931078 0 0 Z M-0.5625 3.0625 C-1.8005014 6.63894848 -1.31176071 9.39944766 -0.5625 13.0625 C-0.2325 13.0625 0.0975 13.0625 0.4375 13.0625 C0.4375 9.7625 0.4375 6.4625 0.4375 3.0625 C0.1075 3.0625 -0.2225 3.0625 -0.5625 3.0625 Z " fill="#FAC8C8" transform="translate(254.5625,262.9375)"/>
<path d="M0 0 C0.33 0 0.66 0 1 0 C1.33 5.61 1.66 11.22 2 17 C2.33 17 2.66 17 3 17 C3.33 11.72 3.66 6.44 4 1 C4.66 1.33 5.32 1.66 6 2 C5.67 7.61 5.34 13.22 5 19 C6.32 19 7.64 19 9 19 C9.33 17.35 9.66 15.7 10 14 C11.32 14 12.64 14 14 14 C14.48275862 20.27586207 14.48275862 20.27586207 12.375 23.4375 C9.28314769 25.47161336 7.63632575 25.60605429 4 25 C1.828125 23.640625 1.828125 23.640625 0 21 C-0.49815261 17.40596646 -0.37530636 13.86942588 -0.25 10.25 C-0.23195312 9.26644531 -0.21390625 8.28289062 -0.1953125 7.26953125 C-0.14824126 4.84536217 -0.08250742 2.42317941 0 0 Z " fill="#FCDCDB" transform="translate(240,223)"/>
<path d="M0 0 C1.134375 0.020625 2.26875 0.04125 3.4375 0.0625 C3.7675 2.0425 4.0975 4.0225 4.4375 6.0625 C3.4475 6.0625 2.4575 6.0625 1.4375 6.0625 C1.4375 5.4025 1.4375 4.7425 1.4375 4.0625 C0.4475 4.5575 0.4475 4.5575 -0.5625 5.0625 C-1.02773063 6.95783342 -1.02773063 6.95783342 -1.1875 9.125 C-1.31125 10.424375 -1.435 11.72375 -1.5625 13.0625 C-1.129375 12.5675 -0.69625 12.0725 -0.25 11.5625 C1.4375 10.0625 1.4375 10.0625 4.4375 10.0625 C3.5625 14.8125 3.5625 14.8125 2.4375 17.0625 C0.0625 17.1875 0.0625 17.1875 -2.5625 17.0625 C-4.5625 15.0625 -4.5625 15.0625 -4.79296875 11.83984375 C-4.77169922 9.93912109 -4.77169922 9.93912109 -4.75 8 C-4.74355469 6.73027344 -4.73710937 5.46054687 -4.73046875 4.15234375 C-4.49120834 -0.24893492 -4.50413548 0.07901992 0 0 Z " fill="#FDE1E1" transform="translate(244.5625,262.9375)"/>
<path d="M0 0 C0.99 0.66 1.98 1.32 3 2 C2.68289063 2.48984375 2.36578125 2.9796875 2.0390625 3.484375 C0.58626385 7.001677 0.53415248 10.49665393 0.375 14.25 C0.33632813 14.99507812 0.29765625 15.74015625 0.2578125 16.5078125 C0.16394892 18.3381524 0.08090282 20.16904143 0 22 C-0.33 22 -0.66 22 -1 22 C-1 16.39 -1 10.78 -1 5 C-3.31 5.66 -5.62 6.32 -8 7 C-8.33 6.67 -8.66 6.34 -9 6 C-9.66 7.32 -10.32 8.64 -11 10 C-11.66 9.34 -12.32 8.68 -13 8 C-13.99 7.67 -14.98 7.34 -16 7 C-15.01 6.67 -14.02 6.34 -13 6 C-13 4.35 -13 2.7 -13 1 C-12.34 1.99 -11.68 2.98 -11 4 C-10.29875 3.34 -9.5975 2.68 -8.875 2 C-5.52319265 -0.33169207 -3.99546788 -0.52114798 0 0 Z " fill="#F9E2E1" transform="translate(333,219)"/>
<path d="M0 0 C0.66 0 1.32 0 2 0 C1.86064364 5.57425454 -0.59922885 8.36137776 -4.11328125 12.36328125 C-6 14 -6 14 -8.10546875 14.48046875 C-10.17002761 14.80734865 -10.17002761 14.80734865 -11.03125 16.796875 C-11.3509375 17.52390625 -11.670625 18.2509375 -12 19 C-13.12304892 20.45148775 -14.29221983 21.8682176 -15.5 23.25 C-16.1084375 23.95640625 -16.716875 24.6628125 -17.34375 25.390625 C-19 27 -19 27 -21 27 C-21 28.65 -21 30.3 -21 32 C-21.33 32 -21.66 32 -22 32 C-22.50924945 29.09000312 -22.5704808 26.91406582 -20.96875 24.34765625 C-17.91323784 20.78549029 -14.54048713 17.54421393 -11.1953125 14.2578125 C-10.51799072 13.58935303 -9.84066895 12.92089355 -9.14282227 12.23217773 C-7.76371957 10.87670478 -6.37622739 9.52971145 -4.98022461 8.19165039 C-4.33835205 7.56508545 -3.69647949 6.93852051 -3.03515625 6.29296875 C-2.4512915 5.7311792 -1.86742676 5.16938965 -1.26586914 4.59057617 C0.3113579 2.94757928 0.3113579 2.94757928 0 0 Z " fill="#FCDFD7" transform="translate(195,248)"/>
<path d="M0 0 C1.32 0.33 2.64 0.66 4 1 C4 3.64 4 6.28 4 9 C4.66 9 5.32 9 6 9 C6 6.69 6 4.38 6 2 C6.33 2 6.66 2 7 2 C7 5.96 7 9.92 7 14 C5.02 14.99 5.02 14.99 3 16 C2.67 16.33 2.34 16.66 2 17 C0.33382885 17.04063832 -1.33388095 17.042721 -3 17 C-2 14 -2 14 1 12 C1.37734225 9.13219886 1.23585563 7.47171127 -0.0625 4.875 C-0.371875 4.25625 -0.68125 3.6375 -1 3 C-0.67 2.01 -0.34 1.02 0 0 Z " fill="#FBDEE0" transform="translate(289,263)"/>
<path d="M0 0 C1.98 0.99 1.98 0.99 4 2 C4 3.32 4 4.64 4 6 C6.64 6 9.28 6 12 6 C11.67 7.65 11.34 9.3 11 11 C7.21293268 11 3.73486879 10.5745952 0 10 C0 6.7 0 3.4 0 0 Z " fill="#FBE1E6" transform="translate(331,270)"/>
<path d="M0 0 C1.32 0.33 2.64 0.66 4 1 C4 7.27 4 13.54 4 20 C3.01 20 2.02 20 1 20 C0.15951631 16.36672797 -0.10824319 13.03802838 -0.0625 9.3125 C-0.05347656 8.35988281 -0.04445313 7.40726563 -0.03515625 6.42578125 C-0.02355469 5.62527344 -0.01195312 4.82476562 0 4 C0 3.34 0 2.68 0 2 C0 1.34 0 0.68 0 0 Z " fill="#FBEFEE" transform="translate(267,221)"/>
<path d="M0 0 C0.33 0 0.66 0 1 0 C1 7.59 1 15.18 1 23 C-0.65 23.33 -2.3 23.66 -4 24 C-5 23 -5 23 -5.09765625 19.83984375 C-5.08025391 17.90818359 -5.08025391 17.90818359 -5.0625 15.9375 C-5.05347656 14.64714844 -5.04445313 13.35679687 -5.03515625 12.02734375 C-5.02355469 11.02832031 -5.01195312 10.02929688 -5 9 C-4.67 9 -4.34 9 -4 9 C-3.67 11.64 -3.34 14.28 -3 17 C-2.34 16.67 -1.68 16.34 -1 16 C-0.68758545 13.28553021 -0.48663408 10.66090639 -0.375 7.9375 C-0.33632813 7.17888672 -0.29765625 6.42027344 -0.2578125 5.63867188 C-0.16326438 3.75952805 -0.08053244 1.87979664 0 0 Z " fill="#FDD0D4" transform="translate(315,224)"/>
<path d="M0 0 C1.65 0 3.3 0 5 0 C7.125 4.625 7.125 4.625 6 8 C5.67 7.34 5.34 6.68 5 6 C4.67 7.32 4.34 8.64 4 10 C3.01 10 2.02 10 1 10 C1 10.66 1 11.32 1 12 C0.34 12 -0.32 12 -1 12 C-1.14285714 3.42857143 -1.14285714 3.42857143 0 0 Z " fill="#FBE5E3" transform="translate(277,263)"/>
<path d="M0 0 C0.33 0 0.66 0 1 0 C1 2.64 1 5.28 1 8 C-5.27 8 -11.54 8 -18 8 C-18 7.67 -18 7.34 -18 7 C-14.04 7 -10.08 7 -6 7 C-6 5.68 -6 4.36 -6 3 C-8.31 3 -10.62 3 -13 3 C-13 2.67 -13 2.34 -13 2 C-11.37585622 1.80522261 -9.75063577 1.61940542 -8.125 1.4375 C-7.22007812 1.33308594 -6.31515625 1.22867188 -5.3828125 1.12109375 C-3 1 -3 1 -1 2 C-0.67 1.34 -0.34 0.68 0 0 Z " fill="#FDE8ED" transform="translate(423,240)"/>
<path d="M0 0 C1.51400391 0.01740234 1.51400391 0.01740234 3.05859375 0.03515625 C4.07050781 0.04417969 5.08242188 0.05320312 6.125 0.0625 C7.29869141 0.07990234 7.29869141 0.07990234 8.49609375 0.09765625 C6.74609375 3.97265625 6.74609375 3.97265625 4.49609375 5.09765625 C4.49609375 4.43765625 4.49609375 3.77765625 4.49609375 3.09765625 C0.75970159 4.3431203 0.30852862 5.73170578 -1.50390625 9.09765625 C-2.49390625 8.43765625 -3.48390625 7.77765625 -4.50390625 7.09765625 C-3.46694712 0.13521635 -3.46694712 0.13521635 0 0 Z " fill="#FEEAEF" transform="translate(396.50390625,262.90234375)"/>
<path d="M0 0 C0 4.29 0 8.58 0 13 C0.66 13.33 1.32 13.66 2 14 C2.99 15.485 2.99 15.485 4 17 C1.69 17 -0.62 17 -3 17 C-3 11.72 -3 6.44 -3 1 C-1 0 -1 0 0 0 Z " fill="#FEF6F5" transform="translate(279,230)"/>
<path d="M0 0 C0.33 0 0.66 0 1 0 C1 5.94 1 11.88 1 18 C3.33075929 17.04134491 3.33075929 17.04134491 5 14 C5 17.63 5 21.26 5 25 C3.35 24.67 1.7 24.34 0 24 C0 16.08 0 8.16 0 0 Z " fill="#FEE6EA" transform="translate(387,223)"/>
<path d="M0 0 C0.33 0 0.66 0 1 0 C1.02895976 3.12498063 1.04678483 6.2499269 1.0625 9.375 C1.07087891 10.26445312 1.07925781 11.15390625 1.08789062 12.0703125 C1.09111328 12.92109375 1.09433594 13.771875 1.09765625 14.6484375 C1.10289307 15.43395996 1.10812988 16.21948242 1.11352539 17.02880859 C1 19 1 19 0 21 C-0.66 21 -1.32 21 -2 21 C-2.33 21.99 -2.66 22.98 -3 24 C-5.31 24 -7.62 24 -10 24 C-8.68 23.67 -7.36 23.34 -6 23 C-6 22.34 -6 21.68 -6 21 C-5.34 21 -4.68 21 -4 21 C-4.185625 20.443125 -4.37125 19.88625 -4.5625 19.3125 C-5.07551165 16.600867 -4.6640724 14.65628961 -4 12 C-3.67 12 -3.34 12 -3 12 C-3 13.65 -3 15.3 -3 17 C-2.01 17 -1.02 17 0 17 C0 11.39 0 5.78 0 0 Z " fill="#FCDADB" transform="translate(271,224)"/>
<path d="M0 0 C0.99 0.33 1.98 0.66 3 1 C3.19430855 3.6246601 3.38073238 6.24946765 3.5625 8.875 C3.61857422 9.62136719 3.67464844 10.36773437 3.73242188 11.13671875 C4.11328125 16.7734375 4.11328125 16.7734375 3 19 C0.525 18.01 0.525 18.01 -2 17 C-1.76990234 16.21882813 -1.76990234 16.21882813 -1.53515625 15.421875 C-0.86017489 12.36721485 -0.65588882 9.36984029 -0.4375 6.25 C-0.35371094 5.07953125 -0.26992188 3.9090625 -0.18359375 2.703125 C-0.12300781 1.81109375 -0.06242187 0.9190625 0 0 Z " fill="#FDF7F8" transform="translate(342,225)"/>
<path d="M0 0 C1.35862973 3.90480249 0.89469712 7.7101776 0.5625 11.75 C0.51029297 12.44738281 0.45808594 13.14476562 0.40429688 13.86328125 C0.27525928 15.57596203 0.13840386 17.28805066 0 19 C-0.99 19.33 -1.98 19.66 -3 20 C-3 14.06 -3 8.12 -3 2 C-2.34 2 -1.68 2 -1 2 C-0.67 1.34 -0.34 0.68 0 0 Z " fill="#FCF8F4" transform="translate(261,221)"/>
<path d="M0 0 C0.99 0.33 1.98 0.66 3 1 C3 6.94 3 12.88 3 19 C2.01 19.33 1.02 19.66 0 20 C0 13.4 0 6.8 0 0 Z " fill="#FCF7F3" transform="translate(241,223)"/>
<path d="M0 0 C2.31 0 4.62 0 7 0 C8.19876651 5.44893869 7.91360308 8.22169095 5 13 C4.67 13 4.34 13 4 13 C3.67 9.7 3.34 6.4 3 3 C2.01 2.67 1.02 2.34 0 2 C0 1.34 0 0.68 0 0 Z " fill="#F9E3E6" transform="translate(296,263)"/>
<path d="M0 0 C0.33 0.99 0.66 1.98 1 3 C0.34 3 -0.32 3 -1 3 C-0.67 3.99 -0.34 4.98 0 6 C-1.5625 7.20442708 -3.125 8.40885417 -4.6875 9.61328125 C-6.34370205 11.04491137 -6.34370205 11.04491137 -6 14 C-5.34 14.66 -4.68 15.32 -4 16 C-7 16 -7 16 -10 14 C-9.40312566 10.65750371 -8.26396123 8.53563658 -6 6 C-5.34 6 -4.68 6 -4 6 C-4 5.34 -4 4.68 -4 4 C-3.34 4 -2.68 4 -2 4 C-2 3.34 -2 2.68 -2 2 C-1.34 2 -0.68 2 0 2 C0 1.34 0 0.68 0 0 Z " fill="#FDE4D7" transform="translate(76,238)"/>
<path d="M0 0 C0 0.33 0 0.66 0 1 C-1.670625 1.12375 -1.670625 1.12375 -3.375 1.25 C-5.169375 1.62125 -5.169375 1.62125 -7 2 C-8.18330183 3.86644906 -8.18330183 3.86644906 -9 6 C-13.28571429 9 -13.28571429 9 -16 9 C-16 9.66 -16 10.32 -16 11 C-16.99 11.33 -17.98 11.66 -19 12 C-19 11.34 -19 10.68 -19 10 C-18.34 10 -17.68 10 -17 10 C-17 9.34 -17 8.68 -17 8 C-16.34 8 -15.68 8 -15 8 C-15 7.34 -15 6.68 -15 6 C-13.5390625 4.52734375 -13.5390625 4.52734375 -11.625 2.9375 C-10.99851562 2.41027344 -10.37203125 1.88304687 -9.7265625 1.33984375 C-6.2061041 -1.39209569 -4.28451557 -0.83827479 0 0 Z " fill="#FDD8C9" transform="translate(108,215)"/>
<path d="M0 0 C3 2 3 2 3.5625 4.5625 C3.706875 5.366875 3.85125 6.17125 4 7 C4.66 7.33 5.32 7.66 6 8 C5.67 9.32 5.34 10.64 5 12 C3.35 11.67 1.7 11.34 0 11 C0 7.37 0 3.74 0 0 Z " fill="#FCE0DE" transform="translate(251,268)"/>
<path d="M0 0 C0.66666667 1.33333333 1.33333333 2.66666667 2 4 C2.37125 4.680625 2.7425 5.36125 3.125 6.0625 C4 8 4 8 4 11 C2.35 11 0.7 11 -1 11 C-1.99 9.02 -2.98 7.04 -4 5 C-3.34 5 -2.68 5 -2 5 C-1.34 3.35 -0.68 1.7 0 0 Z " fill="#FEE6F3" transform="translate(430,237)"/>
<path d="M0 0 C1.09570312 0.10183594 2.19140625 0.20367187 3.3203125 0.30859375 C4.16335938 0.39238281 5.00640625 0.47617188 5.875 0.5625 C5.545 1.2225 5.215 1.8825 4.875 2.5625 C0.915 2.5625 -3.045 2.5625 -7.125 2.5625 C-7.125 7.5125 -7.125 12.4625 -7.125 17.5625 C-7.455 17.5625 -7.785 17.5625 -8.125 17.5625 C-8.125 11.9525 -8.125 6.3425 -8.125 0.5625 C-5.28943413 -0.85528293 -3.1341294 -0.30007622 0 0 Z " fill="#F5D9DD" transform="translate(366.125,219.4375)"/>
<path d="M0 0 C2.31 0 4.62 0 7 0 C7.33 1.98 7.66 3.96 8 6 C7.01 6 6.02 6 5 6 C5 5.34 5 4.68 5 4 C4.01 4.495 4.01 4.495 3 5 C2.53476937 6.89533342 2.53476937 6.89533342 2.375 9.0625 C2.25125 10.361875 2.1275 11.66125 2 13 C1.67 13 1.34 13 1 13 C1 9.7 1 6.4 1 3 C1.66 2.67 2.32 2.34 3 2 C2.01 1.34 1.02 0.68 0 0 Z " fill="#FED5D5" transform="translate(241,263)"/>
<path d="M0 0 C2.86724686 0.57344937 3.8614515 0.8614515 6 3 C6.66 2.67 7.32 2.34 8 2 C7.67 3.32 7.34 4.64 7 6 C4.6875 6.6875 4.6875 6.6875 2 7 C0.125 5.8125 0.125 5.8125 -1 4 C-0.6875 1.8125 -0.6875 1.8125 0 0 Z " fill="#FBE5EB" transform="translate(393,273)"/>
<path d="M0 0 C2.31 0 4.62 0 7 0 C7 1.65 7 3.3 7 5 C5.68 5.33 4.36 5.66 3 6 C3 5.34 3 4.68 3 4 C0.69 4 -1.62 4 -4 4 C-2.68 3.34 -1.36 2.68 0 2 C0 1.34 0 0.68 0 0 Z " fill="#FBE7EC" transform="translate(381,276)"/>
<path d="M0 0 C0.66 0.33 1.32 0.66 2 1 C2.08131463 2.43655854 2.13933559 3.8744483 2.1875 5.3125 C2.22230469 6.11300781 2.25710938 6.91351563 2.29296875 7.73828125 C1.93801608 10.47851584 1.10633718 11.29171079 -1 13 C-2.07310858 9.72814447 -1.89263102 7.57052408 -1.0625 4.25 C-0.86785156 3.45078125 -0.67320312 2.6515625 -0.47265625 1.828125 C-0.31667969 1.22484375 -0.16070312 0.6215625 0 0 Z " fill="#FDFAFA" transform="translate(326,265)"/>
<path d="M0 0 C0.33 0.66 0.66 1.32 1 2 C-1.31 2.33 -3.62 2.66 -6 3 C-6.2475 3.969375 -6.495 4.93875 -6.75 5.9375 C-7.1625 6.948125 -7.575 7.95875 -8 9 C-10.125 9.875 -10.125 9.875 -12 10 C-10.35120321 3.40481284 -7.259327 -0.82963737 0 0 Z " fill="#FCD4CC" transform="translate(157,214)"/>
<path d="M0 0 C1.134375 0.020625 2.26875 0.04125 3.4375 0.0625 C3.1075 0.7225 2.7775 1.3825 2.4375 2.0625 C1.7775 2.0625 1.1175 2.0625 0.4375 2.0625 C-3.4053605 5.59793166 -3.25858684 10.15797036 -3.5625 15.0625 C-3.8925 15.0625 -4.2225 15.0625 -4.5625 15.0625 C-4.58935412 12.75006208 -4.60882841 10.4375373 -4.625 8.125 C-4.63660156 6.83722656 -4.64820313 5.54945313 -4.66015625 4.22265625 C-4.53212333 0.07951094 -4.53212333 0.07951094 0 0 Z " fill="#F7C9C9" transform="translate(254.5625,262.9375)"/>
<path d="M0 0 C1.32 0.66 2.64 1.32 4 2 C4 5 4 5 3 8 C1.35 7.67 -0.3 7.34 -2 7 C-2 6.34 -2 5.68 -2 5 C-1.34 5 -0.68 5 0 5 C0 4.34 0 3.68 0 3 C-0.66 2.67 -1.32 2.34 -2 2 C-1.34 1.34 -0.68 0.68 0 0 Z " fill="#FEE8E5" transform="translate(306,219)"/>
<path d="M0 0 C2.0625 0.4375 2.0625 0.4375 4 1 C2.6875 4.4375 2.6875 4.4375 1 8 C0.01 8.33 -0.98 8.66 -2 9 C-1.125 1.125 -1.125 1.125 0 0 Z " fill="#FCFBFB" transform="translate(318,264)"/>
<path d="M0 0 C1.32 0.33 2.64 0.66 4 1 C4 2.32 4 3.64 4 5 C1 7 1 7 -1.6875 6.625 C-2.450625 6.41875 -3.21375 6.2125 -4 6 C-3.01 5.34 -2.02 4.68 -1 4 C-0.27617533 1.94074861 -0.27617533 1.94074861 0 0 Z " fill="#FDE1E5" transform="translate(352,273)"/>
<path d="M0 0 C1.65 0 3.3 0 5 0 C7.125 4.625 7.125 4.625 6 8 C5.67 7.34 5.34 6.68 5 6 C4.01 6.99 3.02 7.98 2 9 C1.79913557 5.28400809 1.8480563 4.22791555 4 1 C3.01 1 2.02 1 1 1 C0.67 1.99 0.34 2.98 0 4 C0 2.68 0 1.36 0 0 Z " fill="#F8DBDD" transform="translate(277,263)"/>
<path d="M0 0 C2.97 0 5.94 0 9 0 C8.67 1.32 8.34 2.64 8 4 C6.68 4.33 5.36 4.66 4 5 C4 4.01 4 3.02 4 2 C3.34 2 2.68 2 2 2 C1.67 2.66 1.34 3.32 1 4 C0.67 2.68 0.34 1.36 0 0 Z " fill="#FEE1E9" transform="translate(330,263)"/>
<path d="M0 0 C3.4375 0.25 3.4375 0.25 7 1 C7.66 1.99 8.32 2.98 9 4 C7.329375 4.2165625 7.329375 4.2165625 5.625 4.4375 C2.17857953 4.78372035 2.17857953 4.78372035 0 6 C-0.38218767 4.34385343 -0.71395102 2.67542976 -1 1 C-0.67 0.67 -0.34 0.34 0 0 Z " fill="#FCFAF8" transform="translate(295,231)"/>
<path d="M0 0 C1.4606285 2.64738916 2 3.89448334 2 7 C1.01 7 0.02 7 -1 7 C-1.33 5.68 -1.66 4.36 -2 3 C-2.66 3 -3.32 3 -4 3 C-4 3.66 -4 4.32 -4 5 C-4.66 5 -5.32 5 -6 5 C-3.74193548 0 -3.74193548 0 0 0 Z " fill="#FEF8F6" transform="translate(312,271)"/>
<path d="M0 0 C0.78375 0.04125 1.5675 0.0825 2.375 0.125 C2.375 0.785 2.375 1.445 2.375 2.125 C1.385 2.62 1.385 2.62 0.375 3.125 C0.045 4.115 -0.285 5.105 -0.625 6.125 C-2.6875 6.8125 -2.6875 6.8125 -4.625 7.125 C-4.75 4.75 -4.75 4.75 -4.625 2.125 C-2.625 0.125 -2.625 0.125 0 0 Z " fill="#FEF9F9" transform="translate(308.625,263.875)"/>
<path d="M0 0 C0.66 0.33 1.32 0.66 2 1 C1.67 1.66 1.34 2.32 1 3 C1.66 3 2.32 3 3 3 C3 7.29 3 11.58 3 16 C2.67 16 2.34 16 2 16 C1.92652344 15.04287109 1.92652344 15.04287109 1.8515625 14.06640625 C1.77679688 13.24011719 1.70203125 12.41382813 1.625 11.5625 C1.55539062 10.73878906 1.48578125 9.91507813 1.4140625 9.06640625 C1.20910156 8.04353516 1.20910156 8.04353516 1 7 C0.34 6.67 -0.32 6.34 -1 6 C-0.67 4.02 -0.34 2.04 0 0 Z " fill="#FDF7F8" transform="translate(324,223)"/>
<path d="M0 0 C0.66 0 1.32 0 2 0 C2 0.66 2 1.32 2 2 C2.66 2 3.32 2 4 2 C4 3.98 4 5.96 4 8 C3.01 8.33 2.02 8.66 1 9 C1 7.02 1 5.04 1 3 C0.34 2.67 -0.32 2.34 -1 2 C-0.67 1.34 -0.34 0.68 0 0 Z " fill="#FBE1DD" transform="translate(250,220)"/>
<path d="M0 0 C0 0.66 0 1.32 0 2 C-3.63 2.33 -7.26 2.66 -11 3 C-10.67 2.01 -10.34 1.02 -10 0 C-6.33694766 -0.74926071 -3.57644848 -1.2380014 0 0 Z " fill="#FEF9F8" transform="translate(306,222)"/>
<path d="M0 0 C4.51478398 0.53115106 7.34666857 2.36620292 11 5 C9.375 5.75 9.375 5.75 7 6 C1.4109589 2.82191781 1.4109589 2.82191781 0 0 Z " fill="#F6D0C9" transform="translate(95,280)"/>
<path d="M0 0 C0.33 0 0.66 0 1 0 C1.04898437 0.85464844 1.09796875 1.70929688 1.1484375 2.58984375 C1.22320312 3.69457031 1.29796875 4.79929687 1.375 5.9375 C1.44460938 7.03964844 1.51421875 8.14179688 1.5859375 9.27734375 C1.72257812 10.17582031 1.85921875 11.07429688 2 12 C2.66 12.33 3.32 12.66 4 13 C2.35 13.33 0.7 13.66 -1 14 C-0.67 9.38 -0.34 4.76 0 0 Z " fill="#FDE2E2" transform="translate(298,266)"/>
<path d="M0 0 C0.99 0.33 1.98 0.66 3 1 C3 4.3 3 7.6 3 11 C0 9 0 9 -0.546875 7.08984375 C-0.7381288 5.06328901 -0.87101785 3.03146886 -1 1 C-0.67 0.67 -0.34 0.34 0 0 Z " fill="#FBF2F4" transform="translate(389,219)"/>
<path d="M0 0 C2.64 0 5.28 0 8 0 C7.67 1.65 7.34 3.3 7 5 C5.68 5 4.36 5 3 5 C3.66 4.67 4.32 4.34 5 4 C5 3.01 5 2.02 5 1 C3.35 1 1.7 1 0 1 C0 0.67 0 0.34 0 0 Z " fill="#FAD8DE" transform="translate(335,276)"/>
<path d="M0 0 C1.66611905 -0.042721 3.33382885 -0.04063832 5 0 C6 1 6 1 6.0625 4.5625 C6.041875 5.696875 6.02125 6.83125 6 8 C5.01 8.495 5.01 8.495 4 9 C3.67 6.69 3.34 4.38 3 2 C2.01 2 1.02 2 0 2 C0 1.34 0 0.68 0 0 Z " fill="#FFF5F4" transform="translate(252,264)"/>
<path d="M0 0 C0.99 0.33 1.98 0.66 3 1 C2.01 1.495 2.01 1.495 1 2 C1 2.66 1 3.32 1 4 C-0.375 5.625 -0.375 5.625 -2 7 C-2.66 7 -3.32 7 -4 7 C-4.33 7.66 -4.66 8.32 -5 9 C-4.67 7.02 -4.34 5.04 -4 3 C-2.68 3 -1.36 3 0 3 C0 2.01 0 1.02 0 0 Z " fill="#FEE4C0" transform="translate(109,226)"/>
<path d="M0 0 C1.98 0.99 1.98 0.99 4 2 C4 2.66 4 3.32 4 4 C5.32 4.66 6.64 5.32 8 6 C2.25 5.125 2.25 5.125 0 4 C0 2.68 0 1.36 0 0 Z " fill="#FADCD3" transform="translate(125,280)"/>
<path d="M0 0 C0.99 0 1.98 0 3 0 C3.33 0.66 3.66 1.32 4 2 C4.33 1.34 4.66 0.68 5 0 C5.66 0 6.32 0 7 0 C6.67 1.65 6.34 3.3 6 5 C4.68 4.67 3.36 4.34 2 4 C2 3.34 2 2.68 2 2 C1.34 2 0.68 2 0 2 C0 1.34 0 0.68 0 0 Z " fill="#FBDAE3" transform="translate(322,275)"/>
<path d="M0 0 C1.32 0 2.64 0 4 0 C4.66 1.65 5.32 3.3 6 5 C4.35 4.67 2.7 4.34 1 4 C0.67 2.68 0.34 1.36 0 0 Z " fill="#FEE2EC" transform="translate(357,275)"/>
<path d="M0 0 C0.99 0.66 1.98 1.32 3 2 C3 3.32 3 4.64 3 6 C1.68 6 0.36 6 -1 6 C-1 5.34 -1 4.68 -1 4 C-1.99 4.33 -2.98 4.66 -4 5 C-4 4.34 -4 3.68 -4 3 C-2.68 3 -1.36 3 0 3 C0 2.01 0 1.02 0 0 Z " fill="#FAE2EA" transform="translate(428,263)"/>
<path d="M0 0 C3 1 3 1 4.125 2.9375 C4.41375 3.618125 4.7025 4.29875 5 5 C5.33 5.66 5.66 6.32 6 7 C4.35 6.67 2.7 6.34 1 6 C0.67 4.02 0.34 2.04 0 0 Z " fill="#FCD1C4" transform="translate(88,248)"/>
<path d="M0 0 C0.66 0.99 1.32 1.98 2 3 C1.34 3.66 0.68 4.32 0 5 C1.32 5.66 2.64 6.32 4 7 C2.02 7 0.04 7 -2 7 C-2.125 4.625 -2.125 4.625 -2 2 C-1.34 1.34 -0.68 0.68 0 0 Z " fill="#FCE0E8" transform="translate(369,273)"/>
<path d="M0 0 C1.98 0 3.96 0 6 0 C4.25 3.875 4.25 3.875 2 5 C2 4.34 2 3.68 2 3 C1.34 3 0.68 3 0 3 C0 2.01 0 1.02 0 0 Z " fill="#F9E0EA" transform="translate(399,263)"/>
<path d="M0 0 C-1.65 1.65 -3.3 3.3 -5 5 C-5.99 4.67 -6.98 4.34 -8 4 C-7.67 3.01 -7.34 2.02 -7 1 C-4.53721199 -0.231394 -2.7204945 -0.07159196 0 0 Z " fill="#FCE3DD" transform="translate(249,219)"/>
<path d="M0 0 C0 1.32 0 2.64 0 4 C-2.375 4.1875 -2.375 4.1875 -5 4 C-5.66 3.01 -6.32 2.02 -7 1 C-4.53721199 -0.231394 -2.7204945 -0.07159196 0 0 Z " fill="#FCE8EE" transform="translate(386,220)"/>
<path d="M0 0 C6.0546875 -0.1953125 6.0546875 -0.1953125 8 0 C8.66 0.66 9.32 1.32 10 2 C6.6875 2.6875 6.6875 2.6875 3 3 C1.0625 1.5625 1.0625 1.5625 0 0 Z " fill="#FAD2CD" transform="translate(176,283)"/>
<path d="M0 0 C0.33 0 0.66 0 1 0 C1 1.65 1 3.3 1 5 C1.66 5 2.32 5 3 5 C3 4.34 3 3.68 3 3 C3.99 3.33 4.98 3.66 6 4 C5.01 5.485 5.01 5.485 4 7 C2.68 6.67 1.36 6.34 0 6 C0 4.02 0 2.04 0 0 Z " fill="#FDE1E9" transform="translate(411,273)"/>
<path d="M0 0 C0.66 0 1.32 0 2 0 C2.33 1.32 2.66 2.64 3 4 C1.35 4.66 -0.3 5.32 -2 6 C-2.33 5.34 -2.66 4.68 -3 4 C-1.625 2 -1.625 2 0 0 Z " fill="#FBDFE7" transform="translate(308,274)"/>
<path d="M0 0 C0.66 0 1.32 0 2 0 C1.01 2.97 0.02 5.94 -1 9 C-1.33 9 -1.66 9 -2 9 C-1.125 1.125 -1.125 1.125 0 0 Z " fill="#FCE0D8" transform="translate(147,256)"/>
<path d="M0 0 C2.97 0.495 2.97 0.495 6 1 C6 1.99 6 2.98 6 4 C4.02 4 2.04 4 0 4 C0 2.68 0 1.36 0 0 Z " fill="#FDF2EF" transform="translate(245,243)"/>
<path d="M0 0 C3.0625 0.3125 3.0625 0.3125 4.9375 1.8125 C5.30875 2.3075 5.68 2.8025 6.0625 3.3125 C4.1753125 3.065 4.1753125 3.065 2.25 2.8125 C-0.20206585 2.49091759 -2.45400694 2.3125 -4.9375 2.3125 C-2.9375 0.3125 -2.9375 0.3125 0 0 Z " fill="#FED6D8" transform="translate(329.9375,218.6875)"/>
<path d="M0 0 C0.66 0 1.32 0 2 0 C2 0.66 2 1.32 2 2 C3.98 1.67 5.96 1.34 8 1 C8 1.99 8 2.98 8 4 C5.36 3.67 2.72 3.34 0 3 C0 2.01 0 1.02 0 0 Z " fill="#FFF3F6" transform="translate(332,276)"/>
</svg>
